/* XPM */
static char * grid_xpm[] = {
"24 24 9 1",
" 	c None",
".	c #EDFFFD",
"+	c #FFFFFF",
"@	c #000000",
"#	c #000001",
"$	c #4B5151",
"%	c #000205",
"&	c #010305",
"*	c #D3D3D3",
"                        ",
"     ...+       ...     ",
"     .@+.+      .#+.    ",
"    ..@$.+    ...%$..   ",
"   ...@$...++..+.&$...  ",
" .....@$.........&$.... ",
" .@@@@@@@@@@@@@@@@@@@@. ",
" ++$$$@$$$$$$$$$$@$$$$* ",
" +....@$*........@$*... ",
"  +...@$.........@$..   ",
"   +.+@$.+..+..+.@$.    ",
"    ..@$.........@$.    ",
"    ..@$...+.+...@$.    ",
"    ..@$+........@$..   ",
"   .+.@$..+...+..@$..   ",
"  ....@$.........@$.+.  ",
" ...+.@$.........@$.... ",
" .@@@@@@@@@@@@@@@@@@@@+ ",
" .+$$$@$$$$$$$$$$@$$$$* ",
" +....@$*........@$*... ",
"  ++..@$.     ...@$..+  ",
"    +.@$.       .@$.+   ",
"     +*..       .*..    ",
"                        "};
