/* XPM */
static char *html_style_xpm[] = {
"24 24 2 1",
" 	c None",
".	c #000000",
"                        ",
"                        ",
"                .       ",
"               ..       ",
"              ...       ",
"              ...       ",
"             . ..       ",
"            .  ..       ",
"           .   ..       ",
"           .  ...       ",
"          .   ...       ",
"         ........       ",
"         .    ..        ",
"        .     ..        ",
"       .      ..        ",
"      ..      ..        ",
"      .       ..        ",
"     ....   ......      ",
"                        ",
"                        ",
"  ...................   ",
"  ...................   ",
"                        ",
"                        "};
