/* XPM */
static char *html_font_xpm[] = {
"24 24 79 1",
" 	c None",
".	c #A60254",
"+	c #AE004F",
"@	c #B40049",
"#	c #B00444",
"$	c #78074A",
"%	c #A40059",
"&	c #A90054",
"*	c #990165",
"=	c #9E005F",
"-	c #980542",
";	c #61074D",
">	c #940069",
",	c #990064",
"'	c #880274",
")	c #8E006F",
"!	c #8D0667",
"~	c #670633",
"{	c #4D074C",
"]	c #840079",
"^	c #890074",
"/	c #84065F",
"(	c #9D0451",
"_	c #760380",
":	c #7E007F",
"<	c #7A0571",
"[	c #740089",
"}	c #790084",
"|	c #8E016F",
"1	c #710642",
"2	c #620488",
"3	c #6E008F",
"4	c #700285",
"5	c #680758",
"6	c #9B025E",
"7	c #640099",
"8	c #690094",
"9	c #510469",
"0	c #50058E",
"a	c #5E009F",
"b	c #670291",
"c	c #590572",
"d	c #5D056E",
"e	c #61056A",
"f	c #730374",
"g	c #7C0654",
"h	c #5400A9",
"i	c #5900A4",
"j	c #94016A",
"k	c #3E068F",
"l	c #4E00AF",
"m	c #4F068C",
"n	c #3B095C",
"o	c #3E0959",
"p	c #410956",
"q	c #440954",
"r	c #460951",
"s	c #6B0373",
"t	c #4400BA",
"u	c #4900B4",
"v	c #4D03A8",
"w	c #7A0285",
"x	c #800566",
"y	c #2F0592",
"z	c #3E00BF",
"A	c #4400B9",
"B	c #310672",
"C	c #570665",
"D	c #2B07A6",
"E	c #3400C9",
"F	c #3900C4",
"G	c #380593",
"H	c #5B0475",
"I	c #840371",
"J	c #2504CB",
"K	c #2900D4",
"L	c #2E00CF",
"M	c #320584",
"N	c #4D0572",
"                        ",
"                        ",
"                        ",
"           .+@#         ",
"          $%&+@         ",
"          *=%&+-        ",
"         ;>,=%&+        ",
"         ')!,=%&~       ",
"        {]^ /,=%(       ",
"        _:<  >,=%       ",
"        [}   |>,=1      ",
"       234   5)>,6      ",
"       789    ^)>,      ",
"      0a7bcdef]^)>g     ",
"      hia783[}:]^)j     ",
"     klhmnopqrs:]^)     ",
"     tuv       w:]^x    ",
"    yzAB       C}:]^    ",
"   DEFzG       H[}:]I   ",
"  JKLEFzM     N83[}:]^  ",
"                        ",
"                        ",
"                        ",
"                        "};
