/* XPM */
static char *html_image_xpm[] = {
"24 24 4 1",
" 	c None",
".	c #000000",
"+	c #0000FF",
"@	c #FFFFFF",
"                        ",
"                        ",
"                        ",
"                        ",
"                        ",
"                        ",
"                        ",
"       .........        ",
"     ....++++++....     ",
"   ..@@.++++++++.@@..   ",
"  ..@@.++++..++++.@@..  ",
" ..@@@.+++....+++.@@@.. ",
" ..@@@.+++....+++.@@@.. ",
"  ..@@.++++..++++.@@..  ",
"   ..@@.++++++++.@@..   ",
"     ....++++++....     ",
"        ........        ",
"                        ",
"                        ",
"                        ",
"                        ",
"                        ",
"                        ",
"                        "};
