/* XPM */
static char *html_list_xpm[] = {
"24 24 3 1",
" 	c None",
".	c #FFFFFF",
"+	c #000000",
"                        ",
" ...................... ",
" ...................... ",
" ..+..++++++++++++++... ",
" ...................... ",
" ...................... ",
" ..+..++++++++++++++... ",
" ...................... ",
" ...................... ",
" ..+..++++++++++++++... ",
" ...................... ",
" ...................... ",
" ..+..++++++++++++++... ",
" ...................... ",
" ...................... ",
" ..+..++++++++++++++... ",
" ...................... ",
" ...................... ",
" ..+..++++++++++++++... ",
" ...................... ",
" ...................... ",
" ...................... ",
" ...................... ",
"                        "};
