/* XPM */
static char *html_break_xpm[] = {
"24 24 7 2",
".. c None",
".# c #000000",
".i c #ffffff",
".s c #7f7f00",
".y c #ffff00",
"#. c #000000",
"## c #000000",
"................................................",
"................................................",
"................................................",
"................................................",
"########################################........",
"########################################........",
"................................................",
"................................................",
".....................#.#.#.##...................",
"#############......#..........#.................",
"#############.....#.............#...............",
".................................#..............",
"..................................#.............",
"............................#.....#.............",
"............................#.#.#.#.............",
"............................#.#.#.#.............",
"............................#.#.#.#.............",
"............................#.#.#.#.#...........",
"................................................", 
"................................................",
"................................................",
"................................................",
"................................................",
"................................................"
};
