/* XPM */
static char *html_line_xpm[] = {
"24 24 3 1",
" 	c None",
".	c #919191",
"+	c #000000",
"                        ",
"                        ",
"                        ",
"                        ",
"                        ",
"                        ",
"                        ",
"                        ",
"                        ",
"   ...................  ",
"  +++++++++++++++++++   ",
"  +++++++++++++++++++   ",
"                        ",
"                        ",
"                        ",
"                        ",
"                        ",
"                        ",
"                        ",
"                        ",
"                        ",
"                        ",
"                        ",
"                        "};
