/* XPM */
static char *html_header_xpm[] = {
"24 24 33 1",
" 	c None",
".	c #FFEFEF",
"+	c #FFBFBF",
"@	c #FEBFBF",
"#	c #FEC5C5",
"$	c #FF0000",
"%	c #FE0000",
"&	c #FE1717",
"*	c #FFE7E7",
"=	c #FF9F9F",
"-	c #FE9F9F",
";	c #FEA8A8",
">	c #FDFDFD",
",	c #F7F7F7",
"'	c #D7D7D7",
")	c #5F5F5F",
"!	c #6E6E6E",
"~	c #FFFFFF",
"{	c #FEFEFE",
"]	c #D5D5D5",
"^	c #575757",
"/	c #676767",
"(	c #DDDDDD",
"_	c #777777",
":	c #848484",
"<	c #DFDFDF",
"[	c #E2E2E2",
"}	c #EDEDED",
"|	c #B7B7B7",
"1	c #BEBEBE",
"2	c #E7E7E7",
"3	c #9F9F9F",
"4	c #A8A8A8",
"                        ",
"                        ",
"                        ",
"   .+@@@++++@@@@@@@@@@@#",
"   +$$%$$$$$%%%%%%%%%%%&",
"   +$$%$$$$$%%%%%%%%%%%&",
"   @%%%%$%%$%%%%%%%%%%%&",
"   @%%%%$%%$%%%%%%%%%%%&",
"   +$$%$$$$$%%%%%%%%%%%&",
"   *=---====-----------;",
"   >,,,,,,,,,,,,,,,,,,,,",
"   ')))))))))))))))))))!",
"   ~~{{{~~~~{{{{{{{{{{{{",
"   ]^^^^^^^^^^^^^^^^^^^/",
"   ~~~{~~~~~{{{{{{{{{{{{",
"   (___________________:",
"   ,<<<<<<<<<<<<<<<<<<<[",
"   }|||||||||||||||||||1",
"   233333333333333333334",
"   >,,,,,,,,,,,,,,,,,,,,",
"   ')))))))))))))))))))!",
"   ~~{{{~~~~{{{{{{{{{{{{",
"   ]^^^^^^^^^^^^^^^^^^^/",
"   ~~~{~~~~~{{{{{{{{{{{{"};
