/* XPM */
static char * render_xpm[] = {
"24 24 528 2",
"  	c None",
". 	c #0C0420",
"+ 	c #10052A",
"@ 	c #160A3E",
"# 	c #1C0F53",
"$ 	c #221467",
"% 	c #25197E",
"& 	c #271D93",
"* 	c #2820A4",
"= 	c #2627B2",
"- 	c #2429BE",
"; 	c #232FC7",
"> 	c #2233CB",
", 	c #223ACC",
"' 	c #2244CC",
") 	c #2250CD",
"! 	c #225FCC",
"~ 	c #2274C7",
"{ 	c #228EBF",
"] 	c #22A9B9",
"^ 	c #22BFB5",
"/ 	c #22CDB2",
"( 	c #22D3B0",
"_ 	c #22D5AF",
": 	c #0A0219",
"< 	c #0F0629",
"[ 	c #150A3A",
"} 	c #1A0D4E",
"| 	c #211367",
"1 	c #281D93",
"2 	c #2725A7",
"3 	c #2628B5",
"4 	c #252DBF",
"5 	c #2333C8",
"6 	c #2238CD",
"7 	c #223ED0",
"8 	c #2247CF",
"9 	c #2256CB",
"0 	c #2264CA",
"a 	c #2275C6",
"b 	c #228BC0",
"c 	c #22A2B9",
"d 	c #22B8B3",
"e 	c #22C8AC",
"f 	c #22D1A8",
"g 	c #22D5A6",
"h 	c #22D6A5",
"i 	c #0D0424",
"j 	c #140835",
"k 	c #190D48",
"l 	c #1F1260",
"m 	c #24187A",
"n 	c #271D92",
"o 	c #2725A6",
"p 	c #262AB6",
"q 	c #2530C1",
"r 	c #2338C6",
"s 	c #223ECB",
"t 	c #2247CE",
"u 	c #2251CF",
"v 	c #225CCD",
"w 	c #226BC9",
"x 	c #227DC3",
"y 	c #228EBE",
"z 	c #22A2B7",
"A 	c #22B6AF",
"B 	c #22C6A7",
"C 	c #24CF9A",
"D 	c #24D393",
"E 	c #26D590",
"F 	c #26D68F",
"G 	c #110833",
"H 	c #170C46",
"I 	c #1E115C",
"J 	c #231776",
"K 	c #261C8F",
"L 	c #2625A4",
"M 	c #262CB6",
"N 	c #2434C1",
"O 	c #233CC9",
"P 	c #2247CB",
"Q 	c #2251CB",
"R 	c #225CCB",
"S 	c #2269CA",
"T 	c #2275C9",
"U 	c #2284C5",
"V 	c #2297BC",
"W 	c #22A8B5",
"X 	c #22B8AD",
"Y 	c #24C59F",
"Z 	c #26CD95",
"` 	c #2BD286",
" .	c #2ED47C",
"..	c #2FD575",
"+.	c #30D571",
"@.	c #160B41",
"#.	c #1C0F57",
"$.	c #22146E",
"%.	c #261A89",
"&.	c #2625A1",
"*.	c #262EB3",
"=.	c #2437C0",
"-.	c #2341C9",
";.	c #224ECC",
">.	c #225CCC",
",.	c #2278C8",
"'.	c #2285C5",
").	c #2291C3",
"!.	c #22A0BC",
"~.	c #22AFB5",
"{.	c #22BDAD",
"].	c #24C79F",
"^.	c #2BCE8E",
"/.	c #2ED27F",
"(.	c #33D56F",
"_.	c #38D562",
":.	c #3BD559",
"<.	c #3DD555",
"[.	c #1A0E52",
"}.	c #20146A",
"|.	c #251983",
"1.	c #26219A",
"2.	c #262DAF",
"3.	c #2536BE",
"4.	c #2342C7",
"5.	c #2250CB",
"6.	c #2262CC",
"7.	c #2274CA",
"8.	c #2284C7",
"9.	c #2293C4",
"0.	c #229FC1",
"a.	c #22A9BB",
"b.	c #21B4B3",
"c.	c #21BEAB",
"d.	c #23C69C",
"e.	c #2BCB8B",
"f.	c #34CE76",
"g.	c #3CD468",
"h.	c #46D657",
"i.	c #4CD64A",
"j.	c #51D641",
"k.	c #53D53E",
"l.	c #1F1368",
"m.	c #241880",
"n.	c #252097",
"o.	c #262AAB",
"p.	c #2535BA",
"q.	c #2442C4",
"r.	c #2252C9",
"s.	c #2278C9",
"t.	c #228DC7",
"u.	c #229EC3",
"v.	c #22AEC1",
"w.	c #22B7BB",
"x.	c #23BFB7",
"y.	c #24C6AF",
"z.	c #27CDA0",
"A.	c #2FD28F",
"B.	c #36D177",
"C.	c #42D163",
"D.	c #4FD552",
"E.	c #5ED542",
"F.	c #68D637",
"G.	c #6ED630",
"H.	c #6FD62E",
"I.	c #22177D",
"J.	c #251F94",
"K.	c #2626A8",
"L.	c #2531B8",
"M.	c #2440C3",
"N.	c #2250C8",
"O.	c #2265CA",
"P.	c #227BC8",
"Q.	c #2291C5",
"R.	c #22A5C3",
"S.	c #22B5C0",
"T.	c #22C2BD",
"U.	c #22C9B7",
"V.	c #23CBB1",
"W.	c #25CEA5",
"X.	c #30D290",
"Y.	c #37D47D",
"Z.	c #43D366",
"`.	c #53D250",
" +	c #68D53F",
".+	c #78D534",
"++	c #85D62C",
"@+	c #8ED629",
"#+	c #8ED628",
"$+	c #251C92",
"%+	c #2525A7",
"&+	c #252EB6",
"*+	c #243DC1",
"=+	c #234DC7",
"-+	c #2262C9",
";+	c #2291C6",
">+	c #22B6C0",
",+	c #22C3BC",
"'+	c #22CEB8",
")+	c #22D3B2",
"!+	c #23D2A9",
"~+	c #2BD295",
"{+	c #35D381",
"]+	c #41D46A",
"^+	c #54D351",
"/+	c #6AD23E",
"(+	c #80D531",
"_+	c #94D329",
":+	c #A1D225",
"<+	c #A9D124",
"[+	c #ABD023",
"}+	c #2522A5",
"|+	c #252CB6",
"1+	c #2437C2",
"2+	c #2348C7",
"3+	c #225CC9",
"4+	c #2272C9",
"5+	c #22A4C4",
"6+	c #22B6C1",
"7+	c #22CCB8",
"8+	c #22D2B3",
"9+	c #22D6A9",
"0+	c #25D49D",
"a+	c #32D385",
"b+	c #41D46D",
"c+	c #52D557",
"d+	c #68D240",
"e+	c #81D030",
"f+	c #99D128",
"g+	c #A9CF24",
"h+	c #B4CE22",
"i+	c #B9CC22",
"j+	c #BACC22",
"k+	c #252AB5",
"l+	c #2332C3",
"m+	c #223ECA",
"n+	c #2253CB",
"o+	c #226CC8",
"p+	c #2285C6",
"q+	c #229FC4",
"r+	c #22B4C1",
"s+	c #22C3BF",
"t+	c #22CBB9",
"u+	c #22CEB4",
"v+	c #21D0AA",
"w+	c #23D4A0",
"x+	c #2CD38D",
"y+	c #38CF6F",
"z+	c #47CD56",
"A+	c #62D548",
"B+	c #79CD32",
"C+	c #94CD29",
"D+	c #AACD24",
"E+	c #B7CA22",
"F+	c #BEC722",
"G+	c #C1C422",
"H+	c #C1C322",
"I+	c #242FC1",
"J+	c #223CCA",
"K+	c #224CCD",
"L+	c #227DC8",
"M+	c #2296C4",
"N+	c #22C1BF",
"O+	c #22CDBB",
"P+	c #22D1B4",
"Q+	c #22D0AE",
"R+	c #23D1A2",
"S+	c #28CE8C",
"T+	c #34D37D",
"U+	c #3FCB5B",
"V+	c #55CE46",
"W+	c #74D23A",
"X+	c #8BC92B",
"Y+	c #A5C625",
"Z+	c #B6C222",
"`+	c #BFBC22",
" @	c #C3B722",
".@	c #C4B422",
"+@	c #C4B222",
"@@	c #2338C7",
"#@	c #2246CC",
"$@	c #2257CD",
"%@	c #2271CB",
"&@	c #228AC7",
"*@	c #22A5C2",
"=@	c #22B9BF",
"-@	c #22C8BC",
";@	c #22D4AE",
">@	c #22D3A5",
",@	c #28D093",
"'@	c #2ACB7A",
")@	c #3DD46D",
"!@	c #53D451",
"~@	c #6BD03E",
"{@	c #85CB30",
"]@	c #9AC327",
"^@	c #B0BC24",
"/@	c #BDB522",
"(@	c #C4AC22",
"_@	c #C6A322",
":@	c #C79D22",
"<@	c #C79C22",
"[@	c #2241CA",
"}@	c #2252CC",
"|@	c #2266CB",
"1@	c #227EC9",
"2@	c #229AC4",
"3@	c #22B0C0",
"4@	c #22C0BA",
"5@	c #22CBB6",
"6@	c #21D0AE",
"7@	c #22D4A6",
"8@	c #26D398",
"9@	c #26CC81",
"0@	c #3CD36F",
"a@	c #4BD35B",
"b@	c #62D144",
"c@	c #7BCB33",
"d@	c #93C32A",
"e@	c #A8B924",
"f@	c #B9AF22",
"g@	c #C3A322",
"h@	c #C79622",
"i@	c #CA8A22",
"j@	c #CB8222",
"k@	c #CB7F22",
"l@	c #2262CB",
"m@	c #2277C8",
"n@	c #2290C5",
"o@	c #22A8C1",
"p@	c #22BCBC",
"q@	c #22C8B7",
"r@	c #22CEB1",
"s@	c #21D0A5",
"t@	c #23D19A",
"u@	c #26CE84",
"v@	c #37D376",
"w@	c #46D35E",
"x@	c #5AD14B",
"y@	c #73CC38",
"z@	c #8AC42D",
"A@	c #9FBA26",
"B@	c #B2AB23",
"C@	c #BF9D22",
"D@	c #C78D22",
"E@	c #CB7D22",
"F@	c #CD6F22",
"G@	c #CE6522",
"H@	c #CF6122",
"I@	c #225DCC",
"J@	c #2272CA",
"K@	c #228AC6",
"L@	c #22B5BD",
"M@	c #22C5B7",
"N@	c #22CEB0",
"O@	c #22D2A9",
"P@	c #21D09A",
"Q@	c #25CE87",
"R@	c #2BCA70",
"S@	c #40D364",
"T@	c #53D14F",
"U@	c #68CE3E",
"V@	c #80C532",
"W@	c #99BA29",
"X@	c #ADAB25",
"Y@	c #BC9923",
"Z@	c #C58522",
"`@	c #CB7522",
" #	c #D05722",
".#	c #D24C22",
"+#	c #D24722",
"@#	c #226EC9",
"##	c #2286C7",
"$#	c #229BC2",
"%#	c #22AFBD",
"&#	c #22C0B8",
"*#	c #22CCAF",
"=#	c #22D3A7",
"-#	c #22D59C",
";#	c #23D48A",
">#	c #2BD475",
",#	c #32CB5C",
"'#	c #4AD353",
")#	c #60CF41",
"!#	c #77C834",
"~#	c #90BC2C",
"{#	c #A7AA25",
"]#	c #B99923",
"^#	c #CB7122",
"/#	c #CE6022",
"(#	c #D05222",
"_#	c #D24622",
":#	c #D43C22",
"<#	c #D53622",
"[#	c #2283C4",
"}#	c #22AEBF",
"|#	c #22BEB7",
"1#	c #22C8B1",
"2#	c #22CFA7",
"3#	c #22D39C",
"4#	c #23D48C",
"5#	c #28D477",
"6#	c #32D461",
"7#	c #3BCB4A",
"8#	c #56D145",
"9#	c #6ECA36",
"0#	c #83BD2A",
"a#	c #9EAF26",
"b#	c #B39D23",
"c#	c #C28722",
"d#	c #CF5D22",
"e#	c #D14E22",
"f#	c #D24422",
"g#	c #D33D22",
"h#	c #D53122",
"i#	c #229CC0",
"j#	c #22AFBE",
"k#	c #22CBB2",
"l#	c #22CFAA",
"m#	c #22D19C",
"n#	c #22D38D",
"o#	c #27D479",
"p#	c #2ED463",
"q#	c #3AD54F",
"r#	c #46CB3D",
"s#	c #5FC532",
"t#	c #79C02B",
"u#	c #94B527",
"v#	c #ABA424",
"w#	c #BD8C23",
"x#	c #C87522",
"y#	c #CE5F22",
"z#	c #D33F22",
"A#	c #D43A22",
"B#	c #D43822",
"C#	c #D43622",
"D#	c #D53422",
"E#	c #22B4BD",
"F#	c #22C2BA",
"G#	c #22CCB4",
"H#	c #22D2AB",
"I#	c #22D3A1",
"J#	c #22D390",
"K#	c #25D47B",
"L#	c #2CD465",
"M#	c #35D551",
"N#	c #45D23F",
"O#	c #5BCF34",
"P#	c #76C52D",
"Q#	c #8FBA29",
"R#	c #A7AB25",
"S#	c #B99523",
"T#	c #C57C22",
"U#	c #CC6522",
"V#	c #D15022",
"W#	c #D43722",
"X#	c #22C5BA",
"Y#	c #22CDB7",
"Z#	c #22D1B0",
"`#	c #22D5A5",
" $	c #22D697",
".$	c #25D482",
"+$	c #29D46B",
"@$	c #32D554",
"#$	c #3ED342",
"$$	c #54CF35",
"%$	c #6DCA2E",
"&$	c #89BD29",
"*$	c #A1AF26",
"=$	c #B59D23",
"-$	c #C28522",
";$	c #CA6E22",
">$	c #CF5922",
",$	c #D53322",
"'$	c #D33B22",
")$	c #22CFB9",
"!$	c #22D2B5",
"~$	c #22D3AA",
"{$	c #22D59E",
"]$	c #22D58B",
"^$	c #26D574",
"/$	c #2DD55C",
"($	c #39D346",
"_$	c #4AD039",
":$	c #63CA2F",
"<$	c #7DC22A",
"[$	c #99B427",
"}$	c #B0A124",
"|$	c #BF8D23",
"1$	c #C97722",
"2$	c #D34122",
"3$	c #D43922",
"4$	c #D53522",
"5$	c #D33C22",
"6$	c #22D4B6",
"7$	c #22D5B1",
"8$	c #22D594",
"9$	c #25D57F",
"0$	c #28D567",
"a$	c #32D34E",
"b$	c #42D13C",
"c$	c #56CD34",
"d$	c #72C42C",
"e$	c #8FB928",
"f$	c #A9A625",
"g$	c #BB9023",
"h$	c #C67B22",
"i$	c #CD6622",
"j$	c #D15322",
"k$	c #D34522",
"l$	c #D33E22",
"m$	c #22D6B6",
"n$	c #22D6B0",
"o$	c #22D6A3",
"p$	c #22D58E",
"q$	c #26D573",
"r$	c #2BD559",
"s$	c #38D243",
"t$	c #49CF36",
"u$	c #62C92E",
"v$	c #80BD2A",
"w$	c #9EAE27",
"x$	c #B59823",
"y$	c #C48122",
"z$	c #CB6A22",
"A$	c #CF5722",
"B$	c #D24822",
"C$	c #D43E22",
"  . + @ # $ % & * = - ; > , ' ) ! ~ { ] ^ / ( _ ",
": < [ } | % 1 2 3 4 5 6 7 8 9 0 a b c d e f g h ",
"i j k l m n o p q r s t u v w x y z A B C D E F ",
"G H I J K L M N O P Q R S T U V W X Y Z `  ...+.",
"@.#.$.%.&.*.=.-.;.>.S ,.'.).!.~.{.].^./.(._.:.<.",
"[.}.|.1.2.3.4.5.6.7.8.9.0.a.b.c.d.e.f.g.h.i.j.k.",
"l.m.n.o.p.q.r.0 s.t.u.v.w.x.y.z.A.B.C.D.E.F.G.H.",
"I.J.K.L.M.N.O.P.Q.R.S.T.U.V.W.X.Y.Z.`. +.+++@+#+",
"$+%+&+*+=+-+s.;+R.>+,+'+)+!+~+{+]+^+/+(+_+:+<+[+",
"}+|+1+2+3+4+t.5+6+T.7+8+9+0+a+b+c+d+e+f+g+h+i+j+",
"k+l+m+n+o+p+q+r+s+t+u+v+w+x+y+z+A+B+C+D+E+F+G+H+",
"I+J+K+6.L+M+v.N+O+P+Q+R+S+T+U+V+W+X+Y+Z+`+ @.@+@",
"@@#@$@%@&@*@=@-@P+;@>@,@'@)@!@~@{@]@^@/@(@_@:@<@",
"[@}@|@1@2@3@4@5@6@7@8@9@0@a@b@c@d@e@f@g@h@i@j@k@",
";.l@m@n@o@p@q@r@s@t@u@v@w@x@y@z@A@B@C@D@E@F@G@H@",
"I@J@K@0.L@M@N@O@P@Q@R@S@T@U@V@W@X@Y@Z@`@G@ #.#+#",
"@###$#%#&#*#=#-#;#>#,#'#)#!#~#{#]#Z@^#/#(#_#:#<#",
"[#$#}#|#1#2#3#4#5#6#7#8#9#0#a#b#c#^#d#e#f#g#<#h#",
"i#j#&#k#l#m#n#o#p#q#r#s#t#u#v#w#x#y#.#z#A#B#C#D#",
"E#F#G#H#I#J#K#L#M#N#O#P#Q#R#S#T#U#V#z#<#D#C#C#W#",
"X#Y#Z#`# $.$+$@$#$$$%$&$*$=$-$;$>$+#A#,$h#D#B#'$",
")$!$~${$]$^$/$($_$:$<$[$}$|$1$/#e#2$3$4$,$C#3$5$",
"6$7$`#8$9$0$a$b$c$d$e$f$g$h$i$j$k$:#B#W#W#3$5$l$",
"m$n$o$p$q$r$s$t$u$v$w$x$y$z$A$B$:#<#4$C#3$5$l$C$"};
