/* XPM */
static char * c11_xpm[] = {
"52 52 703 2",
"  	c None",
". 	c #796CE9",
"+ 	c #7165DC",
"@ 	c #655AC9",
"# 	c #7C6FF3",
"$ 	c #776AED",
"% 	c #7064E3",
"& 	c #665CD3",
"* 	c #463F93",
"= 	c #8779FF",
"- 	c #7E71FA",
"; 	c #786CF5",
"> 	c #7368F0",
", 	c #6E63E8",
"' 	c #675CDC",
") 	c #5D53C9",
"! 	c #8778FF",
"~ 	c #7E71FE",
"{ 	c #786CFB",
"] 	c #7568F7",
"^ 	c #7165F3",
"/ 	c #6D61ED",
"( 	c #675DE4",
"_ 	c #5F56D5",
": 	c #4F47B3",
"< 	c #8E7EFF",
"[ 	c #8576FF",
"} 	c #7D70FE",
"| 	c #786BFE",
"1 	c #7468FC",
"2 	c #7167FA",
"3 	c #6E63F7",
"4 	c #6B60F4",
"5 	c #675EEE",
"6 	c #6259E4",
"7 	c #5A52D2",
"8 	c #8C7CFF",
"9 	c #8476FF",
"0 	c #7B6EFE",
"a 	c #7669FE",
"b 	c #7367FD",
"c 	c #7165FD",
"d 	c #6F64FC",
"e 	c #6C61FA",
"f 	c #6960F8",
"g 	c #675DF4",
"h 	c #645BEC",
"i 	c #5F56E0",
"j 	c #564EC9",
"k 	c #8B7BFF",
"l 	c #8374FF",
"m 	c #7B6DFF",
"n 	c #7567FE",
"o 	c #7164FE",
"p 	c #6F63FD",
"q 	c #6D61FD",
"r 	c #6B60FB",
"s 	c #685EF9",
"t 	c #665DF6",
"u 	c #655CF0",
"v 	c #6359E9",
"w 	c #5F56DF",
"x 	c #5850CD",
"y 	c #443D9C",
"z 	c #8A7AFF",
"A 	c #8172FF",
"B 	c #796BFF",
"C 	c #7366FE",
"D 	c #7063FE",
"E 	c #6D62FE",
"F 	c #6B61FE",
"G 	c #6A5FFD",
"H 	c #695EFC",
"I 	c #685DF9",
"J 	c #665CF5",
"K 	c #655CF1",
"L 	c #5D54D6",
"M 	c #5149B8",
"N 	c #8A79FF",
"O 	c #7F72FF",
"P 	c #776AFE",
"Q 	c #7264FE",
"R 	c #6E61FE",
"S 	c #6C60FE",
"T 	c #6A5EFE",
"U 	c #695EFD",
"V 	c #685DFD",
"W 	c #675DFB",
"X 	c #675DF8",
"Y 	c #675DF6",
"Z 	c #675DF3",
"` 	c #665DEE",
" .	c #645BE8",
"..	c #6158DE",
"+.	c #5A52CB",
"@.	c #38337E",
"#.	c #8879FF",
"$.	c #7E6FFF",
"%.	c #7667FE",
"&.	c #6D61FE",
"*.	c #675DFE",
"=.	c #665CFD",
"-.	c #675DFC",
";.	c #675DFA",
">.	c #695FF7",
",.	c #695FF4",
"'.	c #685FF1",
").	c #675EED",
"!.	c #645CE4",
"~.	c #5F57D6",
"{.	c #5851C4",
"].	c #6F62FE",
"^.	c #695EFE",
"/.	c #675CFE",
"(.	c #665BFC",
"_.	c #675CFB",
":.	c #685EFB",
"<.	c #695FF9",
"[.	c #695FF8",
"}.	c #6A60F6",
"|.	c #6960F3",
"1.	c #685FEF",
"2.	c #675EE9",
"3.	c #635BDD",
"4.	c #5C54CC",
"5.	c #3A3580",
"6.	c #8677FF",
"7.	c #6E62FE",
"8.	c #6A5FFE",
"9.	c #685DFE",
"0.	c #665CFE",
"a.	c #665BFD",
"b.	c #655BFC",
"c.	c #665BFB",
"d.	c #695FFB",
"e.	c #6A60FA",
"f.	c #6B61F9",
"g.	c #6B61F7",
"h.	c #6B62F5",
"i.	c #6A61F1",
"j.	c #6960EC",
"k.	c #665EE3",
"l.	c #6159D6",
"m.	c #5953C4",
"n.	c #7667FF",
"o.	c #665BFE",
"p.	c #655AFD",
"q.	c #655BFB",
"r.	c #665CFB",
"s.	c #6A60FB",
"t.	c #6B61FA",
"u.	c #6C62F9",
"v.	c #6C62F8",
"w.	c #6C63F6",
"x.	c #6C62F3",
"y.	c #6B62EF",
"z.	c #6960E8",
"A.	c #655DDD",
"B.	c #5E56CC",
"C.	c #443F93",
"D.	c #7567FF",
"E.	c #675BFE",
"F.	c #655AFE",
"G.	c #645AFC",
"H.	c #645AFB",
"I.	c #685DFB",
"J.	c #6D63FA",
"K.	c #6D63F9",
"L.	c #6D64F7",
"M.	c #6E64F5",
"N.	c #6D64F2",
"O.	c #6C63EC",
"P.	c #6860E3",
"Q.	c #635BD6",
"R.	c #5B54C3",
"S.	c #7D6EFF",
"T.	c #695DFE",
"U.	c #675BFD",
"V.	c #6B61FB",
"W.	c #6C63FB",
"X.	c #6E64FA",
"Y.	c #6E65FA",
"Z.	c #6F66F8",
"`.	c #6F66F7",
" +	c #6F66F4",
".+	c #6E65F0",
"++	c #6C63E9",
"@+	c #6960E0",
"#+	c #635BD1",
"$+	c #5851BA",
"%+	c #7D6FFF",
"&+	c #645AF9",
"*+	c #645AF5",
"=+	c #655BF5",
"-+	c #675DF7",
";+	c #6C62FB",
">+	c #6D64FB",
",+	c #6E65FB",
"'+	c #6F65FA",
")+	c #7066FA",
"!+	c #7167F8",
"~+	c #7067F5",
"{+	c #7067F2",
"]+	c #6E66ED",
"^+	c #6C64E7",
"/+	c #6760DB",
"(+	c #6059C9",
"_+	c #7F70FF",
":+	c #7668FE",
"<+	c #6F63FE",
"[+	c #685CFE",
"}+	c #645AFD",
"|+	c #5B52E6",
"1+	c #3F3A92",
"2+	c #4E489E",
"3+	c #504B9B",
"4+	c #544F9F",
"5+	c #534E9E",
"6+	c #534CB1",
"7+	c #6D63FB",
"8+	c #6E64FB",
"9+	c #6F65FB",
"0+	c #7168F8",
"a+	c #7168F6",
"b+	c #7168F3",
"c+	c #7068F0",
"d+	c #6F66EA",
"e+	c #6B63E0",
"f+	c #645CD0",
"g+	c #504BA5",
"h+	c #897AFF",
"i+	c #8071FF",
"j+	c #7769FF",
"k+	c #655BFD",
"l+	c #5149CB",
"m+	c #000001",
"n+	c #000000",
"o+	c #080711",
"p+	c #3D378C",
"q+	c #7066FB",
"r+	c #7168FB",
"s+	c #7268FA",
"t+	c #7369F9",
"u+	c #7369F7",
"v+	c #7369F5",
"w+	c #7269F2",
"x+	c #7168ED",
"y+	c #6E66E6",
"z+	c #6961DA",
"A+	c #5C55BC",
"B+	c #8173FF",
"C+	c #786BFF",
"D+	c #7265FE",
"E+	c #6C61FE",
"F+	c #5C54C8",
"G+	c #4C47AC",
"H+	c #544CC2",
"I+	c #6F66FB",
"J+	c #7167FB",
"K+	c #7268FB",
"L+	c #7369FA",
"M+	c #736AFA",
"N+	c #746AF8",
"O+	c #736AF6",
"P+	c #736AF2",
"Q+	c #736AEF",
"R+	c #7169EA",
"S+	c #6D65E1",
"T+	c #655FCF",
"U+	c #433F88",
"V+	c #8274FF",
"W+	c #7A6CFE",
"X+	c #7266FE",
"Y+	c #5F58CA",
"Z+	c #141230",
"`+	c #4842A3",
" @	c #6259E6",
".@	c #685EEF",
"+@	c #7269FB",
"@@	c #736AFB",
"#@	c #746BFA",
"$@	c #756CF9",
"%@	c #756CF7",
"&@	c #756CF4",
"*@	c #756CF2",
"=@	c #736BEE",
"-@	c #7269E8",
";@	c #6C64DA",
">@	c #625BC5",
",@	c #7A6DFE",
"'@	c #7467FE",
")@	c #6159D0",
"!@	c #0E0D1F",
"~@	c #413C94",
"{@	c #5F56DD",
"]@	c #746BFB",
"^@	c #756CFB",
"/@	c #766DFA",
"(@	c #776DF8",
"_@	c #766DF6",
":@	c #766EF4",
"<@	c #766DF1",
"[@	c #746CEB",
"}@	c #7169E1",
"|@	c #6A62D2",
"1@	c #423D82",
"2@	c #8577FF",
"3@	c #7C6FFE",
"4@	c #7165FE",
"5@	c #6A60FE",
"6@	c #665CFC",
"7@	c #5952CA",
"8@	c #403A91",
"9@	c #5B52D3",
"0@	c #7067FB",
"a@	c #766DFB",
"b@	c #776EFA",
"c@	c #786FF9",
"d@	c #786FF7",
"e@	c #786FF5",
"f@	c #776FF2",
"g@	c #766EED",
"h@	c #736BE6",
"i@	c #6E66D9",
"j@	c #645EC5",
"k@	c #786AFE",
"l@	c #7367FE",
"m@	c #675CFD",
"n@	c #6158E7",
"o@	c #433D9D",
"p@	c #5951CF",
"q@	c #756BFB",
"r@	c #776EFB",
"s@	c #786FFA",
"t@	c #7970F9",
"u@	c #7970F8",
"v@	c #7970F6",
"w@	c #7970F4",
"x@	c #786FEF",
"y@	c #756DEA",
"z@	c #726AE0",
"A@	c #6A64D0",
"B@	c #49458E",
"C@	c #8072FE",
"D@	c #7468FD",
"E@	c #7065FE",
"F@	c #685EFE",
"G@	c #675CFC",
"H@	c #7369FB",
"I@	c #746AFB",
"J@	c #786FFB",
"K@	c #7870FA",
"L@	c #7A71FA",
"M@	c #7A71F9",
"N@	c #7A71F7",
"O@	c #7A72F5",
"P@	c #7A71F2",
"Q@	c #7870EC",
"R@	c #756EE5",
"S@	c #7068D9",
"T@	c #6760C5",
"U@	c #7E70FB",
"V@	c #7A6CFA",
"W@	c #756AFB",
"X@	c #7366FC",
"Y@	c #6F64FD",
"Z@	c #685EFD",
"`@	c #7970FB",
" #	c #7B72FA",
".#	c #7C73F9",
"+#	c #7C73F8",
"@#	c #7C73F7",
"##	c #7B73F4",
"$#	c #7A72EF",
"%#	c #7870EA",
"&#	c #746CE1",
"*#	c #6D65D0",
"=#	c #766AEF",
"-#	c #7469F3",
";#	c #7166F5",
">#	c #7064F9",
",#	c #6D62FA",
"'#	c #6B60FC",
")#	c #695EFB",
"!#	c #685EFA",
"~#	c #7B72FB",
"{#	c #7C73FB",
"]#	c #7D74FA",
"^#	c #7D75F9",
"/#	c #7D75F7",
"(#	c #7D75F5",
"_#	c #7D74F2",
":#	c #7B73ED",
"<#	c #7870E6",
"[#	c #726BDA",
"}#	c #7266E4",
"|#	c #7166E8",
"1#	c #6F64EC",
"2#	c #6D62EF",
"3#	c #6C61F3",
"4#	c #6960F5",
"5#	c #685EF8",
"6#	c #695FFA",
"7#	c #7B73FB",
"8#	c #7C74FB",
"9#	c #7D75FA",
"0#	c #7E75FA",
"a#	c #7F76F9",
"b#	c #7F76F7",
"c#	c #7E76F4",
"d#	c #7D76F0",
"e#	c #7B74EB",
"f#	c #7871E3",
"g#	c #6C60D9",
"h#	c #6B60DF",
"i#	c #6A5FE4",
"j#	c #695FE8",
"k#	c #685DED",
"l#	c #675DF0",
"m#	c #655BF2",
"n#	c #665CF4",
"o#	c #675DF5",
"p#	c #6D64FA",
"q#	c #7D75FB",
"r#	c #7E75FB",
"s#	c #7F77FB",
"t#	c #8078FA",
"u#	c #8178F9",
"v#	c #8179F8",
"w#	c #8178F5",
"x#	c #8078F2",
"y#	c #7E76ED",
"z#	c #6157C0",
"A#	c #6459CA",
"B#	c #6459D2",
"C#	c #645AD9",
"D#	c #645ADF",
"E#	c #645AE5",
"F#	c #635AE9",
"G#	c #6359EB",
"H#	c #645BED",
"I#	c #665CEF",
"J#	c #6A61F5",
"K#	c #6B62F8",
"L#	c #7D74FB",
"M#	c #8078FB",
"N#	c #8179FA",
"O#	c #8279FA",
"P#	c #827AF8",
"Q#	c #817AF5",
"R#	c #8179F3",
"S#	c #8078EF",
"T#	c #534BA6",
"U#	c #574FB4",
"V#	c #5A51C0",
"W#	c #5C53CA",
"X#	c #5E55D2",
"Y#	c #5E55DA",
"Z#	c #6057E3",
"`#	c #635AE6",
" $	c #645BE9",
".$	c #685FF0",
"+$	c #6B61F3",
"@$	c #6E64F8",
"#$	c #7066F9",
"$$	c #7168FA",
"%$	c #7269FA",
"&$	c #8178FB",
"*$	c #837AFA",
"=$	c #837AF7",
"-$	c #827AF6",
";$	c #827AF3",
">$	c #8179EE",
",$	c #3D367B",
"'$	c #423B89",
")$	c #4C44A4",
"!$	c #5048B1",
"~$	c #544CBE",
"{$	c #564EC8",
"]$	c #5950D0",
"^$	c #5B53D5",
"/$	c #5F57DC",
"($	c #6259E1",
"_$	c #655BE5",
":$	c #6960ED",
"<$	c #6B62F0",
"[$	c #6E64F3",
"}$	c #6F66F6",
"|$	c #7168F7",
"1$	c #746AF9",
"2$	c #756CFA",
"3$	c #8179FB",
"4$	c #8279FB",
"5$	c #837AFB",
"6$	c #837BFA",
"7$	c #857DF9",
"8$	c #847CF7",
"9$	c #847CF4",
"0$	c #837BF1",
"a$	c #2E2A63",
"b$	c #3E388A",
"c$	c #4842A4",
"d$	c #4C45B2",
"e$	c #524ABD",
"f$	c #564EC6",
"g$	c #5A52CE",
"h$	c #5D55D5",
"i$	c #6259DC",
"j$	c #645CE1",
"k$	c #675EE6",
"l$	c #6960E9",
"m$	c #6C62ED",
"n$	c #6D65F0",
"o$	c #7067F3",
"p$	c #7269F6",
"q$	c #736AF8",
"r$	c #766DF9",
"s$	c #837BFB",
"t$	c #857DFB",
"u$	c #867EF9",
"v$	c #867EF8",
"w$	c #857DF6",
"x$	c #847DF3",
"y$	c #433C9A",
"z$	c #4740A3",
"A$	c #4D46B0",
"B$	c #534BBC",
"C$	c #5850C7",
"D$	c #5C55CF",
"E$	c #6058D6",
"F$	c #645BDD",
"G$	c #665EE2",
"H$	c #6960E5",
"I$	c #6B62E9",
"J$	c #7067F0",
"K$	c #726AF3",
"L$	c #746BF5",
"M$	c #766DF8",
"N$	c #7970FA",
"O$	c #7971FA",
"P$	c #877EFA",
"Q$	c #877FF9",
"R$	c #877FF7",
"S$	c #857EF4",
"T$	c #242051",
"U$	c #443D99",
"V$	c #4F48B0",
"W$	c #544EBD",
"X$	c #5A53C8",
"Y$	c #5F57D0",
"Z$	c #635AD7",
"`$	c #655DDC",
" %	c #6961E2",
".%	c #6C63E6",
"+%	c #6E65E9",
"@%	c #7068EC",
"#%	c #736AF0",
"$%	c #756CF3",
"%%	c #786FF6",
"&%	c #7C73FA",
"*%	c #7C74FA",
"=%	c #867EFB",
"-%	c #877FF8",
";%	c #8881F8",
">%	c #8A83F6",
",%	c #2E2A66",
"'%	c #453F98",
")%	c #4A44A3",
"!%	c #524AB2",
"~%	c #5850BE",
"{%	c #5D55C8",
"]%	c #6059D0",
"^%	c #645DD6",
"/%	c #6960DD",
"(%	c #6B63E2",
"_%	c #7168EA",
":%	c #736AED",
"<%	c #786FF4",
"[%	c #7A71F6",
"}%	c #7B73F8",
"|%	c #7D74F9",
"1%	c #7F77FA",
"2%	c #827AFB",
"3%	c #867EFA",
"4%	c #8981FA",
"5%	c #8C85FA",
"6%	c #8F87F9",
"7%	c #948BF9",
"8%	c #363276",
"9%	c #3F3A89",
"0%	c #4C46A3",
"a%	c #5851BC",
"b%	c #5D56C6",
"c%	c #625BCF",
"d%	c #665FD5",
"e%	c #6A62DC",
"f%	c #6D65E2",
"g%	c #7168E5",
"h%	c #726BE9",
"i%	c #756DED",
"j%	c #786FF0",
"k%	c #7A72F3",
"l%	c #7C73F6",
"m%	c #7E75F7",
"n%	c #8078F9",
"o%	c #8179F9",
"p%	c #877FFB",
"q%	c #8880FB",
"r%	c #8F88FB",
"s%	c #9890FB",
"t%	c #A097FC",
"u%	c #A79EFC",
"v%	c #302D68",
"w%	c #3F3A86",
"x%	c #4D47A2",
"y%	c #534DAF",
"z%	c #5A54BC",
"A%	c #5F59C5",
"B%	c #645DCD",
"C%	c #6961D6",
"D%	c #6C65DC",
"E%	c #6F68E1",
"F%	c #736AE5",
"G%	c #756DE9",
"H%	c #7A72F0",
"I%	c #7D75F3",
"J%	c #7F77F6",
"K%	c #8179F7",
"L%	c #827AF9",
"M%	c #837BF9",
"N%	c #857DFA",
"O%	c #877FFA",
"P%	c #8A82FB",
"Q%	c #938CFC",
"R%	c #A49BFD",
"S%	c #AFA5FE",
"T%	c #B1A8FE",
"U%	c #262350",
"V%	c #453F8E",
"W%	c #4F49A2",
"X%	c #554FAE",
"Y%	c #5C55BB",
"Z%	c #625BC7",
"`%	c #6660CE",
" &	c #6B64D6",
".&	c #6F67DC",
"+&	c #726AE1",
"@&	c #756DE5",
"#&	c #7770E9",
"$&	c #7D75F0",
"%&	c #7F77F3",
"&&	c #8179F5",
"*&	c #837BF8",
"=&	c #8880FA",
"-&	c #8982FB",
";&	c #8D85FB",
">&	c #9990FC",
",&	c #A89EFD",
"'&	c #AFA6FE",
")&	c #4A4598",
"!&	c #504AA2",
"~&	c #5852B1",
"{&	c #5E58BC",
"]&	c #645DC7",
"^&	c #6962CF",
"/&	c #6D66D6",
"(&	c #716ADC",
"_&	c #746DE1",
":&	c #7870E5",
"<&	c #7A72E9",
"[&	c #7D75ED",
"}&	c #7F78F0",
"|&	c #847CF5",
"1&	c #8880F9",
"2&	c #8781F9",
"3&	c #8982FA",
"4&	c #9088FA",
"5&	c #9E95FC",
"6&	c #AAA0FE",
"7&	c #ABA2FE",
"8&	c #A9A1FF",
"9&	c #2D2A5B",
"0&	c #4D479A",
"a&	c #524DA3",
"b&	c #5A54B2",
"c&	c #625BBE",
"d&	c #6760C8",
"e&	c #6C64CF",
"f&	c #7069D6",
"g&	c #736CDC",
"h&	c #776FE2",
"i&	c #7A72E5",
"j&	c #7D76E9",
"k&	c #8078ED",
"l&	c #827AF0",
"m&	c #857DF4",
"n&	c #877FF6",
"o&	c #8881F7",
"p&	c #8C85F9",
"q&	c #948CFB",
"r&	c #A39BFD",
"s&	c #A9A0FE",
"t&	c #A79EFF",
"                                                                                                        ",
"                                                                                                        ",
"                                                                                                        ",
"                                                                                                        ",
"                                                                                                        ",
"                                                                                                        ",
"                                                                                                        ",
"                                                                                                        ",
"                                                                                                        ",
"                                                                                                        ",
"                                                                                                        ",
"                                                                                                        ",
"                                                                          . + @                         ",
"                                                                        # $ % & *                       ",
"                                                                    = - ; > , ' )                       ",
"                                                                  ! ~ { ] ^ / ( _ :                     ",
"                                                              < [ } | 1 2 3 4 5 6 7                     ",
"                                                            8 9 0 a b c d e f g h i j                   ",
"                                                          k l m n o p q r s t u v w x y                 ",
"                                                        z A B C D E F G H I J K h 6 L M                 ",
"                                                      N O P Q R S T U V W X Y Z `  ...+.@.              ",
"                                                    #.$.%.D &.T *.=.-.W ;.s >.,.'.).!.~.{.              ",
"                                                  ! $.n ].S ^./.=.(._.W :.<.[.}.|.1.2.3.4.5.            ",
"                                                6.$.n 7.8.9.0.a.b.c._.:.d.e.f.g.h.i.j.k.l.m.            ",
"                                              6.$.n.7.^./.o.p.q.q.r.:.d.s.t.u.v.w.x.y.z.A.B.C.          ",
"                                            6.$.D.7.^.E.F.G.H.q.r.I.:.d.s.t.J.K.L.M.N.O.P.Q.R.          ",
"                                          6.S.n 7.T.U.p.H.H.q.r.W :.d.s.V.W.X.Y.Z.`. +.+++@+#+$+        ",
"                                        ! %+n 7.T E.p.H.H.&+*+=+-+-+s.V.;+>+,+'+)+!+~+{+]+^+/+(+        ",
"                                      #._+:+<+8.[+o.}+|+1+2+3+4+5+6+V.;+7+8+9+)+2 0+a+b+c+d+e+f+g+      ",
"                                    h+i+j+o S 9.o.k+q.l+m+m+m+n+o+p+;+7+8+9+q+r+s+t+u+v+w+x+y+z+A+      ",
"                                  z B+C+D+E+^.E.k+q.q.F+n+m+n+n+G+H+7+8+,+I+J+K+L+M+N+O+P+Q+R+S+T+U+    ",
"                                  V+W+X+].8./.a.b.q.r.Y+n+m+Z+`+ @.@8+,+I+J+K++@@@#@$@%@&@*@=@-@;@>@    ",
"                                l ,@'@<+E+^.U.b.r.r.W )@n+!@~@{@7+8+,+9+J+r++@@@]@^@/@(@_@:@<@[@}@|@1@  ",
"                              2@3@a 4@7.5@V 6@r.r.W :.7@!@8@9@7+8+,+9+0@r++@@@]@^@a@b@c@d@e@f@g@h@i@j@  ",
"                              O k@l@<+S ^.m@r.r.W :.d.n@o@p@7+>+,+9+0@r++@@@]@q@a@r@s@t@u@v@w@x@y@z@A@B@",
"                            C@,@D@E@E 8.F@G@r.I.:.d.s.V.;+7+>+8+9+0@r++@H@I@q@a@r@J@K@L@M@N@O@P@Q@R@S@T@",
"                          U@V@W@X@Y@q G Z@W :.:.d.s.V.;+7+>+,+9+0@r++@H@I@q@a@r@J@`@`@ #.#+#@###$#%#&#*#",
"                          =#-#;#>#,#'#H )#!#d.s.s.V.;+7+8+9+I+J+r++@@@I@q@a@r@J@J@`@~#{#]#^#/#(#_#:#<#[#",
"                        }#|#1#2#3#4#5#s s 6#e.t.V.W.7+8+9+I+J+r++@@@I@q@a@r@J@J@`@~#7#8#9#0#a#b#c#d#e#f#",
"                        g#h#i#j#k#l#m#n#o#[.f.t.J.p#8+9+I+J+r++@@@I@q@a@r@J@J@`@~#7#{#q#r#s#t#u#v#w#x#y#",
"                      z#A#B#C#D#E#F#G#H#I#,.J#K#K.X.'+q+J+K++@@@]@q@a@r@r@J@`@~#7#{#L#r#s#M#N#O#P#Q#R#S#",
"                      T#U#V#W#X#Y#i Z#`# $)..$+$w.@$#$$$s+%$M+]@q@a@r@r@J@`@~#7#{#L#r#s#M#&$O#*$=$-$;$>$",
"                      ,$'$)$!$~${$]$^$/$($_$2.:$<$[$}$|$t+1$#@2$/@r@J@`@`@~#{#8#L#r#s#M#3$4$5$6$7$8$9$0$",
"                          a$b$c$d$e$f$g$h$i$j$k$l$m$n$o$p$q$$@r$b@s@`@`@~#7#8#L#r#s#M#3$4$5$s$t$u$v$w$x$",
"                                y$z$A$B$C$D$E$F$G$H$I$]+J$K$L$M$c@N$O$ #7#8#L#r#s#M#&$4$5$s$t$t$P$Q$R$S$",
"                                  T$U$`+V$W$X$Y$Z$`$ %.%+%@%#%$%%%u@M@&%*%9#r#s#M#&$4$5$s$t$t$=%u$-%;%>%",
"                                      ,%'%)%!%~%{%]%^%/%(%y+_%:%<@<%[%}%|%0#1%M#&$4$2%s$t$t$=%3%4%5%6%7%",
"                                          8%9%0%6+a%b%c%d%e%f%g%h%i%j%k%l%m%n%o%O#*$6$t$=%=%p%q%r%s%t%u%",
"                                              v%w%x%y%z%A%B%C%D%E%F%G%Q@H%I%J%K%L%M%N%3%=%p%O%P%Q%R%S%T%",
"                                                  U%V%W%X%Y%Z%`% &.&+&@&#&:#$&%&&&*&7$3%O%=&-&;&>&,&'&'&",
"                                                        )&!&~&{&]&^&/&(&_&:&<&[&}&;$|&v$1&2&3&4&5&6&7&8&",
"                                                          9&0&a&b&c&d&e&f&g&h&i&j&k&l&m&n&o&p&q&r&7&s&t&"};
