/* XPM */
static char * c12_xpm[] = {
"44 44 761 2",
"  	c None",
". 	c #BEB1FF",
"+ 	c #C0B4FF",
"@ 	c #C1B5FF",
"# 	c #C2B6FF",
"$ 	c #C2B7FF",
"% 	c #C3B8FF",
"& 	c #C4B9FF",
"* 	c #C6BBFF",
"= 	c #C7BCFF",
"- 	c #C9BEFF",
"; 	c #CBBFFF",
"> 	c #CCC0FF",
", 	c #CDC3FF",
"' 	c #CFC5FF",
") 	c #D1C6FF",
"! 	c #D2C8FF",
"~ 	c #D3C9FF",
"{ 	c #D5CBFF",
"] 	c #D7CDFF",
"^ 	c #D9D0FF",
"/ 	c #DAD0FF",
"( 	c #DBD1FF",
"_ 	c #B2A5FF",
": 	c #B3A5FF",
"< 	c #B2A6FF",
"[ 	c #B4A7FF",
"} 	c #B2A7FF",
"| 	c #B4A8FF",
"1 	c #B4A9FF",
"2 	c #B5A9FF",
"3 	c #B6AAFF",
"4 	c #B7ACFF",
"5 	c #B8ADFF",
"6 	c #B9AEFF",
"7 	c #BAAFFF",
"8 	c #BCB1FF",
"9 	c #BDB2FF",
"0 	c #BDB4FF",
"a 	c #C0B6FF",
"b 	c #C2B8FF",
"c 	c #C3B9FF",
"d 	c #C4BBFF",
"e 	c #C8BFFF",
"f 	c #CBC1FF",
"g 	c #CCC3FF",
"h 	c #CDC4FF",
"i 	c #D2C9FF",
"j 	c #D4CCFF",
"k 	c #D5CDFF",
"l 	c #9F94FF",
"m 	c #A195FF",
"n 	c #A397FF",
"o 	c #A599FF",
"p 	c #A79BFF",
"q 	c #A79CFF",
"r 	c #A89DFF",
"s 	c #AA9EFF",
"t 	c #AA9FFF",
"u 	c #ABA0FF",
"v 	c #ACA1FF",
"w 	c #ACA2FF",
"x 	c #ADA3FF",
"y 	c #AEA4FF",
"z 	c #B0A6FF",
"A 	c #B1A8FF",
"B 	c #B2AAFF",
"C 	c #B3AAFF",
"D 	c #B6ACFF",
"E 	c #B8AEFF",
"F 	c #B9AFFF",
"G 	c #BAB1FF",
"H 	c #BCB2FF",
"I 	c #BDB5FF",
"J 	c #C0B7FF",
"K 	c #C2B9FF",
"L 	c #C3BAFF",
"M 	c #C3BBFF",
"N 	c #C5BDFF",
"O 	c #C7BFFF",
"P 	c #C9C1FF",
"Q 	c #CAC1FF",
"R 	c #C3BCFD",
"S 	c #B6AFED",
"T 	c #A09AD1",
"U 	c #8883B0",
"V 	c #988CFE",
"W 	c #998DFF",
"X 	c #9A8EFF",
"Y 	c #998EFF",
"Z 	c #9990FF",
"` 	c #9B91FF",
" .	c #9D92FF",
"..	c #9F93FF",
"+.	c #A096FF",
"@.	c #A197FF",
"#.	c #A198FF",
"$.	c #A299FF",
"%.	c #A39BFF",
"&.	c #A59CFF",
"*.	c #A69EFF",
"=.	c #A89FFF",
"-.	c #AAA0FF",
";.	c #ABA2FF",
">.	c #AEA5FF",
",.	c #AEA6FF",
"'.	c #AFA8FF",
").	c #B1AAFF",
"!.	c #B3ACFF",
"~.	c #B5AEFF",
"{.	c #B7AFFF",
"].	c #B9B0FF",
"^.	c #BBB2FF",
"/.	c #BCB4FF",
"(.	c #BBB4FE",
"_.	c #B6AFFC",
":.	c #ACA6EB",
"<.	c #9D97D4",
"[.	c #8B86BA",
"}.	c #7975A0",
"|.	c #676387",
"1.	c #8F84FE",
"2.	c #9287FF",
"3.	c #9187FF",
"4.	c #9288FF",
"5.	c #9388FF",
"6.	c #9389FF",
"7.	c #948BFF",
"8.	c #958CFF",
"9.	c #968CFF",
"0.	c #978DFF",
"a.	c #978EFF",
"b.	c #988FFF",
"c.	c #9A90FF",
"d.	c #9B92FF",
"e.	c #9C93FF",
"f.	c #9E94FF",
"g.	c #9E96FF",
"h.	c #A098FF",
"i.	c #A49CFF",
"j.	c #A59DFF",
"k.	c #A79FFF",
"l.	c #A9A1FF",
"m.	c #ABA3FF",
"n.	c #ACA4FF",
"o.	c #ADA5FF",
"p.	c #B0A8FF",
"q.	c #B2ACFF",
"r.	c #B2ABFE",
"s.	c #ADA7F9",
"t.	c #A5A0EC",
"u.	c #9B96DA",
"v.	c #8F8AC7",
"w.	c #817DB1",
"x.	c #706C98",
"y.	c #605C80",
"z.	c #8A7FFE",
"A.	c #8C82FF",
"B.	c #8D82FF",
"C.	c #8B82FF",
"D.	c #8B83FE",
"E.	c #8D84FE",
"F.	c #8E86FE",
"G.	c #9087FE",
"H.	c #9088FE",
"I.	c #9189FE",
"J.	c #928AFE",
"K.	c #938BFE",
"L.	c #958CFE",
"M.	c #968EFE",
"N.	c #978FFE",
"O.	c #9890FE",
"P.	c #9A92FE",
"Q.	c #9B93FE",
"R.	c #9D95FE",
"S.	c #9F97FE",
"T.	c #A199FE",
"U.	c #A29BFE",
"V.	c #A8A1FF",
"W.	c #A9A3FE",
"X.	c #A8A2FD",
"Y.	c #A6A0F8",
"Z.	c #A29CEF",
"`.	c #9C96E3",
" +	c #948ED3",
".+	c #8A84C3",
"++	c #7C77AE",
"@+	c #6B6794",
"#+	c #5C597E",
"$+	c #867CFF",
"%+	c #897FFF",
"&+	c #8B80FF",
"*+	c #8980FF",
"=+	c #887FFF",
"-+	c #877EFF",
";+	c #877DFE",
">+	c #877FFE",
",+	c #8880FE",
"'+	c #8981FE",
")+	c #8A81FE",
"!+	c #8C84FE",
"~+	c #8D85FE",
"{+	c #8F88FE",
"]+	c #9089FC",
"^+	c #918AFC",
"/+	c #958DFE",
"(+	c #968FFE",
"_+	c #9790FE",
":+	c #9992FE",
"<+	c #9A93FE",
"[+	c #9C95FE",
"}+	c #9D97FE",
"|+	c #9F98FE",
"1+	c #A09AFD",
"2+	c #A29CFD",
"3+	c #A19BF9",
"4+	c #9F98F1",
"5+	c #9A94E7",
"6+	c #958FDC",
"7+	c #8D88CD",
"8+	c #817CBA",
"9+	c #726EA2",
"0+	c #615E89",
"a+	c #57547A",
"b+	c #8278FF",
"c+	c #847AFF",
"d+	c #877DFF",
"e+	c #857CFF",
"f+	c #847CFF",
"g+	c #847CFE",
"h+	c #847CFD",
"i+	c #847CFC",
"j+	c #857DFC",
"k+	c #867EFC",
"l+	c #877FFB",
"m+	c #8981FB",
"n+	c #8A82FB",
"o+	c #8B83FB",
"p+	c #8C85FB",
"q+	c #8E86FB",
"r+	c #8F87FB",
"s+	c #9089FB",
"t+	c #918AFB",
"u+	c #928BFB",
"v+	c #948DFB",
"w+	c #958EFB",
"x+	c #968FFB",
"y+	c #9790FB",
"z+	c #9992FB",
"A+	c #9B94FC",
"B+	c #9C96FC",
"C+	c #9D96FB",
"D+	c #9E98FA",
"E+	c #9D96F6",
"F+	c #9993ED",
"G+	c #948FE3",
"H+	c #8E89D7",
"I+	c #8580C7",
"J+	c #7974B3",
"K+	c #686498",
"L+	c #5B5883",
"M+	c #8077FE",
"N+	c #8178FF",
"O+	c #837AFF",
"P+	c #827AFF",
"Q+	c #827AFC",
"R+	c #837AFB",
"S+	c #847BFA",
"T+	c #857CFB",
"U+	c #867EFB",
"V+	c #8880FB",
"W+	c #8C84FB",
"X+	c #8D86FB",
"Y+	c #8E87FB",
"Z+	c #938CFB",
"`+	c #958DFB",
" @	c #9891FB",
".@	c #9A93FB",
"+@	c #9B94FB",
"@@	c #9B95F9",
"#@	c #9B96F7",
"$@	c #9892EF",
"%@	c #948EE6",
"&@	c #8E89DD",
"*@	c #8883D0",
"=@	c #7C78BE",
"-@	c #6F6BA7",
";@	c #5F5B8D",
">@	c #54517B",
",@	c #7D74FE",
"'@	c #8076FF",
")@	c #8279FF",
"!@	c #8379FF",
"~@	c #837BFE",
"{@	c #837BFB",
"]@	c #847CFB",
"^@	c #857DFB",
"/@	c #8881FB",
"(@	c #8B84FB",
"_@	c #9189FB",
":@	c #928AFB",
"<@	c #9B94FA",
"[@	c #9B95F8",
"}@	c #9A94F3",
"|@	c #9690EC",
"1@	c #918BE2",
"2@	c #8C86D8",
"3@	c #847FCA",
"4@	c #7773B5",
"5@	c #68649D",
"6@	c #585584",
"7@	c #565381",
"8@	c #7F76FE",
"9@	c #847BFF",
"0@	c #8D85FB",
"a@	c #8179E4",
"b@	c #7B75D9",
"c@	c #9993FB",
"d@	c #9A94FB",
"e@	c #9B95FA",
"f@	c #9B95F7",
"g@	c #9A93F2",
"h@	c #958FE9",
"i@	c #908ADF",
"j@	c #8A85D4",
"k@	c #817CC6",
"l@	c #746FB0",
"m@	c #636096",
"n@	c #555380",
"o@	c #857DFD",
"p@	c #857CFA",
"q@	c #867EFA",
"r@	c #7F78E2",
"s@	c #413D73",
"t@	c #2A2849",
"u@	c #7A74D3",
"v@	c #948CFB",
"w@	c #9791FB",
"x@	c #9B94F6",
"y@	c #9891EF",
"z@	c #928DE5",
"A@	c #8C87DA",
"B@	c #8580CD",
"C@	c #7B76BD",
"D@	c #6C68A4",
"E@	c #5C598A",
"F@	c #53507C",
"G@	c #837BFF",
"H@	c #867DFF",
"I@	c #857DFF",
"J@	c #8780FB",
"K@	c #8079E5",
"L@	c #08070E",
"M@	c #000000",
"N@	c #282645",
"O@	c #7A74D1",
"P@	c #9A94F4",
"Q@	c #9590EC",
"R@	c #8B85D7",
"S@	c #837EC8",
"T@	c #7773B6",
"U@	c #66629A",
"V@	c #55517F",
"W@	c #524F7B",
"X@	c #8178FE",
"Y@	c #867EFE",
"Z@	c #877FFA",
"`@	c #8880FA",
" #	c #8179E7",
".#	c #403C72",
"+#	c #050509",
"@#	c #020203",
"##	c #272542",
"$#	c #7974CE",
"%#	c #948DFA",
"&#	c #9993F3",
"*#	c #948EE8",
"=#	c #8F89DE",
"-#	c #8882D2",
";#	c #7E79C2",
">#	c #726EAD",
",#	c #5F5B8F",
"'#	c #504D79",
")#	c #7C73F6",
"!#	c #877FFF",
"~#	c #877FFC",
"{#	c #8981F8",
"]#	c #57529C",
"^#	c #1D1B34",
"/#	c #1D1C34",
"(#	c #1E1C34",
"_#	c #1E1D34",
":#	c #434072",
"<#	c #8780E2",
"[#	c #9B94F8",
"}#	c #9A94F5",
"|#	c #9791EF",
"1#	c #928CE4",
"2#	c #847FCC",
"3#	c #7975BA",
"4#	c #585586",
"5#	c #52507C",
"6#	c #8880FF",
"7#	c #8980FE",
"8#	c #8980FD",
"9#	c #9A93FA",
"0#	c #908BE2",
"a#	c #8A85D6",
"b#	c #827DC7",
"c#	c #7672B4",
"d#	c #66639B",
"e#	c #54527F",
"f#	c #8981FF",
"g#	c #8981FC",
"h#	c #8982FB",
"i#	c #8A83FB",
"j#	c #9088FB",
"k#	c #9B94F9",
"l#	c #9993F1",
"m#	c #8D88DC",
"n#	c #8781D0",
"o#	c #7D78C0",
"p#	c #706BAA",
"q#	c #5E5A8E",
"r#	c #8B81FF",
"s#	c #8B83FF",
"t#	c #8A82FE",
"u#	c #8A82FC",
"v#	c #8982FA",
"w#	c #8B83FA",
"x#	c #9691EE",
"y#	c #918BE3",
"z#	c #8A85D7",
"A#	c #827DC9",
"B#	c #68639D",
"C#	c #565382",
"D#	c #504E78",
"E#	c #8C83FF",
"F#	c #8A82FD",
"G#	c #8B84FA",
"H#	c #8F88FB",
"I#	c #9690FB",
"J#	c #9B94F7",
"K#	c #9992F2",
"L#	c #958FEB",
"M#	c #8F8AE0",
"N#	c #8883D3",
"O#	c #7F7AC3",
"P#	c #726EAF",
"Q#	c #625F95",
"R#	c #54517F",
"S#	c #867EFF",
"T#	c #8C84FF",
"U#	c #8C84FD",
"V#	c #8C84FA",
"W#	c #8D86FA",
"X#	c #9A94FA",
"Y#	c #9A95F6",
"Z#	c #9893F0",
"`#	c #948EE7",
" $	c #8E88DD",
".$	c #8782D1",
"+$	c #7E79C1",
"@$	c #706CAC",
"#$	c #5F5C91",
"$$	c #54517E",
"%$	c #867DFD",
"&$	c #8D84FD",
"*$	c #8C85FA",
"=$	c #8E86FA",
"-$	c #938BFB",
";$	c #9892FB",
">$	c #938DE6",
",$	c #8D87DB",
"'$	c #7B76BB",
")$	c #5D598B",
"!$	c #8D84FF",
"~$	c #8D85FF",
"{$	c #8E85FE",
"]$	c #8D85FC",
"^$	c #9A93F3",
"/$	c #9690EB",
"($	c #7570B2",
"_$	c #646199",
":$	c #565482",
"<$	c #8A81FF",
"[$	c #8E86FF",
"}$	c #8F86FF",
"|$	c #8F87FF",
"1$	c #8E86FD",
"2$	c #8F87FA",
"3$	c #9992F0",
"4$	c #8E88DC",
"5$	c #8681CF",
"6$	c #7B76BC",
"7$	c #6C68A5",
"8$	c #5B588B",
"9$	c #504D78",
"0$	c #8A82FF",
"a$	c #8E85FF",
"b$	c #8F87FE",
"c$	c #8F88FA",
"d$	c #8B86D8",
"e$	c #827ECA",
"f$	c #7571B4",
"g$	c #66629B",
"h$	c #514E79",
"i$	c #8981FD",
"j$	c #9188FF",
"k$	c #9189FF",
"l$	c #9089FF",
"m$	c #9089FE",
"n$	c #9994F3",
"o$	c #958FEA",
"p$	c #908AE0",
"q$	c #7470B1",
"r$	c #656199",
"s$	c #585585",
"t$	c #9289FF",
"u$	c #938BFF",
"v$	c #928AFF",
"w$	c #918AFA",
"x$	c #9B95F6",
"y$	c #938EE7",
"z$	c #6E6AA8",
"A$	c #5E5C8F",
"B$	c #555280",
"C$	c #938AFF",
"D$	c #928BFF",
"E$	c #928BFE",
"F$	c #928BFA",
"G$	c #918CE3",
"H$	c #827EC9",
"I$	c #67639C",
"J$	c #575483",
"K$	c #8B83FC",
"L$	c #938CFF",
"M$	c #938CFE",
"N$	c #9B95FB",
"O$	c #9C95FA",
"P$	c #9C95F7",
"Q$	c #8F8ADF",
"R$	c #8883D2",
"S$	c #726EAE",
"T$	c #615D92",
"U$	c #948CFF",
"V$	c #948DFF",
"W$	c #948DFE",
"X$	c #938CFC",
"Y$	c #938CFA",
"Z$	c #9C95F9",
"`$	c #9C95F6",
" %	c #9892EE",
".%	c #938DE5",
"+%	c #8D87DA",
"@%	c #8580CC",
"#%	c #7A76BB",
"$%	c #5B5788",
"%%	c #938AFE",
"&%	c #948CFE",
"*%	c #968DFF",
"=%	c #968EFF",
"-%	c #958DFD",
";%	c #958EFA",
">%	c #9C95F8",
",%	c #9B95F4",
"'%	c #9691EC",
")%	c #8B86D7",
"!%	c #7772B5",
"~%	c #575482",
"{%	c #8E86FC",
"]%	c #958EFF",
"^%	c #968FFD",
"/%	c #9C96FA",
"(%	c #9C96F7",
"_%	c #9A94F2",
":%	c #958FE8",
"<%	c #8F8ADE",
"[%	c #8884D2",
"}%	c #7F7BC2",
"|%	c #736FAF",
"1%	c #615E93",
"2%	c #817AE4",
"3%	c #9189FD",
"4%	c #978FFF",
"5%	c #978FFC",
"6%	c #968FFA",
"7%	c #9791FA",
"8%	c #9C96F8",
"9%	c #9B95F5",
"0%	c #938DE4",
"a%	c #8C87D9",
"b%	c #8480CB",
"c%	c #7975B9",
"d%	c #6C68A3",
"e%	c #948DFD",
"f%	c #9891FF",
"g%	c #9992FF",
"h%	c #9891FD",
"i%	c #9891FA",
"j%	c #9C96F9",
"k%	c #9791EB",
"l%	c #918BE0",
"m%	c #8984D3",
"n%	c #807CC4",
"o%	c #7470B0",
"p%	c #646096",
"q%	c #54517D",
"r%	c #9A93FF",
"s%	c #9B94FF",
"t%	c #9C96F6",
"u%	c #9A93F0",
"v%	c #968FE8",
"w%	c #8F89DC",
"x%	c #8782CE",
"y%	c #5E5A8D",
"z%	c #52507B",
"A%	c #5B55AD",
"B%	c #958EFE",
"C%	c #9790FF",
"D%	c #9992FA",
"E%	c #9C95FB",
"F%	c #9D96FA",
"G%	c #9D97F9",
"H%	c #9993EF",
"I%	c #948EE5",
"J%	c #8D88DA",
"K%	c #7A76BA",
"L%	c #6B67A1",
"M%	c #5B5889",
"N%	c #504D76",
"O%	c #6963C7",
"P%	c #9B93FF",
"Q%	c #9B94FE",
"R%	c #9A93FC",
"S%	c #9D96F9",
"T%	c #9D97F8",
"U%	c #9C96F3",
"V%	c #928DE2",
"W%	c #8B86D6",
"X%	c #827DC6",
"Y%	c #7671B2",
"Z%	c #666299",
"`%	c #585583",
" &	c #716AD5",
".&	c #615BB4",
"+&	c #9C94FF",
"@&	c #9D96FF",
"#&	c #9C95FF",
"$&	c #9C96FE",
"%&	c #9C95FD",
"&&	c #9D97F6",
"*&	c #9A94F0",
"=&	c #958FE6",
"-&	c #908ADE",
";&	c #7D79BE",
">&	c #5F5C8F",
",&	c #55527F",
"'&	c #CFC9DA",
")&	c #7972E3",
"!&	c #6E67CC",
"~&	c #9D96FE",
"{&	c #9C95FC",
"]&	c #9A94F9",
"^&	c #9E97F8",
"/&	c #9D96F4",
"(&	c #9892EC",
"_&	c #938DE2",
":&	c #8D88D8",
"<&	c #837FC8",
"[&	c #67649B",
"}&	c #524F7A",
"|&	c #EFE9FF",
"1&	c #7D75E7",
"2&	c #766FDA",
"3&	c #655FB8",
"4&	c #948DF9",
"5&	c #9790FD",
"6&	c #9992F6",
"7&	c #9791F1",
"8&	c #9892F2",
"9&	c #9C96F4",
"0&	c #9B95F2",
"a&	c #9690E8",
"b&	c #918BDE",
"c&	c #8A85D3",
"d&	c #7F7BC0",
"e&	c #716DAA",
"f&	c #605C8F",
"g&	c #D2CCE0",
"h&	c #EAE5FF",
"i&	c #7F77E8",
"j&	c #7973DE",
"k&	c #6F69CB",
"l&	c #413E76",
"m&	c #9A93FD",
"n&	c #9892F4",
"o&	c #948EEC",
"p&	c #938DE8",
"q&	c #9590EB",
"r&	c #9791EC",
"s&	c #9A93EF",
"t&	c #9A94EE",
"u&	c #9690E5",
"v&	c #908BDC",
"w&	c #8782CD",
"x&	c #7C78BA",
"y&	c #6B68A1",
"z&	c #5A5785",
"A&	c #4F4D75",
"B&	c #EEE7FF",
"C&	c #E7E1FF",
"D&	c #8179ED",
"E&	c #7D76E3",
"F&	c #7670D5",
"G&	c #6D67C3",
"H&	c #A69FFF",
"I&	c #A7A0FF",
"J&	c #A59EFD",
"K&	c #9E97F5",
"L&	c #9891E8",
"M&	c #978FE4",
"N&	c #9791E4",
"O&	c #9A93E8",
"P&	c #9C96E8",
"Q&	c #9E98EA",
"R&	c #9F9AEB",
"S&	c #9E98E7",
"T&	c #9994E0",
"U&	c #948FD4",
"V&	c #8883C3",
"W&	c #7975AC",
"X&	c #6B6797",
"Y&	c #EDE7FF",
"Z&	c #E9E4FF",
"`&	c #E0DBFF",
" *	c #837BEE",
".*	c #8179E8",
"+*	c #7A74DC",
"@*	c #726CCC",
"#*	c #49447F",
"$*	c #B1AAFE",
"%*	c #ADA7FC",
"&*	c #AAA3F5",
"**	c #A59FEB",
"=*	c #A59FE8",
"-*	c #A9A2EA",
";*	c #ACA5EC",
">*	c #AFA8EE",
",*	c #B1AAEF",
"'*	c #B2ACF0",
")*	c #B3ADF2",
"!*	c #B4AEF1",
"~*	c #B1ABEC",
"{*	c #ACA6E4",
"]*	c #A49ED8",
"^*	c #9792C7",
"/*	c #8D89B9",
"(*	c #ECE6FF",
"_*	c #E5DFFE",
":*	c #DCD6FD",
"                                                                                        ",
"                                                                                        ",
"                        . + @ # $ % & * = - ; > , ' ) ! ~ { ] ^ / (                     ",
"              _ : < [ [ } | 1 2 3 4 5 6 7 8 9 0 a b c d = e f g h ' i j k j k           ",
"        l m n o p q r r r s t u v w x y z A B C D E F G H I J K L M N O P Q Q R S T U   ",
"      V W X W Y Z `  . . ...l +.@.#.$.%.&.*.=.-.;.x >.,.'.).!.~.{.].^./.I (._.:.<.[.}.|.",
"        1.2.2.3.3.4.5.6.7.8.9.0.a.b.c.d.e.f.g.h.$.%.i.j.k.l.m.n.o.p.).q.r.s.t.u.v.w.x.y.",
"        z.A.B.B.A.C.C.A.D.E.E.F.G.H.I.J.K.L.M.N.O.P.Q.R.S.T.U.i.j.V.W.X.Y.Z.`. +.+++@+#+",
"        $+%+&+*+*+=+-+;+;+>+,+'+)+D.!+~+F.{+]+^+K./+(+_+:+<+[+}+|+1+2+3+4+5+6+7+8+9+0+a+",
"        b+c+d+e+e+e+f+g+h+i+j+k+l+m+n+o+p+q+r+s+t+u+v+w+x+y+z+A+B+C+D+E+F+G+H+I+J+K+L+  ",
"          M+N+O+O+O+P+Q+R+S+T+U+l+V+n+o+W+X+Y+s+t+u+Z+`+x+ @z+.@+@@@#@$@%@&@*@=@-@;@>@  ",
"          ,@'@)@!@O+O+~@{@]@^@U+l+/@n+(@p+X+r+_@:@Z+v+w+y+ @z+.@<@[@}@|@1@2@3@4@5@6@7@  ",
"          8@N+c+9@f+f+f+i+]@^@U+V+m+o+W+0@a@b@_@u+Z+v+w+y+ @c@d@e@f@g@h@i@j@k@l@m@n@    ",
"            N+9@e+e+e+e+o@p@q@l+V+m+o+W+r@s@t@u@u+v@w+x+w@z+.@<@@@x@y@z@A@B@C@D@E@F@    ",
"            M+G@f+e+H@I@o@^@q@J@/@n+o+K@s@L@M@N@O@v+w+x+ @z+d@<@[@P@Q@1@R@S@T@U@V@W@    ",
"            X@9@H@H@-+-+Y@U+Z@`@m+n+ #.#+#M@M@@###$#%#x+ @c@<@<@f@&#*#=#-#;#>#,#'#      ",
"            )#O+I@!#!#=+>+~#Z@`@m+{#]#^#/#/#(#(#_#:#<#y+z+.@<@[#}#|#1#A@2#3#D@4#5#      ",
"              P+H@!#=+6#7#8#V+m+n+o+0@q+r+s+t+Z+v+w+x+w@z+9#<@[@P@|@0#a#b#c#d#e#        ",
"              f+=+*+f#f#f#'+g#h#i#(@0@Y+j#_@:@Z+v+w+y+ @c@<@k#f@l#*#m#n#o#p#q#W@        ",
"              -+%+r#s#C.s#t#u#v#w#W+X+r+s+t+u+v@w+x+y+ @.@<@@@}#x#y#z#A#T@B#C#D#        ",
"                *+C.s#E#s#D.F#i#G#p+Y+H#s+t+u+v+w+I# @z+9#k#J#K#L#M#N#O#P#Q#R#          ",
"                S#*+s#E#T#T#U#W+V#W#r+j#_@u+Z+w+x+y+ @z+X#k#Y#Z#`# $.$+$@$#$$$          ",
"                %$*+C.T#T#T#&$W+*$=$H#s+t+-$v+w+x+y+;$.@X#@@}#|#>$,$B@'$D@)$F@          ",
"                ]@*+E#!$~$~${$]$X+Y+j#_@u+Z+v+x+y+ @z+d@k#[@^$/$1@z#k@($_$:$            ",
"                  <$T#[$}$|$F.1$q+2$s+:@-$v@`+x+y+z+.@+@@@f@3$>$4$5$6$7$8$9$            ",
"                  0$E#a$|$|$|$b$r+c$t+u+Z+v+w+y+ @z+.@<@[@P@|@1@d$e$f$g$7@h$            ",
"                  i$~$|$j$k$l$m$]+s+t+u+Z+v+w+w@;$c@d@<@f@n$o$p$a#k@q$r$s$              ",
"                    |$t$u$u$v$v$J.t+w$Z+v+w+x+ @z+.@<@@@x$Z#y$4$5$=@z$A$B$              ",
"                    F.t$C$u$u$D$E$t+F$Z+v+x+y+;$c@d@e@[@P@|@G$z#H$T@I$J$n@              ",
"                    K$b$t$u$u$L$M$u+Z+v+w+x+y+z+.@N$O$P$g@h@Q$R$O#S$T$W@                ",
"                    b$m$u$U$V$V$W$X$Y$%#x+y+ @c@+@e@Z$`$ %.%+%@%#%7$$%h$                ",
"                      %%&%*%=%=%=%-%v+;%x+y+;$d@N$O$>%,%'%1@)%S@!%5@~%                  ",
"                      {%J.V$]%]%=%^%x+x+y+ @c@+@O$/%(%_%:%<%[%}%|%1%$$                  ",
"                      2%3%U$=%4%4%N.5%6%7%z+.@N$/%8%9% %0%a%b%c%d%$%h$                  ",
"                        e%f%g%g%g%:+h%w@i%c@d@O$j%(%_%k%l%m%n%o%p%q%                    ",
"                        f%r%s%s%s%r%:+;$z+.@+@/%j%t%u%v%w%x%=@-@y%z%                    ",
"A%                      B%C%g%r%s%r%<+z+D%<@E%F%G%t%H%I%J%@%K%L%M%N%                    ",
"O%                        b.P%s%s%P%Q%R%.@<@F%S%T%U%k%V%W%X%Y%Z%`%                      ",
" &.&                      g%+&@&@&#&$&%&N$e@F%G%&&*&=&-&*@;&-@>&,&                    '&",
")&!&                      _+r%#&@&@&~&{&]&[@8%^&/&(&_&:&<&4@[&`%}&                    |&",
"1&2&3&                    4&5&s%@&~&%&6&7&8&P@9&0&a&b&c&d&e&f&N%                    g&h&",
"i&j&k&l&                    m&~&}+%&n&o&p&q&r&s&t&u&v&w&x&y&z&A&                    B&C&",
"D&E&F&G&                    H&I&J&K&L&M&N&O&P&Q&R&S&T&U&V&W&X&                    Y&Z&`&",
" *.*+*@*#*                  $*%*&***=*-*;*>*,*'*)*!*~*{*]*^*/*                    (*_*:*"};
