/* XPM */
static char * c121_xpm[] = {
"44 8 240 2",
"  	c None",
". 	c #867EF1",
"+ 	c #847EEC",
"@ 	c #817AE3",
"# 	c #7D77D8",
"$ 	c #7973CB",
"% 	c #C2B9FF",
"& 	c #BEB6FA",
"* 	c #B7AFF5",
"= 	c #B8B1F9",
"- 	c #B6AFF5",
"; 	c #B8B0F4",
"> 	c #BBB2F6",
", 	c #BCB4F8",
"' 	c #BEB7F9",
") 	c #C0B8FA",
"! 	c #C1BAFA",
"~ 	c #C3BBFA",
"{ 	c #C3BBFB",
"] 	c #C3BDFB",
"^ 	c #C5BEFA",
"/ 	c #C3BCF7",
"( 	c #C1BAF3",
"_ 	c #BCB6EC",
": 	c #BEB7EC",
"< 	c #CDC6FA",
"[ 	c #D2CBFF",
"} 	c #D2CCFF",
"| 	c #E9E3FF",
"1 	c #E8E3FF",
"2 	c #E0DBFF",
"3 	c #D9D3FF",
"4 	c #8B83F5",
"5 	c #8D85F1",
"6 	c #8F87EC",
"7 	c #9089E8",
"8 	c #928BE1",
"9 	c #9890D8",
"0 	c #BFB6FF",
"a 	c #BEB5FF",
"b 	c #BDB5FF",
"c 	c #BDB4FE",
"d 	c #BDB4FD",
"e 	c #BCB4FD",
"f 	c #BCB5FD",
"g 	c #BDB5FD",
"h 	c #BEB7FE",
"i 	c #BFB8FE",
"j 	c #C0B9FE",
"k 	c #C1BAFE",
"l 	c #C2BBFE",
"m 	c #C3BCFE",
"n 	c #C4BDFE",
"o 	c #C5BFFE",
"p 	c #C5C0FE",
"q 	c #C7C1FD",
"r 	c #C8C1FC",
"s 	c #C9C3FD",
"t 	c #CDC7FF",
"u 	c #CEC9FF",
"v 	c #D0CAFF",
"w 	c #D1CBFF",
"x 	c #D4CEFF",
"y 	c #D5CFFF",
"z 	c #D2CCF5",
"A 	c #E3DDFF",
"B 	c #DCD7FF",
"C 	c #D7D2FF",
"D 	c #9990F8",
"E 	c #9E95F7",
"F 	c #A49CF6",
"G 	c #A9A1F7",
"H 	c #ADA5F6",
"I 	c #B1A8F7",
"J 	c #B8AFFC",
"K 	c #BBB1FF",
"L 	c #B9B0FF",
"M 	c #B8AFFF",
"N 	c #B8B0FF",
"O 	c #B7B0FF",
"P 	c #B8B1FF",
"Q 	c #B9B2FF",
"R 	c #BAB2FF",
"S 	c #BBB3FF",
"T 	c #BCB4FF",
"U 	c #BCB5FF",
"V 	c #BDB6FF",
"W 	c #BEB8FF",
"X 	c #C0B9FF",
"Y 	c #C1BAFF",
"Z 	c #C2BBFF",
"` 	c #C4BDFF",
" .	c #C5BFFF",
"..	c #C6C0FF",
"+.	c #C8C1FF",
"@.	c #CBC4FF",
"#.	c #CBC5FF",
"$.	c #CCC6FF",
"%.	c #CFC9FF",
"&.	c #D8D2FE",
"*.	c #DAD4FF",
"=.	c #D8D2FF",
"-.	c #ACA3FC",
";.	c #B0A8FD",
">.	c #B2ABFC",
",.	c #B4ABFD",
"'.	c #B4ABFE",
").	c #B4AAFE",
"!.	c #B2A9FE",
"~.	c #B3ABFF",
"{.	c #B3AAFF",
"].	c #B2AAFF",
"^.	c #B0AAFF",
"/.	c #B1AAFF",
"(.	c #B4ACFF",
"_.	c #B4ADFF",
":.	c #B5AFFF",
"<.	c #B6B0FF",
"[.	c #B8B2FF",
"}.	c #BAB3FF",
"|.	c #BDB7FF",
"1.	c #BDB8FF",
"2.	c #BFB9FF",
"3.	c #C0BBFF",
"4.	c #C3BDFF",
"5.	c #C4BEFF",
"6.	c #C7C1FF",
"7.	c #CAC4FF",
"8.	c #CBC6FF",
"9.	c #CDC8FF",
"0.	c #D2CCFE",
"a.	c #D6D1FF",
"b.	c #D8D3FF",
"c.	c #B1A9FE",
"d.	c #B1A7FD",
"e.	c #B0A7FE",
"f.	c #AFA6FF",
"g.	c #AEA6FF",
"h.	c #ADA5FF",
"i.	c #ACA5FF",
"j.	c #ACA4FF",
"k.	c #ADA6FF",
"l.	c #ADA7FF",
"m.	c #AEA8FF",
"n.	c #AFA8FF",
"o.	c #B0A9FF",
"p.	c #B1ABFF",
"q.	c #B2ACFF",
"r.	c #B3ADFF",
"s.	c #B4AEFF",
"t.	c #B5B0FF",
"u.	c #B7B1FF",
"v.	c #B9B3FF",
"w.	c #BEB7FF",
"x.	c #C1BBFF",
"y.	c #C5C0FF",
"z.	c #C6C1FF",
"A.	c #C8C3FF",
"B.	c #D1CDFF",
"C.	c #D2CEFF",
"D.	c #D5D0FF",
"E.	c #ADA4FE",
"F.	c #ADA3FF",
"G.	c #ABA2FE",
"H.	c #AAA2FF",
"I.	c #A9A1FF",
"J.	c #A8A0FF",
"K.	c #A8A1FF",
"L.	c #A7A0FF",
"M.	c #A8A2FF",
"N.	c #A9A2FF",
"O.	c #AAA3FF",
"P.	c #ABA4FF",
"Q.	c #ACA6FF",
"R.	c #AFA9FF",
"S.	c #B2ABFF",
"T.	c #B8B3FF",
"U.	c #B9B4FF",
"V.	c #BBB6FF",
"W.	c #BFBAFF",
"X.	c #C1BCFF",
"Y.	c #C2BDFF",
"Z.	c #C4BFFF",
"`.	c #C9C3FF",
" +	c #CECAFF",
".+	c #D1CCFF",
"++	c #A89FFF",
"@+	c #A79FFF",
"#+	c #A69EFE",
"$+	c #A69EFF",
"%+	c #A59DFF",
"&+	c #A49CFF",
"*+	c #A39CFF",
"=+	c #A39DFF",
"-+	c #A49DFF",
";+	c #A49EFF",
">+	c #A59EFF",
",+	c #A9A3FF",
"'+	c #AAA4FF",
")+	c #ABA5FF",
"!+	c #ADA8FF",
"~+	c #AEA9FF",
"{+	c #AFAAFF",
"]+	c #B0ABFF",
"^+	c #B1ACFF",
"/+	c #B7B2FF",
"(+	c #BAB5FF",
"_+	c #BCB7FF",
":+	c #BEB9FF",
"<+	c #C7C2FF",
"[+	c #A29AFF",
"}+	c #A19AFE",
"|+	c #A199FF",
"1+	c #A098FF",
"2+	c #9F97FF",
"3+	c #9F98FF",
"4+	c #9F99FF",
"5+	c #A099FF",
"6+	c #A19AFF",
"7+	c #A29BFF",
"8+	c #A29CFE",
"9+	c #A39CFD",
"0+	c #A49EFD",
"a+	c #A59FFD",
"b+	c #A59FFC",
"c+	c #A6A0FC",
"d+	c #A7A1FC",
"e+	c #A8A2FC",
"f+	c #A9A3FC",
"g+	c #AAA4FC",
"h+	c #ABA6FC",
"i+	c #ADA7FC",
"j+	c #AEA8FC",
"k+	c #B0AAFD",
"l+	c #B0ABFD",
"m+	c #B1ACFE",
"n+	c #B3AEFE",
"o+	c #B6B1FF",
"p+	c #C2BEFF",
"q+	c #C9C5FF",
". + @ # $               % & * = - ; > , ' ) ! ~ { ] ^ / ( _ : < [ }             | 1 2 3 ",
"4 5 6 7 8 9   0 a a b 0 a a c d e f g h i j k l m n o p q r s t u v w x y y y z A 2 B C ",
"D E F G H I J K L M M N M N O N P P Q R S T U V W X Y Z `  ...+.@.#.$.%.v } x &.*.*.3 =.",
"-.;.>.,.'.).!.~.{.].].].^./.].].].~.(._.:.<.O P [.}.U |.1.2.3.4.5. .6.7.8.9.v 0.x a.a.b.",
"!.c.d.e.f.g.h.h.h.i.i.j.i.h.k.k.l.m.n.o./.p.q.r.s.t.u.[.v.U V w.X x.4.y.z.A.7.t %.B.C.D.",
"E.F.G.H.I.I.J.K.J.L.L.J.K.K.M.M.N.O.P.i.Q.l.m.R.^.S.r.s.:.u.T.U.V.1.W.X.Y.Z.6.`.8.9. +.+",
"++@+#+$+%+&+*+*+&+*+*+*+=+-+-+;+>+L.K.M.,+'+)+Q.!+~+{+]+^+r.s.<./+U.(+_+:+3.Y. .<+7.8.u ",
"&+[+}+|+1+2+3+3+3+3+4+5+6+6+7+8+9+0+a+b+c+d+e+f+g+h+i+j+k+l+m+n+:.o+/+U.V.1.:+3.p+y.<+q+"};
