/* XPM */
static char * c13_xpm[] = {
"54 52 659 2",
"  	c None",
". 	c #FFFEFF",
"+ 	c #FDFAFF",
"@ 	c #F6F1FF",
"# 	c #EFEAFF",
"$ 	c #B0AFB0",
"% 	c #FEFCFF",
"& 	c #F8F4FF",
"* 	c #F1EDFF",
"= 	c #EAE6FF",
"- 	c #E2DEFF",
"; 	c #FEF9FE",
"> 	c #F9F4FF",
", 	c #F1ECFF",
"' 	c #EBE6FF",
") 	c #E4DFFF",
"! 	c #DFDAFF",
"~ 	c #D8D4FF",
"{ 	c #D1CDFF",
"] 	c #DCD7E0",
"^ 	c #F8F3FE",
"/ 	c #F1EBFF",
"( 	c #EBE5FF",
"_ 	c #E6E1FF",
": 	c #DFDBFF",
"< 	c #DAD6FF",
"[ 	c #D5D1FF",
"} 	c #D1CDFE",
"| 	c #D0CCFE",
"1 	c #F5EEFF",
"2 	c #EDE8FE",
"3 	c #E1DCFF",
"4 	c #DDD8FF",
"5 	c #D9D4FF",
"6 	c #D4D0FF",
"7 	c #CFCCFE",
"8 	c #D0CDFE",
"9 	c #CFCCFF",
"0 	c #D9D4E1",
"a 	c #F0EAFF",
"b 	c #E7E3FE",
"c 	c #E0DBFF",
"d 	c #D6D1FF",
"e 	c #D3CEFF",
"f 	c #D0CBFF",
"g 	c #CECAFE",
"h 	c #CFCBFE",
"i 	c #D2CFFF",
"j 	c #F3EEFF",
"k 	c #E3DDFE",
"l 	c #DBD6FF",
"m 	c #D1CCFF",
"n 	c #CDC9FF",
"o 	c #CAC6FE",
"p 	c #CBC6FE",
"q 	c #CDC9FE",
"r 	c #D2CFFE",
"s 	c #D3D0FE",
"t 	c #D9D4E3",
"u 	c #EFE9FF",
"v 	c #E5DFFF",
"w 	c #DED8FE",
"x 	c #D7D2FF",
"y 	c #CCC8FF",
"z 	c #C9C4FE",
"A 	c #C6C2FE",
"B 	c #C7C3FE",
"C 	c #CAC7FE",
"D 	c #CDCAFE",
"E 	c #D3CFFE",
"F 	c #F2EBFF",
"G 	c #EAE5FF",
"H 	c #DAD5FE",
"I 	c #D3CFFF",
"J 	c #CECAFF",
"K 	c #C9C4FF",
"L 	c #C4C0FE",
"M 	c #C3C0FC",
"N 	c #C6C2FC",
"O 	c #C9C5FD",
"P 	c #CCC8FD",
"Q 	c #D1CEFD",
"R 	c #EDE8FF",
"S 	c #DCD7FF",
"T 	c #D5D1FE",
"U 	c #CFCBFF",
"V 	c #CBC6FF",
"W 	c #C6C2FF",
"X 	c #C3BFFC",
"Y 	c #C4C0FC",
"Z 	c #C5C1FC",
"` 	c #C7C3FC",
" .	c #CECBFE",
"..	c #D1CEFE",
"+.	c #D4D1FE",
"@.	c #D0CDFC",
"#.	c #E9E3FF",
"$.	c #E1DBFF",
"%.	c #D2CEFE",
"&.	c #C8C4FF",
"*.	c #C6C3FC",
"=.	c #C8C4FC",
"-.	c #C9C6FC",
";.	c #CCC9FD",
">.	c #D5D2FE",
",.	c #D3D0FD",
"'.	c #D1CEFB",
").	c #EDE7FF",
"!.	c #E4DEFF",
"~.	c #DDD7FF",
"{.	c #CAC6FF",
"].	c #C5C1FF",
"^.	c #C3BFFD",
"/.	c #C4C1FC",
"(.	c #C5C2FC",
"_.	c #CBC8FC",
":.	c #CECBFD",
"<.	c #D1CFFB",
"[.	c #CFCCF6",
"}.	c #E8E3FF",
"|.	c #E0DAFF",
"1.	c #D2CDFF",
"2.	c #CCC8FE",
"3.	c #C7C3FF",
"4.	c #C4BFFE",
"5.	c #C8C5FC",
"6.	c #CDCAFC",
"7.	c #CFCCFD",
"8.	c #D2D0FB",
"9.	c #D0CDF7",
"0.	c #CECBF3",
"a.	c #F4EDFF",
"b.	c #EFE8FF",
"c.	c #E6E0FF",
"d.	c #DED8FF",
"e.	c #D6D2FF",
"f.	c #CAC5FE",
"g.	c #C2BEFD",
"h.	c #C2BEFC",
"i.	c #C7C4FC",
"j.	c #C9C5FC",
"k.	c #CAC6FC",
"l.	c #CDC9FC",
"m.	c #CECBFC",
"n.	c #CFCCFC",
"o.	c #D1CEFC",
"p.	c #D3D0FC",
"q.	c #D3D0FA",
"r.	c #D0CEF6",
"s.	c #CECCF2",
"t.	c #E7E1FF",
"u.	c #DED9FF",
"v.	c #CBC7FF",
"w.	c #C3BFFE",
"x.	c #C4C0F9",
"y.	c #C5C1F9",
"z.	c #C7C3FA",
"A.	c #CAC7FC",
"B.	c #CCC9FC",
"C.	c #CFCCFB",
"D.	c #D0CDFB",
"E.	c #D2CFFC",
"F.	c #D3D1FB",
"G.	c #D3D1FA",
"H.	c #D2D0F7",
"I.	c #D0CDF3",
"J.	c #CDCAEE",
"K.	c #DAD5E8",
"L.	c #EAE4FF",
"M.	c #E2DCFF",
"N.	c #DBD5FF",
"O.	c #D4CFFF",
"P.	c #C5C0FE",
"Q.	c #BFBBF5",
"R.	c #9B98BE",
"S.	c #9E9CC1",
"T.	c #9E9CBF",
"U.	c #9D9BBF",
"V.	c #A19EC3",
"W.	c #9C99C0",
"X.	c #D4D1FB",
"Y.	c #D5D2FA",
"Z.	c #D3D1F7",
"`.	c #CFCDF1",
" +	c #CBC9EB",
".+	c #DDD9FF",
"++	c #D0CCFF",
"@+	c #C2BEFE",
"#+	c #C2BDFC",
"$+	c #8F8CB7",
"%+	c #33323B",
"&+	c #050505",
"*+	c #070707",
"=+	c #000000",
"-+	c #010101",
";+	c #24242D",
">+	c #CECAFC",
",+	c #D3D0FB",
"'+	c #D4D2FB",
")+	c #D5D3FB",
"!+	c #D4D3F8",
"~+	c #D2D0F4",
"{+	c #CECCEE",
"]+	c #CBC9E9",
"^+	c #D6D0E2",
"/+	c #DAD5FF",
"(+	c #C9C5FF",
"_+	c #C1BDFD",
":+	c #9592BD",
"<+	c #9A98B3",
"[+	c #3C3B45",
"}+	c #060606",
"|+	c #020202",
"1+	c #2B2B33",
"2+	c #C5C2F1",
"3+	c #D0CEFC",
"4+	c #D6D3FB",
"5+	c #D6D3F9",
"6+	c #D5D2F6",
"7+	c #D2D0F2",
"8+	c #CECCEC",
"9+	c #CBC9E7",
"0+	c #F1EAFF",
"a+	c #E9E2FF",
"b+	c #DFD9FF",
"c+	c #D7D3FF",
"d+	c #C7C2FF",
"e+	c #C1BDFC",
"f+	c #C2BFF8",
"g+	c #A2A0CC",
"h+	c #807E9E",
"i+	c #33333C",
"j+	c #2F2E36",
"k+	c #C4C2EE",
"l+	c #D6D3FC",
"m+	c #D7D5FB",
"n+	c #D7D5FA",
"o+	c #D7D5F8",
"p+	c #D5D3F5",
"q+	c #D2D0F0",
"r+	c #CDCBE9",
"s+	c #CAC8E5",
"t+	c #E8E3F6",
"u+	c #D2CEFF",
"v+	c #CEC9FF",
"w+	c #C9C3FF",
"x+	c #C3BEFE",
"y+	c #C1BCFC",
"z+	c #C2BEFB",
"A+	c #C3BFF5",
"B+	c #8583A3",
"C+	c #32313A",
"D+	c #1C1C1E",
"E+	c #303038",
"F+	c #C8C5F3",
"G+	c #D7D5FC",
"H+	c #D8D6FB",
"I+	c #D8D6F9",
"J+	c #D7D4F7",
"K+	c #D5D2F2",
"L+	c #D1CFED",
"M+	c #CCCAE6",
"N+	c #EEE8FF",
"O+	c #8C8AAA",
"P+	c #35343E",
"Q+	c #D5D2FC",
"R+	c #D7D4FC",
"S+	c #D8D5FC",
"T+	c #D9D6FB",
"U+	c #D9D7FA",
"V+	c #D9D7F8",
"W+	c #D7D5F5",
"X+	c #D5D3F1",
"Y+	c #D1CFEB",
"Z+	c #CAC8E2",
"`+	c #E8E2FF",
" @	c #D8D3FF",
".@	c #CCC7FF",
"+@	c #C0BCFC",
"@@	c #CBC7FC",
"#@	c #9997BE",
"$@	c #8987A6",
"%@	c #6B6982",
"&@	c #D3D1FC",
"*@	c #D9D7FB",
"=@	c #DAD7FA",
"-@	c #DAD8F9",
";@	c #D8D6F6",
">@	c #D7D5F2",
",@	c #D2D1EC",
"'@	c #CDCBE4",
")@	c #C7C5DC",
"!@	c #C4BFFF",
"~@	c #C1BCFD",
"{@	c #C3BFFB",
"]@	c #D4D1FC",
"^@	c #D5D3FC",
"/@	c #D6D4FC",
"(@	c #DAD8FA",
"_@	c #DBD8F9",
":@	c #D9D7F5",
"<@	c #D3D1ED",
"[@	c #CDCCE5",
"}@	c #C3C2D8",
"|@	c #C6C1FF",
"1@	c #C2BDFE",
"2@	c #C4C0FB",
"3@	c #CCC8FC",
"4@	c #D0CCFC",
"5@	c #D8D6FC",
"6@	c #D9D7F7",
"7@	c #D7D5F4",
"8@	c #D5D4F0",
"9@	c #D0CFE9",
"0@	c #C9C8E0",
"a@	c #BEBCD2",
"b@	c #B2B1C3",
"c@	c #C9C3D6",
"d@	c #DAD4FF",
"e@	c #D4D2FC",
"f@	c #D7D4FB",
"g@	c #D8D5FB",
"h@	c #D8D6F8",
"i@	c #D5D3F0",
"j@	c #CFCDE8",
"k@	c #C9C7E0",
"l@	c #C2C0D7",
"m@	c #B7B5CA",
"n@	c #ABA9BC",
"o@	c #A09FAF",
"p@	c #E1DCF1",
"q@	c #C1BDFE",
"r@	c #C4C1FB",
"s@	c #D5D2FB",
"t@	c #D6D4FA",
"u@	c #D7D5F9",
"v@	c #D6D4F7",
"w@	c #D4D2F1",
"x@	c #D0CEEB",
"y@	c #CBC9E5",
"z@	c #C5C3DD",
"A@	c #BEBCD4",
"B@	c #B7B6CC",
"C@	c #ABAABD",
"D@	c #9F9EAE",
"E@	c #9291A0",
"F@	c #ECE7FF",
"G@	c #E3DDFF",
"H@	c #C0BCFD",
"I@	c #C5C1FB",
"J@	c #D5D3F9",
"K@	c #D4D2F7",
"L@	c #D3D1F5",
"M@	c #D1CFF1",
"N@	c #CECDEC",
"O@	c #CAC8E6",
"P@	c #C4C3DF",
"Q@	c #C0BFD8",
"R@	c #BAB9D0",
"S@	c #B2B1C6",
"T@	c #AAA9BC",
"U@	c #9D9CAD",
"V@	c #91909F",
"W@	c #81808C",
"X@	c #71717B",
"Y@	c #E7E2FF",
"Z@	c #C5C2FB",
"`@	c #D2CFFB",
" #	c #D3D0F9",
".#	c #D3D0F7",
"+#	c #D2D0F5",
"@#	c #D0CEF2",
"##	c #CDCBED",
"$#	c #C9C7E7",
"%#	c #C5C3E1",
"&#	c #C0BFDA",
"*#	c #B9B8D2",
"=#	c #B3B2C9",
"-#	c #ACAAC0",
";#	c #A2A1B4",
">#	c #9998A8",
",#	c #898896",
"'#	c #7B7A86",
")#	c #6B6B74",
"!#	c #5D5D65",
"~#	c #C8C3FF",
"{#	c #C6C2FB",
"]#	c #D1CEFA",
"^#	c #D1CFF9",
"/#	c #D1CEF7",
"(#	c #D0CEF5",
"_#	c #CFCDF3",
":#	c #CCCAEE",
"<#	c #C8C6E8",
"[#	c #C4C1E1",
"}#	c #BFBCDA",
"|#	c #B9B7D3",
"1#	c #B3B1CB",
"2#	c #ABAAC1",
"3#	c #A3A2B7",
"4#	c #9A98AC",
"5#	c #8E8D9D",
"6#	c #82818F",
"7#	c #71707C",
"8#	c #64636D",
"9#	c #5B5B63",
"0#	c #57565D",
"a#	c #CBC5FF",
"b#	c #C6C0FF",
"c#	c #C1BCFE",
"d#	c #C7C3FB",
"e#	c #CDC9FB",
"f#	c #CECBFB",
"g#	c #CFCCF9",
"h#	c #CFCCF8",
"i#	c #CBC8EF",
"j#	c #C7C4E9",
"k#	c #C2C0E2",
"l#	c #BDBBDB",
"m#	c #B7B5D2",
"n#	c #B1B0CA",
"o#	c #ABA9C2",
"p#	c #A3A2B9",
"q#	c #9998AC",
"r#	c #8E8D9F",
"s#	c #828190",
"t#	c #757481",
"u#	c #686773",
"v#	c #5E5E67",
"w#	c #606069",
"x#	c #C2BEFF",
"y#	c #CCC8FB",
"z#	c #CDCAFA",
"A#	c #CECBF9",
"B#	c #CECBF8",
"C#	c #CECBF7",
"D#	c #CAC7F1",
"E#	c #C7C4EC",
"F#	c #C4C2E7",
"G#	c #C0BEE1",
"H#	c #BBBADB",
"I#	c #B5B4D3",
"J#	c #AFAECB",
"K#	c #A7A5BF",
"L#	c #9F9EB6",
"M#	c #9694AA",
"N#	c #8C8A9D",
"O#	c #7D7D8D",
"P#	c #71717F",
"Q#	c #666671",
"R#	c #5F5E69",
"S#	c #5F5F69",
"T#	c #515158",
"U#	c #CAC5FF",
"V#	c #C5C0FF",
"W#	c #C8C4FB",
"X#	c #CAC6FB",
"Y#	c #CBC7FB",
"Z#	c #CBC8FA",
"`#	c #CCC9F9",
" $	c #CCC9F8",
".$	c #CCC9F6",
"+$	c #CAC7F3",
"@$	c #C7C5EE",
"#$	c #C2BFE7",
"$$	c #BEBBE0",
"%$	c #BAB8DB",
"&$	c #B5B3D4",
"*$	c #B0ADCC",
"=$	c #A8A6C3",
"-$	c #9F9DB7",
";$	c #9392A8",
">$	c #89889C",
",$	c #7E7D8F",
"'$	c #727180",
")$	c #666572",
"!$	c #605F6B",
"~$	c #61606B",
"{$	c #4A4A52",
"]$	c #CCC7FE",
"^$	c #C6C1FD",
"/$	c #C3BEFF",
"($	c #C9C5FB",
"_$	c #CAC6FA",
":$	c #CAC7FA",
"<$	c #CAC7F8",
"[$	c #CAC6F6",
"}$	c #C5C3EE",
"|$	c #C2BFE9",
"1$	c #BDBAE2",
"2$	c #B7B4D8",
"3$	c #B2B0D2",
"4$	c #AFADCD",
"5$	c #A8A6C4",
"6$	c #9F9EB9",
"7$	c #9694AD",
"8$	c #8A889E",
"9$	c #7C7A8E",
"0$	c #717080",
"a$	c #666574",
"b$	c #5F5E6B",
"c$	c #5F5E6A",
"d$	c #52515B",
"e$	c #BFBBFB",
"f$	c #C8C4FA",
"g$	c #C8C5F9",
"h$	c #C9C6F8",
"i$	c #C8C5F6",
"j$	c #C7C4F3",
"k$	c #C3C1EE",
"l$	c #C0BDE9",
"m$	c #BCBAE3",
"n$	c #B9B6DD",
"o$	c #B3B0D5",
"p$	c #AAA8C9",
"q$	c #A4A1C1",
"r$	c #9F9CBA",
"s$	c #9694AF",
"t$	c #8B8AA1",
"u$	c #7F7D93",
"v$	c #727082",
"w$	c #646372",
"x$	c #5D5D6A",
"y$	c #5D5C69",
"z$	c #CEC8FF",
"A$	c #C4C0FD",
"B$	c #C7C3F9",
"C$	c #C7C4F9",
"D$	c #C6C3F7",
"E$	c #C5C2F4",
"F$	c #C2BFEF",
"G$	c #BEBBE9",
"H$	c #BAB8E3",
"I$	c #B7B4DC",
"J$	c #B2B0D6",
"K$	c #ADABCF",
"L$	c #A6A3C5",
"M$	c #9A98B6",
"N$	c #9290AB",
"O$	c #8B8AA3",
"P$	c #807F95",
"Q$	c #737285",
"R$	c #676676",
"S$	c #5D5D6B",
"T$	c #5A5966",
"U$	c #636270",
"V$	c #D5D0FF",
"W$	c #D2CDFE",
"X$	c #CCC7FD",
"Y$	c #C0BCF8",
"Z$	c #C2BEFA",
"`$	c #C4C0FA",
" %	c #C5C1F8",
".%	c #C5C2F6",
"+%	c #C3C0F3",
"@%	c #C0BDEE",
"#%	c #BCB9E8",
"$%	c #B8B6E2",
"%%	c #B4B1DB",
"&%	c #AFADD5",
"*%	c #AAA8CD",
"=%	c #A4A2C4",
"-%	c #9C9ABA",
";%	c #9391AE",
">%	c #85839C",
",%	c #79788E",
"'%	c #727185",
")%	c #666577",
"!%	c #5C5B6A",
"~%	c #595866",
"{%	c #4F4F5B",
"]%	c #D6D1FE",
"^%	c #D8D3FE",
"/%	c #D5D0FE",
"(%	c #BAB6F1",
"_%	c #B9B5EF",
":%	c #BFBBF7",
"<%	c #C2BEF8",
"[%	c #C3BFF8",
"}%	c #C3BFF6",
"|%	c #C2BEF3",
"1%	c #BFBBEE",
"2%	c #BBB7E8",
"3%	c #B6B4E2",
"4%	c #B3B0DC",
"5%	c #AEABD5",
"6%	c #A9A6CD",
"7%	c #A29FC4",
"8%	c #9A98BA",
"9%	c #9291AF",
"0%	c #8987A2",
"a%	c #7D7C94",
"b%	c #6C6B7F",
"c%	c #616071",
"d%	c #5F5E6E",
"e%	c #43434E",
"f%	c #D3CEFE",
"g%	c #BAB6EF",
"h%	c #ABA8DE",
"i%	c #B1ADE5",
"j%	c #BEBAF3",
"k%	c #C0BCF5",
"l%	c #C0BCF3",
"m%	c #BDBAEE",
"n%	c #BAB6E9",
"o%	c #B5B2E2",
"p%	c #B2AFDC",
"q%	c #ACAAD5",
"r%	c #A7A5CD",
"s%	c #A19FC5",
"t%	c #9A98BB",
"u%	c #918FAE",
"v%	c #8786A2",
"w%	c #7D7B95",
"x%	c #716F86",
"y%	c #676679",
"z%	c #595869",
"A%	c #565564",
"B%	c #484754",
"C%	c #BEBAF5",
"D%	c #AEAAE2",
"E%	c #A4A1D4",
"F%	c #ABA7DC",
"G%	c #B7B4EA",
"H%	c #BBB7ED",
"I%	c #B7B4E8",
"J%	c #B4B1E2",
"K%	c #B1ADDD",
"L%	c #ACA9D5",
"M%	c #A6A4CD",
"N%	c #A09EC5",
"O%	c #9997BB",
"P%	c #918FB0",
"Q%	c #8785A3",
"R%	c #7C7A95",
"S%	c #706E86",
"T%	c #656479",
"U%	c #5D5B6E",
"V%	c #575667",
"W%	c #514F5E",
"X%	c #C8C4FE",
"Y%	c #C0BCFA",
"Z%	c #B6B2ED",
"`%	c #ACA8DF",
" &	c #AEABDE",
".&	c #B2AEE1",
"+&	c #AEABDB",
"@&	c #ABA8D6",
"#&	c #A6A3CF",
"$&	c #9F9CC5",
"%&	c #9895BB",
"&&	c #908DB0",
"*&	c #8785A4",
"=&	c #7C7A97",
"-&	c #706E87",
";&	c #636277",
">&	c #5C5C6E",
",&	c #565566",
"'&	c #5A596A",
"                                                                                                            ",
"                                                                                                            ",
"                                                                                                            ",
"                                                                                                            ",
"                                                                                                            ",
"                                                                                                            ",
"                                                                                                            ",
"                                                                                                            ",
"                                                                                                            ",
"                                                                                                            ",
"                                                                                                            ",
"                            .                                                                               ",
"                          . + @ #                                                                           ",
"                        $ % & * = -                                                                         ",
"                        ; > , ' ) ! ~ {                                                                     ",
"                      ] ^ / ( _ : < [ } |                                                                   ",
"                      1 2 _ 3 4 5 6 } 7 8 7 9                                                               ",
"                    0 a b c < d e f g h | | | i                                                             ",
"                    j ' k l d m n o p q h | | r s                                                           ",
"                  t u v w x { y z A B C D 7 } E s }                                                         ",
"                  F G c H I J K L M N O P g } r s s Q                                                       ",
"                / R ) S T U V W X Y Z ` O P  ...s +.s @.                                                    ",
"                / #.$.5 %.n &.L X Y Z *.=.-.;.7 E +.>.,.'.                                                  ",
"              F ).!.~.[ h {.].^.X /.(.` =.-._.:...s +.,.<.[.                                                ",
"              a }.|.5 1.2.3.4.X Y Z N ` 5.-._.6.7.Q s ,.8.9.0.                                              ",
"            a.b.c.d.e.U f.].g.h.Y (.*.i.j.k._.l.m.n.o.,.p.q.r.s.                                            ",
"            b.t.u.x { v.A w.h.X Y x.y.y.z.A.B.6.m.C.D.E.F.G.H.I.J.                                          ",
"          K.L.M.N.O.J K P.g.h.X Q.R.S.T.U.V.W.6.m.C.'.p.X.X.Y.Z.`. +                                        ",
"          b.c..+e.++v.W @+#+X Y $+%+&+*+=+-+;+>+n.D.'.,+X.'+)+!+~+{+]+                                      ",
"        ^+( 3 /+O.J (+L _+h.X Y :+<+[+}+=+|+1+2+n.3+E.p.'+)+4+5+6+7+8+9+                                    ",
"        0+a+b+c+{ y d+@+e+h.X /.f+g+h+i+=+|+j+k+@.o.E.,+X.l+m+n+o+p+q+r+s+                                  ",
"      t+G 3 5 u+v+w+x+y+z+X Y Z *.=.A+B+C+D+E+F+@.o.E.X.'+4+G+H+I+J+K+L+M+                                  ",
"      N+c.4 d f {.]._+e+z+X Y (.` 5.-.A.O+P+1+F+o.E.p.Q+l+R+S+T+U+V+W+X+Y+Z+                                ",
"    b.`+!  @{ .@d+@++@e+z+M Z N =.j.k.@@#@$@%@@.o.E.&@Q+l+G+H+*@=@-@;@>@,@'@)@                              ",
"    ( M./+6 J K !@~@+@h.{@Y Z *.=.j.A._.B.6.n.@.E.p.]@^@/@S+H+*@(@_@:@>@<@[@}@                              ",
"  N+_ 4 x { V |@1@+@e+h.2@Z N ` 5.-.@@3@6.m.4@o.E.p.]@l+G+5@T+U+V+6@7@8@9@0@a@b@                            ",
"c@' M.d@O.J K 4.~@+@e+X 2@Z N i.j.A._.B.6.m.@.o.E.&@e@4+f@g@I+h@;@7@i@j@k@l@m@n@o@                          ",
"p@_ 4 e.m V ].q@+@+@h.M r@(.` =.k.@@3@l.m.n.o.E.p.]@s@4+t@u@v@p+w@x@y@z@A@B@C@D@E@                          ",
"F@G@N.O.J w+w.H@+@e+h.Y I@N ` 5.k._.B.6.m.n.o.E.,+'+Y.J@K@L@M@N@O@P@Q@R@S@T@U@V@W@X@                        ",
"Y@d.x m V |@q@+@e+h.X Y Z@*.=.j.A._.B.m.n.D.'.`@q. #.#+#@###$#%#&#*#=#-#;#>#,#'#)#!#                        ",
"$.5 e n ~#x+H@+@e+h.X Z {#i.5.-.@@B.6.m.n.D.]#^#/#(#_#:#<#[#}#|#1#2#3#4#5#6#7#8#9#0#                        ",
"~.d f a#b#c#+@e+h.X Y Z d#=.j.k._.e#f#f#C.g#h#[.0.i#j#k#l#m#n#o#p#q#r#s#t#u#v#9#w#                          ",
" @u+y d+x#H@+@e+h.X Y N d#5.-.A.y#e#z#A#B#C#D#E#F#G#H#I#J#K#L#M#N#O#P#Q#R#S#T#                              ",
"d U U#V#c#+@e+h.X Y Z ` W#j.X#Y#Z#`# $.$+$@$#$$$%$&$*$=$-$;$>$,$'$)$!$~${$                                  ",
"e ]$^$/$H@+@e+h.X Z N ` W#($_$:$<$[$F+}$|$1$2$3$4$5$6$7$8$9$0$a$b$c$d$                                      ",
"m V |@q@e$e$h.X Y Z N d#f$g$h$i$j$k$l$m$n$o$p$q$r$s$t$u$v$w$x$y$                                            ",
"e z$~#A$#+e+z+Y Z I@{#B$C$D$E$F$G$H$I$J$K$L$M$N$O$P$Q$R$S$T$U$                                              ",
" @V$W$X$Y Y$Z$2@`$y. %.%+%@%#%$%%%&%*%=%-%;%>%,%'%)%!%~%{%                                                  ",
"]%^%/%($(%_%:%<%[%}%|%1%2%3%4%5%6%7%8%9%0%a%b%c%d%!%e%                                                      ",
"u+f%@@g%h%i%j%k%l%m%n%o%p%q%r%s%t%u%v%w%x%y%z%A%B%                                                          ",
"J o C%D%E%F%G%H%I%J%K%L%M%N%O%P%Q%R%S%T%U%V%W%                                                              ",
"X%Y%Z%`%E%E% &.&+&@&#&$&%&&&*&=&-&;&>&,&'&                                                                  "};
