/* XPM */
static char * c21_xpm[] = {
"42 15 200 2",
"  	c None",
". 	c #38346E",
"+ 	c #48428B",
"@ 	c #544EA3",
"# 	c #5C56B0",
"$ 	c #625CBC",
"% 	c #6861C6",
"& 	c #6D67CF",
"* 	c #716AD6",
"= 	c #766FDC",
"- 	c #7972E1",
"; 	c #7C75E5",
"> 	c #38346D",
", 	c #444083",
"' 	c #5550A2",
") 	c #5D57AF",
"! 	c #645EBC",
"~ 	c #6A64C6",
"{ 	c #6F69CE",
"] 	c #746DD5",
"^ 	c #7871DC",
"/ 	c #2D2A56",
"( 	c #4A458A",
"_ 	c #5752A3",
": 	c #5F59B0",
"< 	c #6660BC",
"[ 	c #6C66C6",
"} 	c #716BCE",
"| 	c #A294FE",
"1 	c #9F93FE",
"2 	c #9A8EFE",
"3 	c #978BFF",
"4 	c #534E99",
"5 	c #5954A3",
"6 	c #615BB0",
"7 	c #6862BC",
"8 	c #A093FE",
"9 	c #9D91FE",
"0 	c #988DFE",
"a 	c #9589FF",
"b 	c #9186FF",
"c 	c #9287FF",
"d 	c #8F85FF",
"e 	c #2D2B52",
"f 	c #544F98",
"g 	c #5A56A3",
"h 	c #9C90FE",
"i 	c #998DFE",
"j 	c #958AFE",
"k 	c #9085FF",
"l 	c #9086FF",
"m 	c #8E84FF",
"n 	c #8D83FF",
"o 	c #8279EC",
"p 	c #393666",
"q 	c #998FFE",
"r 	c #968BFE",
"s 	c #9388FE",
"t 	c #8E83FF",
"u 	c #8D82FF",
"v 	c #8C82FF",
"w 	c #8B81FF",
"x 	c #8D83FE",
"y 	c #9288FF",
"z 	c #978CFE",
"A 	c #9086FE",
"B 	c #8C81FF",
"C 	c #897FFF",
"D 	c #8C82FE",
"E 	c #8E85FF",
"F 	c #9289FF",
"G 	c #9389FF",
"H 	c #9C91FE",
"I 	c #958BFE",
"J 	c #8E83FE",
"K 	c #887FFF",
"L 	c #877FFF",
"M 	c #8A80FF",
"N 	c #8B81FE",
"O 	c #8C83FF",
"P 	c #9188FF",
"Q 	c #968CFF",
"R 	c #998EFF",
"S 	c #988EFF",
"T 	c #978EFF",
"U 	c #8980FF",
"V 	c #887EFF",
"W 	c #877DFF",
"X 	c #867DFF",
"Y 	c #867EFF",
"Z 	c #897FFE",
"` 	c #8A81FF",
" .	c #948AFF",
"..	c #978CFF",
"+.	c #968DFF",
"@.	c #998FFF",
"#.	c #9B92FF",
"$.	c #9F95FC",
"%.	c #9D92FE",
"&.	c #968CFE",
"*.	c #9087FE",
"=.	c #887FFE",
"-.	c #867DFE",
";.	c #857CFF",
">.	c #847BFF",
",.	c #877EFF",
"'.	c #8880FF",
").	c #8C84FF",
"!.	c #958BFF",
"~.	c #948BFF",
"{.	c #988FFF",
"].	c #9B91FF",
"^.	c #9E95FF",
"/.	c #9F95FF",
"(.	c #968DF2",
"_.	c #867FDA",
":.	c #A599FF",
"<.	c #9F94FE",
"[.	c #9187FE",
"}.	c #877DFE",
"|.	c #847BFE",
"1.	c #827AFE",
"2.	c #857CFE",
"3.	c #867EFE",
"4.	c #8B82FF",
"5.	c #9087FF",
"6.	c #938AFF",
"7.	c #958CFF",
"8.	c #9990FF",
"9.	c #9C93FF",
"0.	c #9D95FF",
"a.	c #9D94FF",
"b.	c #A097FF",
"c.	c #A49BFF",
"d.	c #A499FF",
"e.	c #9E93FE",
"f.	c #968DFE",
"g.	c #9188FE",
"h.	c #8B82FE",
"i.	c #837BFE",
"j.	c #827AFC",
"k.	c #8279FB",
"l.	c #837AFC",
"m.	c #847BFD",
"n.	c #857DFD",
"o.	c #8981FF",
"p.	c #8B83FF",
"q.	c #8E86FF",
"r.	c #9088FF",
"s.	c #948CFF",
"t.	c #9A91FF",
"u.	c #9B93FF",
"v.	c #9C94FF",
"w.	c #9F96FF",
"x.	c #A199FF",
"y.	c #A299FF",
"z.	c #A79EFF",
"A.	c #978DFE",
"B.	c #9288FE",
"C.	c #887EFE",
"D.	c #837BFC",
"E.	c #837AFB",
"F.	c #837BFB",
"G.	c #847BFB",
"H.	c #847CFB",
"I.	c #857DFC",
"J.	c #877FFD",
"K.	c #8880FD",
"L.	c #8981FE",
"M.	c #8D85FF",
"N.	c #8F86FF",
"O.	c #9189FF",
"P.	c #978FFF",
"Q.	c #9991FF",
"R.	c #A098FF",
"S.	c #A29AFF",
"T.	c #A69EFF",
"U.	c #A9A0FF",
"V.	c #A8A0FF",
"W.	c #A59AFF",
"X.	c #9F96FE",
"Y.	c #9389FE",
"Z.	c #8C83FE",
"`.	c #847CFC",
" +	c #857DFB",
".+	c #857DFA",
"++	c #867DFB",
"@+	c #867EFB",
"#+	c #877FFB",
"$+	c #8880FC",
"%+	c #8A82FD",
"&+	c #8F87FF",
"*+	c #958DFF",
"=+	c #9890FF",
"-+	c #9E96FF",
";+	c #A099FF",
">+	c #A39CFF",
",+	c #A79FFF",
"'+	c #AAA2FF",
")+	c #ADA5FF",
"                                                              . + @ # $ % & * = - ; ",
"                                                                  > , ' ) ! ~ { ] ^ ",
"                                                                      / ( _ : < [ } ",
"          | 1 2 3                                                           4 5 6 7 ",
"          8 9 0 a b c d                                                       e f g ",
"          h i j c k l m n n o                                                     p ",
"        9 q r s l t u v w v x d y                                                   ",
"        9 z s A m B w C C w D E l y F G                                             ",
"        H I A J w C K L K M N O d l P G Q R S T                                     ",
"        H I A D U V W X Y K Z ` n E l P  ...+.T @.#.$.                              ",
"        %.&.*.N =.-.;.>.;.,.=.'.v ).E l F !.~.+.{.].^./.(._.                        ",
"      :.<.0 [.N }.|.1.1.|.2.3.K U 4.).E 5.6.6.7.+.8.#.9.0.a.b.c.                    ",
"      d.e.f.g.h.3.i.j.k.l.m.n.3.=.o.p.).q.r.P 6.s.T 8.t.u.v.w.x.y.c.z.              ",
"      d.e.A.B.D C.2.D.E.F.G.H.I.J.K.L.4.M.N.N.O.6.7.P.{.Q.#.0.b.R.S.T.U.U.V.        ",
"      W.X.q Y.Z.Z -.`.G.H. +.+++@+#+$+%+Z.M.E &+O.6.*+T =+t.u.^.-+;+>+T.,+,+V.'+)+  "};
