/* XPM */
static char * c22_xpm[] = {
"10 15 112 2",
"  	c None",
". 	c #7F78E9",
"+ 	c #837BED",
"@ 	c #847DF0",
"# 	c #877FF3",
"$ 	c #8E86F7",
"% 	c #9891FA",
"& 	c #A89FFD",
"* 	c #ABA2FE",
"= 	c #A89FFF",
"- 	c #A49CFF",
"; 	c #7B74E0",
"> 	c #7F77E5",
", 	c #8179E8",
"' 	c #867EED",
") 	c #8E87F4",
"! 	c #9D95F9",
"~ 	c #AAA2FD",
"{ 	c #A39CFF",
"] 	c #766FD5",
"^ 	c #7B74DC",
"/ 	c #7E76E1",
"( 	c #847DE7",
"_ 	c #9088F1",
": 	c #A098F9",
"< 	c #ACA2FD",
"[ 	c #AAA1FE",
"} 	c #A79FFF",
"| 	c #A39BFF",
"1 	c #6E68C6",
"2 	c #746ECF",
"3 	c #7972D7",
"4 	c #817BE1",
"5 	c #918AED",
"6 	c #A59CF8",
"7 	c #ADA3FE",
"8 	c #AAA2FF",
"9 	c #A69EFF",
"0 	c #A29AFF",
"a 	c #635EB1",
"b 	c #6B65BE",
"c 	c #736CC9",
"d 	c #7E79D7",
"e 	c #948DEB",
"f 	c #A79FF8",
"g 	c #ADA4FE",
"h 	c #504C8F",
"i 	c #5C57A2",
"j 	c #6762B4",
"k 	c #7A75CB",
"l 	c #968EE8",
"m 	c #A9A1F9",
"n 	c #ABA3FE",
"o 	c #A9A0FF",
"p 	c #A59CFF",
"q 	c #A199FF",
"r 	c #413E73",
"s 	c #534F8E",
"t 	c #7670BE",
"u 	c #9890E5",
"v 	c #ACA4FA",
"w 	c #ACA3FE",
"x 	c #A8A0FF",
"y 	c #A59DFF",
"z 	c #6F68A5",
"A 	c #9B94E3",
"B 	c #ADA5FB",
"C 	c #ADA4FF",
"D 	c #A7A0FF",
"E 	c #A49DFF",
"F 	c #A19BFF",
"G 	c #A8A1F2",
"H 	c #AEA6FC",
"I 	c #ABA3FF",
"J 	c #A19AFF",
"K 	c #B3AAFF",
"L 	c #B0A9FF",
"M 	c #ACA4FF",
"N 	c #A8A1FF",
"O 	c #A59EFF",
"P 	c #B1AAFD",
"Q 	c #AEA6FD",
"R 	c #A69FFD",
"S 	c #A39CFD",
"T 	c #A098FD",
"U 	c #ABA3F2",
"V 	c #A7A0F3",
"W 	c #A49DF4",
"X 	c #A19AF3",
"Y 	c #9D96F2",
"Z 	c #9A93F2",
"` 	c #9B94D6",
" .	c #9D96DC",
"..	c #9B94DF",
"+.	c #9892DF",
"@.	c #958FDF",
"#.	c #928CDF",
"$.	c #8F8ADF",
"%.	c #8C86BD",
"&.	c #908BC5",
"*.	c #918BC8",
"=.	c #8E89C8",
"-.	c #8C88C8",
";.	c #8B85C8",
">.	c #8884C8",
",.	c #8985AF",
"'.	c #928EB8",
").	c #9793BD",
"!.	c #9793BE",
"~.	c #9693BF",
"{.	c #9591BF",
"].	c #9390BF",
". + @ # $ % & * = - ",
"; > , ' ) ! ~ * = { ",
"] ^ / ( _ : < [ } | ",
"1 2 3 4 5 6 7 8 9 0 ",
"a b c d e f g 8 9 0 ",
"h i j k l m n o p q ",
"  r s t u v w x y 0 ",
"      z A B C D E F ",
"        G H I } y J ",
"        K L M N O J ",
"        P Q ~ R S T ",
"        U V W X Y Z ",
"      `  ...+.@.#.$.",
"      %.&.*.=.-.;.>.",
"      ,.'.).!.~.{.]."};
