/* XPM */
static char * c23_xpm[] = {
"44 15 364 2",
"  	c None",
". 	c #A099FF",
"+ 	c #9E97FF",
"@ 	c #9D95FE",
"# 	c #9C94FF",
"$ 	c #9B94FF",
"% 	c #9C95FE",
"& 	c #9D96FD",
"* 	c #9E97FD",
"= 	c #9F98FC",
"- 	c #9F99FC",
"; 	c #A09AFC",
"> 	c #A19BFC",
", 	c #A29CFC",
"' 	c #A39DFC",
") 	c #A59EFC",
"! 	c #A59FFC",
"~ 	c #938DDF",
"{ 	c #514E7A",
"] 	c #9691E2",
"^ 	c #AAA4FC",
"/ 	c #ABA5FC",
"( 	c #ACA6FC",
"_ 	c #ACA7FC",
": 	c #ADA8FC",
"< 	c #AFAAFC",
"[ 	c #B0ABFD",
"} 	c #B1ACFD",
"| 	c #B2ADFD",
"1 	c #B3AEFD",
"2 	c #B4AFFD",
"3 	c #B6B1FD",
"4 	c #B7B3FD",
"5 	c #B8B4FD",
"6 	c #BAB6FE",
"7 	c #BBB7FE",
"8 	c #BDB9FE",
"9 	c #BFBBFE",
"0 	c #C1BDFF",
"a 	c #C3BFFF",
"b 	c #C3BFFE",
"c 	c #A098FF",
"d 	c #9991FE",
"e 	c #9992FE",
"f 	c #9A93FE",
"g 	c #9A93FC",
"h 	c #9B94FC",
"i 	c #9C95FC",
"j 	c #9D96FC",
"k 	c #9E98FC",
"l 	c #A29BFC",
"m 	c #A39CFC",
"n 	c #A49EFC",
"o 	c #A6A0FC",
"p 	c #8A85D0",
"q 	c #232235",
"r 	c #8E8AD4",
"s 	c #AAA5FC",
"t 	c #ABA6FC",
"u 	c #AFA9FC",
"v 	c #B0AAFC",
"w 	c #B1ABFD",
"x 	c #B2ACFD",
"y 	c #B5B0FD",
"z 	c #B7B2FD",
"A 	c #B8B3FD",
"B 	c #B9B4FD",
"C 	c #BAB6FD",
"D 	c #BCB8FD",
"E 	c #BEB9FD",
"F 	c #C0BCFE",
"G 	c #BFBBFC",
"H 	c #9F97FF",
"I 	c #9C95FF",
"J 	c #9992FD",
"K 	c #9992FC",
"L 	c #A19AFC",
"M 	c #A7A1FC",
"N 	c #8B86D0",
"O 	c #8F8AD4",
"P 	c #ADA7FC",
"Q 	c #AEA9FC",
"R 	c #B5B1FD",
"S 	c #BAB5FD",
"T 	c #BBB6FD",
"U 	c #BDB9FD",
"V 	c #BEBAFC",
"W 	c #BFBAFC",
"X 	c #BFBBFA",
"Y 	c #9E97FC",
"Z 	c #A099FC",
"` 	c #A7A2FC",
" .	c #242235",
"..	c #908BD4",
"+.	c #B0ABFC",
"@.	c #BCB7FD",
"#.	c #BDB8FD",
"$.	c #C0BCFB",
"%.	c #9B94FE",
"&.	c #9A93FD",
"*.	c #9B95FC",
"=.	c #9C96FC",
"-.	c #5B578A",
";.	c #2C2A43",
">.	c #2D2B43",
",.	c #252437",
"'.	c #0A090E",
").	c #262538",
"!.	c #2D2C43",
"~.	c #2E2C43",
"{.	c #434060",
"].	c #908BCE",
"^.	c #B3ADFD",
"/.	c #B9B5FD",
"(.	c #BBB7FD",
"_.	c #BFBBFD",
":.	c #C0BCFD",
"<.	c #C0BCFC",
"[.	c #C0BCFA",
"}.	c #9C94FE",
"|.	c #7F7BC0",
"1.	c #68649B",
"2.	c #565480",
"3.	c #161621",
"4.	c #595783",
"5.	c #6B679B",
"6.	c #6B689B",
"7.	c #7673AA",
"8.	c #9F9AE5",
"9.	c #BFBAFD",
"0.	c #C0BBFD",
"a.	c #C1BDFC",
"b.	c #C1BDFA",
"c.	c #A8A2FC",
"d.	c #A9A4FC",
"e.	c #8D88D0",
"f.	c #242335",
"g.	c #918DD4",
"h.	c #BEBAFD",
"i.	c #C1BDFD",
"j.	c #C2BEFC",
"k.	c #C2BFFC",
"l.	c #9D96FE",
"m.	c #A9A3FC",
"n.	c #8E89D0",
"o.	c #928ED4",
"p.	c #C2BEFD",
"q.	c #C3BFFD",
"r.	c #C3C0FC",
"s.	c #9C95FB",
"t.	c #8F8BD0",
"u.	c #938ED4",
"v.	c #C1BCFD",
"w.	c #C4C0FD",
"x.	c #C4C0FC",
"y.	c #9F98FF",
"z.	c #9C96FB",
"A.	c #A59FEF",
"B.	c #8580BF",
"C.	c #A6A2F0",
"D.	c #C4C1FD",
"E.	c #C5C1FC",
"F.	c #9E96FD",
"G.	c #9C95F9",
"H.	c #9D96FA",
"I.	c #9D97FA",
"J.	c #9E98FA",
"K.	c #9F99FA",
"L.	c #A09AFA",
"M.	c #A19BFA",
"N.	c #A29CFA",
"O.	c #A39DFA",
"P.	c #A49EFA",
"Q.	c #A59FFA",
"R.	c #A6A0FA",
"S.	c #A7A1FA",
"T.	c #A8A2FA",
"U.	c #A8A3FA",
"V.	c #A9A4FA",
"W.	c #ABA5FA",
"X.	c #ACA6FA",
"Y.	c #ACA7FA",
"Z.	c #ADA8FA",
"`.	c #AEA9FB",
" +	c #B0ABFB",
".+	c #B1ACFB",
"++	c #B2ADFB",
"@+	c #B3AEFB",
"#+	c #B4B0FB",
"$+	c #B6B1FB",
"%+	c #B7B2FB",
"&+	c #B8B3FB",
"*+	c #B8B4FB",
"=+	c #B9B5FB",
"-+	c #BBB7FB",
";+	c #BCB8FB",
">+	c #BDB9FB",
",+	c #BEBAFB",
"'+	c #BFBAFB",
")+	c #C1BDFB",
"!+	c #C2BEFB",
"~+	c #C3BFFB",
"{+	c #C3C0FA",
"]+	c #9892F2",
"^+	c #9791EF",
"/+	c #9790EE",
"(+	c #9891EF",
"_+	c #9892EF",
":+	c #9993EF",
"<+	c #9A94EF",
"[+	c #9B95EF",
"}+	c #9C96EF",
"|+	c #9D97EF",
"1+	c #9E98EF",
"2+	c #9F99EF",
"3+	c #A09AEF",
"4+	c #A19BEF",
"5+	c #A19CEF",
"6+	c #A19DEF",
"7+	c #A29EEF",
"8+	c #A49FEF",
"9+	c #A5A0EF",
"0+	c #A6A1EF",
"a+	c #A7A2F0",
"b+	c #A9A3F0",
"c+	c #AAA5F0",
"d+	c #ABA5F0",
"e+	c #ABA6F0",
"f+	c #ACA7F0",
"g+	c #ADA8F0",
"h+	c #AFAAF0",
"i+	c #B0ABF0",
"j+	c #B0ACF0",
"k+	c #B1ADF0",
"l+	c #B2AEF0",
"m+	c #B4AFF0",
"n+	c #B4B0F0",
"o+	c #B5B1F0",
"p+	c #B6B2F0",
"q+	c #B6B3F0",
"r+	c #B8B4F0",
"s+	c #B9B5F0",
"t+	c #BAB6F0",
"u+	c #BBB7F0",
"v+	c #BCB8F0",
"w+	c #BDB9F0",
"x+	c #8E89DE",
"y+	c #8D88DC",
"z+	c #8E88DB",
"A+	c #8E89DC",
"B+	c #8F89DC",
"C+	c #908ADC",
"D+	c #908BDC",
"E+	c #918CDC",
"F+	c #928DDC",
"G+	c #938EDC",
"H+	c #948FDC",
"I+	c #9590DC",
"J+	c #9691DC",
"K+	c #9692DC",
"L+	c #9793DC",
"M+	c #9994DC",
"N+	c #9A95DC",
"O+	c #9A96DC",
"P+	c #9B97DD",
"Q+	c #9C98DD",
"R+	c #9D99DD",
"S+	c #9E9ADD",
"T+	c #9F9ADD",
"U+	c #A09BDD",
"V+	c #A09CDD",
"W+	c #A19EDD",
"X+	c #A29FDD",
"Y+	c #A3A0DD",
"Z+	c #A4A0DD",
"`+	c #A5A0DD",
" @	c #A6A2DD",
".@	c #A6A3DD",
"+@	c #A7A4DD",
"@@	c #A8A5DD",
"#@	c #A9A6DD",
"$@	c #ABA7DD",
"%@	c #ACA8DD",
"&@	c #ACA9DD",
"*@	c #ADAADD",
"=@	c #AEABDD",
"-@	c #AEACDD",
";@	c #B0ACDD",
">@	c #8682C7",
",@	c #8682C6",
"'@	c #8782C5",
")@	c #8783C6",
"!@	c #8884C6",
"~@	c #8985C6",
"{@	c #8A86C6",
"]@	c #8B86C6",
"^@	c #8B87C6",
"/@	c #8C88C6",
"(@	c #8D88C6",
"_@	c #8D89C6",
":@	c #8D8AC6",
"<@	c #8E8BC6",
"[@	c #8F8BC6",
"}@	c #8F8CC6",
"|@	c #908DC6",
"1@	c #918DC6",
"2@	c #918EC7",
"3@	c #928FC7",
"4@	c #938FC7",
"5@	c #9490C7",
"6@	c #9491C7",
"7@	c #9591C7",
"8@	c #9692C7",
"9@	c #9693C7",
"0@	c #9794C7",
"a@	c #9894C7",
"b@	c #9895C7",
"c@	c #9996C7",
"d@	c #9A97C7",
"e@	c #9A98C7",
"f@	c #9B98C7",
"g@	c #9C99C7",
"h@	c #9C9AC7",
"i@	c #9D9AC7",
"j@	c #9E9BC7",
"k@	c #9F9CC7",
"l@	c #A09DC7",
"m@	c #A19EC7",
"n@	c #A29FC7",
"o@	c #A2A0C7",
"p@	c #928FBE",
"q@	c #928FBD",
"r@	c #9390BD",
"s@	c #9491BD",
"t@	c #9592BD",
"u@	c #9693BD",
"v@	c #9694BD",
"w@	c #9794BD",
"x@	c #9795BD",
"y@	c #9895BD",
"z@	c #9896BD",
"A@	c #9997BD",
"B@	c #9997BE",
"C@	c #9A98BE",
"D@	c #9B98BE",
"E@	c #9B99BE",
"F@	c #9C99BE",
"G@	c #9C9ABE",
"H@	c #9D9ABE",
"I@	c #9D9BBE",
"J@	c #9E9BBE",
"K@	c #9E9CBE",
"L@	c #9F9CBE",
"M@	c #9F9DBE",
"N@	c #A09EBE",
"O@	c #A19FBE",
"P@	c #A1A0BE",
"Q@	c #A2A0BE",
"R@	c #A2A1BE",
"S@	c #A3A1BE",
"T@	c #A4A2BE",
"U@	c #A4A3BE",
"V@	c #A5A3BE",
"W@	c #A5A4BE",
". + @ # $ $ % % % & & * = - ; > , ' ) ! ~ { ] ^ / ( _ : < [ } | 1 2 3 4 5 6 7 8 9 0 a b ",
"c # d e e f g h h i j k - ; > l m n ! o p q r s t _ : u v w x | 1 y 3 z A B C D E 9 F G ",
"H I e J K K g h i j k = ; L l , n ! o M N q O / ( P Q < [ } | 1 y R z A B S T D U V W X ",
"+ $ f K K g h i j Y = Z L > ' n ! o M ` N  ...( P Q < +.} | 1 2 y 3 4 5 S T @.#.E W G $.",
"+ %.&.K g h *.=.Y = - ; > ' n n ! -.;.>.,.'.).!.~.{.].[ | ^.2 y 3 z A /.C (.D U _.:.<.[.",
"+ }.g g h i =.Y = - ; > m ' n ! o |.1.1.2.3.4.5.6.7.8.} | 2 y 3 z 4 /.C T @.#.9.0.:.a.b.",
"+ % h h i =.Y = Z ; > m ' n ! o M c.d.s e.f.g.Q < [ } | 2 y R 3 z B S T @.#.h._.:.i.j.k.",
"+ l.*.i =.Y = Z ; > , ' n ! o M c.m.^ / n.f.o.< [ } | 1 2 y 3 z 5 /.T (.D E 9.:.i.p.q.r.",
"+ & s.=.Y = - ; > , ' n ! o M c.m.^ / ( t.f.u.[ w | 1 2 y 3 z 5 B S (.D U h._.v.i.p.w.x.",
"y.& z.Y = - ; > , ' n ! o M c.m.^ / ( P A.B.C.w | 1 2 y 3 z A B S T @.U h._.:.i.p.w.D.E.",
"F.s.G.H.I.J.K.L.M.N.O.P.Q.R.S.T.U.V.W.X.Y.Z.`. +.+++++@+#+$+%+&+*+=+-+;+>+,+'+$.)+!+~+{+",
"]+^+/+(+_+:+<+[+}+|+1+2+3+4+5+6+7+8+9+0+0+a+b+c+d+e+f+g+h+i+j+k+l+m+n+o+p+q+r+s+t+u+v+w+",
"x+y+z+A+B+C+D+E+F+G+H+H+I+J+K+L+M+M+N+O+P+Q+R+S+T+U+V+W+X+Y+Z+`+ @.@+@@@#@$@%@&@*@=@-@;@",
">@,@'@)@!@!@~@{@]@^@/@(@_@:@<@[@}@|@1@2@3@4@5@6@7@8@9@0@a@b@c@d@e@f@g@h@i@j@k@k@l@m@n@o@",
"p@q@q@r@r@s@s@t@t@u@u@v@w@x@y@z@z@A@B@C@C@D@E@F@G@H@I@J@K@L@M@N@N@O@O@P@Q@R@S@S@T@U@V@W@"};
