/* XPM */
static char * c24_xpm[] = {
"12 15 141 2",
"  	c None",
". 	c #C0BCFB",
"+ 	c #B9B6F1",
"@ 	c #B4B0EA",
"# 	c #AEABE1",
"$ 	c #A6A3D5",
"% 	c #A19FCE",
"& 	c #A5A2D1",
"* 	c #A7A5D3",
"= 	c #A3A1CD",
"- 	c #9D9BC5",
"; 	c #9694BA",
"> 	c #8E8CAF",
", 	c #BCB8F6",
"' 	c #B9B5F1",
") 	c #B6B2EB",
"! 	c #B1AEE4",
"~ 	c #A9A6D9",
"{ 	c #A09DCC",
"] 	c #9B98C5",
"^ 	c #9B98C3",
"/ 	c #9592BB",
"( 	c #8B88AE",
"_ 	c #8380A2",
": 	c #777593",
"< 	c #BDB9F7",
"[ 	c #BBB7F2",
"} 	c #B7B3EC",
"| 	c #B3AFE5",
"1 	c #ABA8DA",
"2 	c #A09ECC",
"3 	c #9492BB",
"4 	c #8F8CB3",
"5 	c #8482A6",
"6 	c #767493",
"7 	c #6B6A85",
"8 	c #626078",
"9 	c #BFBBF8",
"0 	c #BCB8F3",
"a 	c #B9B5ED",
"b 	c #B4B1E6",
"c 	c #AFABDE",
"d 	c #A3A0CE",
"e 	c #928FB7",
"f 	c #827FA3",
"g 	c #706E8C",
"h 	c #62617A",
"i 	c #58576D",
"j 	c #545367",
"k 	c #C0BCF8",
"l 	c #BEBAF4",
"m 	c #BAB8EF",
"n 	c #B6B4E9",
"o 	c #B1AEE0",
"p 	c #A6A3D2",
"q 	c #918FB6",
"r 	c #787696",
"s 	c #545369",
"t 	c #56556A",
"u 	c #C1BDF8",
"v 	c #BFBBF5",
"w 	c #BCB8F0",
"x 	c #B8B5EA",
"y 	c #B3AFE1",
"z 	c #A8A5D4",
"A 	c #9491B8",
"B 	c #767392",
"C 	c #615F77",
"D 	c #C2BFF9",
"E 	c #C1BDF6",
"F 	c #BEBBF1",
"G 	c #BAB7EB",
"H 	c #B5B2E4",
"I 	c #ACA9D7",
"J 	c #9D9AC4",
"K 	c #8B89AD",
"L 	c #C3C0FA",
"M 	c #C2BFF8",
"N 	c #BFBCF2",
"O 	c #BBB8EC",
"P 	c #B7B3E5",
"Q 	c #B0ADDB",
"R 	c #A5A2CD",
"S 	c #9C99C1",
"T 	c #C4C0FA",
"U 	c #C3C0F8",
"V 	c #C0BDF3",
"W 	c #BCB9EC",
"X 	c #B8B5E6",
"Y 	c #B1AEDC",
"Z 	c #A7A4CE",
"` 	c #9A98BE",
" .	c #C5C1FA",
"..	c #C4C0F8",
"+.	c #C2BEF4",
"@.	c #BEBBEE",
"#.	c #BAB6E7",
"$.	c #B3B0DE",
"%.	c #A9A6D0",
"&.	c #9B99BE",
"*.	c #C4C0F9",
"=.	c #C4C0F6",
"-.	c #C1BDF2",
";.	c #BDBAEC",
">.	c #B9B6E6",
",.	c #B3B0DD",
"'.	c #9B99BD",
").	c #BDBAEE",
"!.	c #BAB7E9",
"~.	c #B7B4E4",
"{.	c #B4B1DE",
"].	c #AFADD7",
"^.	c #A6A3CA",
"/.	c #9997BA",
"(.	c #B0ACDB",
"_.	c #B0ACDA",
":.	c #ADABD6",
"<.	c #ABA7D2",
"[.	c #A8A4CD",
"}.	c #A2A0C6",
"|.	c #9A98BB",
"1.	c #8E8DAC",
"2.	c #82809C",
"3.	c #A3A0C5",
"4.	c #A2A0C4",
"5.	c #A19FC2",
"6.	c #9F9CBE",
"7.	c #9C9AB9",
"8.	c #9795B4",
"9.	c #918FAB",
"0.	c #86859F",
"a.	c #78768C",
"b.	c #A5A4BD",
"c.	c #A5A4BC",
"d.	c #A5A3BB",
"e.	c #A3A1B8",
"f.	c #A19FB5",
"g.	c #9E9CB1",
"h.	c #9896AA",
"i.	c #8C8A9D",
"j.	c #7A798A",
". + @ # $ % & * = - ; > ",
", ' ) ! ~ { ] ^ / ( _ : ",
"< [ } | 1 2 3 4 5 6 7 8 ",
"9 0 a b c d e f g h i j ",
"k l m n o p q r h s t   ",
"u v w x y z A B C       ",
"D E F G H I J K         ",
"L M N O P Q R S         ",
"T U V W X Y Z `         ",
" ...+.@.#.$.%.&.        ",
"*.=.-.;.>.,.%.'.        ",
").W !.~.{.].^./.        ",
"(._.:.<.[.}.|.1.2.      ",
"3.4.5.6.7.8.9.0.a.      ",
"b.c.d.e.f.g.h.i.j.      "};
