/* XPM */
static char * c25_xpm[] = {
"42 15 57 1",
" 	c None",
".	c #8481A1",
"+	c #797794",
"@	c #6E6D86",
"#	c #626176",
"$	c #5B5A6E",
"%	c #535264",
"&	c #4E4D5D",
"*	c #6C6A84",
"=	c #626076",
"-	c #5A586C",
";	c #575668",
">	c #3F3F4C",
",	c #58566C",
"'	c #575569",
")	c #3F3E4C",
"!	c #484657",
"~	c #FFFFFF",
"{	c #FCFCFD",
"]	c #EEEEEE",
"^	c #F5F5F6",
"/	c #E1E1E1",
"(	c #FDFDFD",
"_	c #EDEDED",
":	c #CECECE",
"<	c #F8F8F8",
"[	c #E2E2E2",
"}	c #BDBDBD",
"|	c #FEFEFE",
"1	c #FCFCFC",
"2	c #EFEFEF",
"3	c #D4D4D4",
"4	c #B0B0B0",
"5	c #FDFDFE",
"6	c #F6F6F6",
"7	c #E5E5E5",
"8	c #C9C9C9",
"9	c #AEAEAE",
"0	c #9E9E9E",
"a	c #F8F8F9",
"b	c #EDEDEE",
"c	c #DCDCDC",
"d	c #C6C6C6",
"e	c #F9F9FA",
"f	c #F1F1F2",
"g	c #E6E6E6",
"h	c #D7D7D7",
"i	c #C5C5C5",
"j	c #9D9D9D",
"k	c #FEFEFF",
"l	c #FEFDFF",
"m	c #FCFCFF",
"n	c #FBFBFD",
"o	c #F9F9FB",
"p	c #F4F4F5",
"q	c #E4E4E4",
"r	c #AFAFAF",
".+@#$%&                                   ",
"*=-;>                                     ",
",')                                       ",
"!                                         ",
"                                          ",
"                                          ",
"                                 ~~~{]    ",
"                              ~~~~~~^/    ",
"                          ~~~~~~~~~(_:    ",
"                       ~~~~~~~~~~~~<[}    ",
"                    ~~~~~~~~~~~~~|1234    ",
"                ~~~~~~~~~~~~~~~~~567890   ",
"             ~~~~~~~~~~~~~~~~~~~|abcd90   ",
"          ~~~~~~~~~~~~~~~~~~~~~5efghi9j   ",
"      ~~~~~~~~~~~~~~~~~~~~~klmnop2qhirj   "};
