/* XPM */
static char * c31_xpm[] = {
"42 15 317 2",
"  	c None",
". 	c #A69BFF",
"+ 	c #A096FE",
"@ 	c #998FFE",
"# 	c #9289FE",
"$ 	c #8C84FE",
"% 	c #8980FE",
"& 	c #887FFE",
"* 	c #867DFC",
"= 	c #857DFB",
"- 	c #867EFB",
"; 	c #867EFA",
"> 	c #877FFB",
", 	c #8880FB",
"' 	c #8981FB",
") 	c #8A82FB",
"! 	c #8C84FC",
"~ 	c #8E86FE",
"{ 	c #8F87FF",
"] 	c #9189FF",
"^ 	c #938BFF",
"/ 	c #958CFF",
"( 	c #968EFF",
"_ 	c #978FFF",
": 	c #9991FF",
"< 	c #9C93FF",
"[ 	c #9D95FF",
"} 	c #9E96FF",
"| 	c #A199FF",
"1 	c #A49BFF",
"2 	c #A59DFF",
"3 	c #A69EFF",
"4 	c #A79FFF",
"5 	c #A9A2FF",
"6 	c #ABA3FD",
"7 	c #ADA4F9",
"8 	c #A79DFF",
"9 	c #A198FE",
"0 	c #9A90FE",
"a 	c #938BFE",
"b 	c #8E85FE",
"c 	c #8A82FE",
"d 	c #8880FE",
"e 	c #8880FA",
"f 	c #8982FB",
"g 	c #8B83FB",
"h 	c #8C84FB",
"i 	c #8D85FB",
"j 	c #8E87FC",
"k 	c #8F87FD",
"l 	c #9089FE",
"m 	c #928BFE",
"n 	c #948CFE",
"o 	c #958EFF",
"p 	c #9B94FF",
"q 	c #9D96FF",
"r 	c #9F98FF",
"s 	c #A29AFF",
"t 	c #A39CFF",
"u 	c #A59EFF",
"v 	c #A7A0FF",
"w 	c #A9A1FE",
"x 	c #A8A0F8",
"y 	c #A79EFF",
"z 	c #9B91FE",
"A 	c #958CFE",
"B 	c #8F86FE",
"C 	c #8B83FE",
"D 	c #8981FE",
"E 	c #8881FB",
"F 	c #8981FA",
"G 	c #8A83FB",
"H 	c #8B84FB",
"I 	c #8E86FB",
"J 	c #8F87FB",
"K 	c #8F88FB",
"L 	c #918AFB",
"M 	c #928BFD",
"N 	c #968EFE",
"O 	c #9890FE",
"P 	c #9992FF",
"Q 	c #9A93FF",
"R 	c #9C95FF",
"S 	c #9E97FF",
"T 	c #A098FF",
"U 	c #A29BFF",
"V 	c #A39BFF",
"W 	c #A69FFE",
"X 	c #A59EF8",
"Y 	c #A89EFF",
"Z 	c #9C92FE",
"` 	c #968DFE",
" .	c #9087FE",
"..	c #8A82FD",
"+.	c #8880F9",
"@.	c #847CEB",
"#.	c #847DEF",
"$.	c #8D86FB",
"%.	c #8E87FB",
"&.	c #9089FB",
"*.	c #938CFC",
"=.	c #948DFC",
"-.	c #968EFD",
";.	c #978FFD",
">.	c #9891FE",
",.	c #A19AFF",
"'.	c #A39DFE",
").	c #A199F8",
"!.	c #A89FFF",
"~.	c #A299FE",
"{.	c #9D94FE",
"].	c #9188FE",
"^.	c #8D85FE",
"/.	c #8B83FC",
"(.	c #837BE7",
"_.	c #6B67A2",
":.	c #6C67C1",
"<.	c #8C85FB",
"[.	c #928BFB",
"}.	c #938CFB",
"|.	c #948DFB",
"1.	c #958DFB",
"2.	c #968FFB",
"3.	c #9790FC",
"4.	c #9992FD",
"5.	c #9A93FE",
"6.	c #9D97FF",
"7.	c #A09AFE",
"8.	c #9994F4",
"9.	c #AAA0FF",
"0.	c #A59BFE",
"a.	c #9E95FE",
"b.	c #978FFE",
"c.	c #928AFE",
"d.	c #867EEE",
"e.	c #6D69A4",
"f.	c #16151D",
"g.	c #5E59A8",
"h.	c #9088FB",
"i.	c #9189FB",
"j.	c #958EFB",
"k.	c #9790FB",
"l.	c #9891FB",
"m.	c #9992FB",
"n.	c #9A93FC",
"o.	c #9C96FE",
"p.	c #9F98FE",
"q.	c #9C96FA",
"r.	c #948EEC",
"s.	c #AAA1FF",
"t.	c #A69CFE",
"u.	c #9F96FE",
"v.	c #8F87FE",
"w.	c #8D86FC",
"x.	c #8982F2",
"y.	c #6B67A3",
"z.	c #08080B",
"A.	c #020203",
"B.	c #615BAB",
"C.	c #938BFB",
"D.	c #9892FB",
"E.	c #9A93FB",
"F.	c #9B95FB",
"G.	c #9C95FB",
"H.	c #9B95F9",
"I.	c #9992F4",
"J.	c #928CE7",
"K.	c #ACA3FF",
"L.	c #A69DFE",
"M.	c #A097FE",
"N.	c #9A92FE",
"O.	c #948DFE",
"P.	c #9189FE",
"Q.	c #7973CD",
"R.	c #030306",
"S.	c #000000",
"T.	c #605BA8",
"U.	c #948CFB",
"V.	c #9993FB",
"W.	c #9B94FB",
"X.	c #9C96FB",
"Y.	c #9D96FA",
"Z.	c #9C96F8",
"`.	c #9993F3",
" +	c #938DE7",
".+	c #ADA4FF",
"++	c #A89EFE",
"@+	c #9B93FE",
"#+	c #8F88FC",
"$+	c #8A82F3",
"%+	c #3D3B57",
"&+	c #605CA8",
"*+	c #928AFB",
"=+	c #9A94FB",
"-+	c #9D96FB",
";+	c #9D97FA",
">+	c #9D97F8",
",+	c #9B95F4",
"'+	c #9590EA",
")+	c #AFA5FF",
"!+	c #A99FFE",
"~+	c #A29AFE",
"{+	c #9C94FE",
"]+	c #938CFE",
"^+	c #918AFC",
"/+	c #8F87FA",
"(+	c #827DD4",
"_+	c #3F3D5C",
":+	c #625DA9",
"<+	c #9791FB",
"[+	c #9C95FA",
"}+	c #9E97F8",
"|+	c #9E98F8",
"1+	c #9D96F5",
"2+	c #9792EB",
"3+	c #B0A6FF",
"4+	c #ABA1FE",
"5+	c #A39CFE",
"6+	c #9D96FE",
"7+	c #938BFC",
"8+	c #8F88F7",
"9+	c #3C3A57",
"0+	c #625DA8",
"a+	c #9B95FA",
"b+	c #9C96F9",
"c+	c #9C97F8",
"d+	c #9D97F7",
"e+	c #9D97F4",
"f+	c #9B95F1",
"g+	c #9691E8",
"h+	c #A49CFE",
"i+	c #9F97FE",
"j+	c #9991FE",
"k+	c #948CFC",
"l+	c #918AF9",
"m+	c #8A83EB",
"n+	c #8F88F2",
"o+	c #958FFB",
"p+	c #9993FA",
"q+	c #9A94FA",
"r+	c #9B94FA",
"s+	c #9C95F9",
"t+	c #9C96F7",
"u+	c #9C96F6",
"v+	c #9C96F5",
"w+	c #9B96F3",
"x+	c #9A94F0",
"y+	c #9893EC",
"z+	c #9590E6",
"A+	c #928CDE",
"B+	c #B2A9FF",
"C+	c #ADA4FE",
"D+	c #A79EFE",
"E+	c #A199FE",
"F+	c #9B94FE",
"G+	c #9790FE",
"H+	c #958EFC",
"I+	c #958EFA",
"J+	c #9A93FA",
"K+	c #9B94F9",
"L+	c #9B95F8",
"M+	c #9B95F7",
"N+	c #9B95F6",
"O+	c #9B95F5",
"P+	c #9A93F1",
"Q+	c #9992EF",
"R+	c #9791EC",
"S+	c #9590E8",
"T+	c #948EE5",
"U+	c #928CE2",
"V+	c #918CDF",
"W+	c #8D88D9",
"X+	c #8984D1",
"Y+	c #ADA5FE",
"Z+	c #A79FFE",
"`+	c #9790FA",
" @	c #9A93F9",
".@	c #9A94F8",
"+@	c #9B94F8",
"@@	c #9A94F6",
"#@	c #9A94F4",
"$@	c #9992F1",
"%@	c #9892EF",
"&@	c #9690EB",
"*@	c #948FE8",
"=@	c #938DE4",
"-@	c #8F8ADE",
";@	c #8A85D5",
">@	c #8A85D2",
",@	c #8681CC",
"'@	c #807CC2",
")@	c #B4ABFF",
"!@	c #AEA6FE",
"~@	c #A8A0FE",
"{@	c #A39AFE",
"]@	c #9D95FE",
"^@	c #9891FD",
"/@	c #9690FB",
"(@	c #9891FA",
"_@	c #9992FA",
":@	c #9A94F7",
"<@	c #9993F6",
"[@	c #9993F5",
"}@	c #9892F0",
"|@	c #9791EF",
"1@	c #9690EC",
"2@	c #928DE5",
"3@	c #918AE1",
"4@	c #8E89DC",
"5@	c #8C87D8",
"6@	c #8B86D6",
"7@	c #8782D0",
"8@	c #8580CB",
"9@	c #817CC5",
"0@	c #807CC3",
"a@	c #7B77BB",
"b@	c #7672B0",
"      . + @ # $ % & * = = - ; > > , , ' ) ! ! ~ { ] ^ / ( _ : < [ } | 1 2 3 4 5 6 7 ",
"      8 9 0 a b c d - > > > e , ' f ) ) g h h i j k l m n o _ : p q r | s t u v w x ",
"      y 9 z A B C D > , , E F ) ) G g H h i i I I J K L M n N O P Q R S T U V 2 W X ",
"      Y 9 Z `  .$ ..E ' +.@.#.g g H h i $.I %.J K &.&.L L *.=.-.;.>.Q R } T ,.t '.).",
"      !.~.{.N ].^./.) F (._.:.h h <.$.I %.J K &.&.L L [.[.}.|.1.2.3.4.5.R 6.r ,.7.8.",
"      9.0.a.b.c.B ! g d.e.f.g.i $.I %.J K h.i.L L [.[.}.|.|.j.j.2.k.l.m.n.o.S p.q.r.",
"      s.t.u.>.a v.w.x.y.z.A.B.%.K h.&.&.i.L [.C.}.}.|.j.j.2.2.k.l.D.m.E.E.F.G.H.I.J.",
"      K.L.M.N.O.P.j Q.R.S.S.T.h.&.i.L L [.C.}.U.|.|.j.2.2.k.k.D.m.V.E.W.G.X.Y.Z.`. +",
"      .+++~.@+N c.#+$+%+A.S.&+i.L *+[.}.}.U.|.1.j.2.2.k.k.l.m.V.E.=+W.G.-+Y.;+>+,+'+",
"      )+!+~+{+b.]+^+/+(+_+S.:+[.[.C.}.|.|.j.j.2.2.k.<+l.D.V.E.=+W.F.[+q.Y.>+}+|+1+2+",
"      3+4+5+6+O O.7+L 8+(+9+0+}.}.|.|.j.j.2.2.k.<+l.D.m.E.=+W.F.a+q.b+c+d+d+1+e+f+g+",
"      3+4+h+i+j+N k+C.C.l+m+n+|.j.j.o+2.2.k.l.l.D.m.p+q+r+r+H.s+Z.t+u+v+w+x+y+2+z+A+",
"      B+C+D+E+F+G+H+|.|.j.j.I+2.2.k.k.l.l.m.m.J+J+q+r+K+H.L+M+N+O+P+Q+R+S+T+U+V+W+X+",
"      B+Y+Z+~+{+>.;.j.j.2.2.`+k.k.l.l.m.V.p+J+J+ @.@+@@@@@#@$@%@&@*@=@U+-@W+;@>@,@'@",
"      )@!@~@{@]@N.^@2./@k.k.(@l.D._@_@J+J+ @.@:@<@[@`.}@|@1@ +2@3@4@5@6@7@8@9@0@a@b@"};
