/* XPM */
static char * c32_xpm[] = {
"10 15 101 2",
"  	c None",
". 	c #A59DEA",
"+ 	c #8A84C0",
"@ 	c #807DA5",
"# 	c #9390B0",
"$ 	c #A5A2BE",
"% 	c #B0ADC7",
"& 	c #B5B3CC",
"* 	c #B6B4CC",
"= 	c #B5B3CD",
"- 	c #B4B3CD",
"; 	c #A19BE9",
"> 	c #908ACB",
", 	c #8B88B5",
"' 	c #A19FBA",
") 	c #BDBCCE",
"! 	c #D0CFDD",
"~ 	c #DBDAE4",
"{ 	c #DCDBE6",
"] 	c #DDDCE6",
"^ 	c #9C96E7",
"/ 	c #8883C6",
"( 	c #8A86B0",
"_ 	c #A8A6BD",
": 	c #CBC9D7",
"< 	c #E2E1E9",
"[ 	c #EEEEF2",
"} 	c #F2F1F5",
"| 	c #F3F3F6",
"1 	c #F3F2F6",
"2 	c #938CE4",
"3 	c #7F7BBC",
"4 	c #8885AB",
"5 	c #ACAABF",
"6 	c #D0CFDB",
"7 	c #EAE9EF",
"8 	c #F6F6F8",
"9 	c #F9F9FB",
"0 	c #FBFAFC",
"a 	c #FAFAFC",
"b 	c #8983DA",
"c 	c #7B77B5",
"d 	c #8986AB",
"e 	c #AEABC0",
"f 	c #D2D0DC",
"g 	c #ECECF0",
"h 	c #F8F8FA",
"i 	c #FCFCFD",
"j 	c #FDFDFE",
"k 	c #8781D4",
"l 	c #7C78B5",
"m 	c #8B87AC",
"n 	c #AEACC1",
"o 	c #D3D2DD",
"p 	c #FAFAFB",
"q 	c #FFFFFF",
"r 	c #8882D3",
"s 	c #7E7AB7",
"t 	c #8C89AD",
"u 	c #8982D3",
"v 	c #AEADC1",
"w 	c #8B85D6",
"x 	c #817CB9",
"y 	c #8D8AAE",
"z 	c #AFADC2",
"A 	c #8C86D7",
"B 	c #827EBA",
"C 	c #8D8AAF",
"D 	c #8C87D7",
"E 	c #827EB9",
"F 	c #8E8BAF",
"G 	c #8984D0",
"H 	c #837FBA",
"I 	c #8F8CAF",
"J 	c #AFADC1",
"K 	c #D2D1DC",
"L 	c #EBEBEF",
"M 	c #817CC2",
"N 	c #7D79B0",
"O 	c #CECDD9",
"P 	c #E7E6EC",
"Q 	c #F2F2F5",
"R 	c #F6F5F8",
"S 	c #F7F7F9",
"T 	c #7874B4",
"U 	c #7571A5",
"V 	c #8583A6",
"W 	c #A6A5BB",
"X 	c #C6C5D3",
"Y 	c #DAD9E2",
"Z 	c #E5E5EB",
"` 	c #E7E7ED",
" .	c #E8E8EE",
"..	c #6D6AA4",
"+.	c #6C6999",
"@.	c #7D7A9D",
"#.	c #9B99B2",
"$.	c #B3B2C6",
"%.	c #C3C2D2",
"&.	c #CAC9D7",
"*.	c #CCCBD9",
". + @ # $ % & * = - ",
"; > , ' ) ! ~ { ] ] ",
"^ / ( _ : < [ } | 1 ",
"2 3 4 5 6 7 8 9 0 a ",
"b c d e f g h i j j ",
"k l m n o g p j q q ",
"r s t n o g p j q q ",
"u s t v o g p j q q ",
"w x y z o g p j q q ",
"A B C z o g p j q q ",
"D E F z o g p j q q ",
"G H I J K L h i i i ",
"M N t 5 O P Q R S S ",
"T U V W X Y Z `  . .",
"..+.@.#.$.%.&.*.*.*."};
