/* XPM */
static char * c33_xpm[] = {
"44 15 204 2",
"  	c None",
". 	c #B4B2CC",
"+ 	c #B4B3CB",
"@ 	c #B4B3CC",
"# 	c #B5B3CC",
"$ 	c #B5B4CC",
"% 	c #B6B4CC",
"& 	c #B6B5CC",
"* 	c #B7B5CC",
"= 	c #B7B6CC",
"- 	c #B8B6CC",
"; 	c #B8B7CC",
"> 	c #B9B7CC",
", 	c #B9B8CC",
"' 	c #BAB8CC",
") 	c #BAB9CC",
"! 	c #BBB9CC",
"~ 	c #BBBACC",
"{ 	c #BCBBCC",
"] 	c #BDBCCC",
"^ 	c #BEBDCC",
"/ 	c #BFBDCC",
"( 	c #DDDCE6",
"_ 	c #DDDDE6",
": 	c #DEDDE6",
"< 	c #DEDEE6",
"[ 	c #DFDEE6",
"} 	c #DFDFE6",
"| 	c #E0DFE6",
"1 	c #E0E0E6",
"2 	c #E1E0E6",
"3 	c #F3F2F6",
"4 	c #F3F3F6",
"5 	c #F4F3F6",
"6 	c #F4F4F6",
"7 	c #FAFAFC",
"8 	c #FBFBFB",
"9 	c #FBFAFC",
"0 	c #FBFBFC",
"a 	c #FDFDFD",
"b 	c #FEFEFE",
"c 	c #F4F4F5",
"d 	c #C9C9CA",
"e 	c #EAEAEB",
"f 	c #EEEEEF",
"g 	c #DADADB",
"h 	c #F2F2F3",
"i 	c #E1E1E2",
"j 	c #FAFAFB",
"k 	c #E9E9EA",
"l 	c #D6D6D7",
"m 	c #F9F9FA",
"n 	c #FFFFFF",
"o 	c #EAEAEA",
"p 	c #5A5A5A",
"q 	c #9B9B9B",
"r 	c #8A8A8A",
"s 	c #9E9E9E",
"t 	c #F1F1F1",
"u 	c #F3F3F3",
"v 	c #8B8B8B",
"w 	c #525252",
"x 	c #D9D9D9",
"y 	c #E8E8E8",
"z 	c #6B6B6B",
"A 	c #545454",
"B 	c #C3C3C3",
"C 	c #FAFAFA",
"D 	c #ABABAB",
"E 	c #252525",
"F 	c #F6F6F6",
"G 	c #D3D3D3",
"H 	c #5C5C5C",
"I 	c #747474",
"J 	c #656565",
"K 	c #F4F4F4",
"L 	c #D4D4D4",
"M 	c #DEDEDE",
"N 	c #C9C9C9",
"O 	c #444444",
"P 	c #2C2C2C",
"Q 	c #C4C4C4",
"R 	c #EBEBEB",
"S 	c #686868",
"T 	c #696969",
"U 	c #ECECEC",
"V 	c #B8B8B8",
"W 	c #EFEFEF",
"X 	c #F7F7F7",
"Y 	c #9A9A9A",
"Z 	c #8C8C8C",
"` 	c #1F1F1F",
" .	c #AAAAAA",
"..	c #FCFCFC",
"+.	c #979797",
"@.	c #9D9D9D",
"#.	c #494949",
"$.	c #B2B2B2",
"%.	c #E3E3E3",
"&.	c #C5C5C5",
"*.	c #DDDDDD",
"=.	c #F9F9F9",
"-.	c #868686",
";.	c #9F9F9F",
">.	c #D5D5D5",
",.	c #717171",
"'.	c #3D3D3D",
").	c #6D6D6D",
"!.	c #DBDBDB",
"~.	c #BDBDBD",
"{.	c #424242",
"].	c #A0A0A0",
"^.	c #3E3E3E",
"/.	c #F8F8F8",
"(.	c #3A3A3A",
"_.	c #E9E9E9",
":.	c #B7B7B7",
"<.	c #E4E4E4",
"[.	c #959595",
"}.	c #626262",
"|.	c #E2E2E2",
"1.	c #ADADAD",
"2.	c #A1A1A1",
"3.	c #474747",
"4.	c #E1E1E1",
"5.	c #A6A6A6",
"6.	c #363636",
"7.	c #4C4C4C",
"8.	c #CBCBCB",
"9.	c #2D2D2D",
"0.	c #B6B6B6",
"a.	c #BEBEBE",
"b.	c #555555",
"c.	c #C6C6C6",
"d.	c #AEAEAE",
"e.	c #4A4A4A",
"f.	c #D1D1D1",
"g.	c #2F2F2F",
"h.	c #ACACAC",
"i.	c #6A6A6A",
"j.	c #CCCCCC",
"k.	c #515151",
"l.	c #B9B9B9",
"m.	c #888888",
"n.	c #8E8E8E",
"o.	c #393939",
"p.	c #D0D0D0",
"q.	c #F0F0F0",
"r.	c #D2D2D2",
"s.	c #D6D6D6",
"t.	c #BFBFBF",
"u.	c #929292",
"v.	c #E7E7E7",
"w.	c #8F8F8F",
"x.	c #A7A7A7",
"y.	c #B1B1B2",
"z.	c #2A2A2A",
"A.	c #6B6B6C",
"B.	c #616162",
"C.	c #AFAEAF",
"D.	c #BABABB",
"E.	c #353535",
"F.	c #717172",
"G.	c #FCFCFD",
"H.	c #E8E8E9",
"I.	c #1D1D1D",
"J.	c #646464",
"K.	c #414141",
"L.	c #262626",
"M.	c #606061",
"N.	c #5D5D5E",
"O.	c #5A5A5B",
"P.	c #545455",
"Q.	c #686869",
"R.	c #7D7D7E",
"S.	c #4E4E4F",
"T.	c #666667",
"U.	c #727273",
"V.	c #CECECF",
"W.	c #F7F7F9",
"X.	c #F8F7F9",
"Y.	c #F8F8F9",
"Z.	c #E8E8EE",
"`.	c #E8E8ED",
" +	c #E9E8EE",
".+	c #E9E9EE",
"++	c #EAE9EE",
"@+	c #EAEAEE",
"#+	c #EBEAEE",
"$+	c #EBEBEE",
"%+	c #CCCBD9",
"&+	c #CCCCD9",
"*+	c #CDCCD9",
"=+	c #CDCDD9",
"-+	c #CECDD9",
";+	c #CECED9",
">+	c #CFCED9",
",+	c #CFCFD9",
"'+	c #D0CFD9",
")+	c #D0D0D9",
"!+	c #D1D0D9",
"~+	c #D1D1D9",
"{+	c #D2D1D9",
"]+	c #D2D2D9",
". . + @ @ # # $ $ % % & & * * = = - ; ; ; > , , , ' ) ) ! ~ ~ ~ ~ { { { ] ] ] ] ^ ^ ^ / ",
"( ( ( ( ( ( ( _ _ _ _ _ : : : : : < < < < [ [ [ [ [ } } } } } | | | | 1 1 1 1 1 2 2 2 2 ",
"3 3 4 3 3 4 4 4 4 4 4 4 4 4 4 4 4 4 4 4 4 4 4 4 4 4 4 4 4 5 5 5 5 5 6 6 6 6 6 6 6 6 6 6 ",
"7 7 8 7 9 9 9 9 9 9 0 0 0 0 0 0 0 0 0 0 0 0 0 0 0 0 0 0 0 0 0 0 0 0 0 0 0 0 0 0 0 0 0 0 ",
"a a b a a a a c d d e a a a f g c a h d d i j a a a a a k d d d l m h d d d d a a a a a ",
"n n b n n n o p q r s t n u v w x n y z A B C n n n n n D E E E r F G E E E H a n n n n ",
"n n b n n n I J K L M a b N O P Q n R S T U b n n n n n S V W W X C Y Z W W u b n n n n ",
"n n b n n n Z `  .y ..n u +.@.#.$.a %.w r n n n n n n n w &.Q *.8 =.-.;.B >.C n n n n n ",
"n n b n n n W ,.'.).!.n ~.{.].^.r /.>.(.;.n n _.:.:.<.n [.].A }.|.8 1.2.H 3.4.n n n n n ",
"n n b n n y B X 5.6.D n z 5.:.7.J u 8.9.0.n >.a.b.H c.n n n d.e.f.n n n c.g.L n n n n n ",
"n n b n n h.i.n j.k.l.D m.n n n.A R +.o.p.q.).R r.s.t i.t.=.u.i.v.w.Y n x.b.|.n n n n n ",
"..........y.z.A.B.C.D.E.F.G.H.F.I.J.K.L.M.N.O.G.G.G.G.Z P.Q.R.g 0 D S.T.U.V.j G.G.G.G.G.",
"W.W.W.W.W.W.W.W.W.W.W.W.W.W.W.W.W.W.W.W.W.W.W.W.W.W.W.W.W.W.W.W.W.W.W.W.W.W.X.X.X.Y.Y.Y.",
"Z.`.Z.Z.Z.Z.Z.Z. + + + + + +.+.+.+.+.+.+.+.+.+.+++++++++@+@+@+@+@+@+@+@+@+@+@+#+#+#+#+$+",
"%+%+%+%+%+%+%+&+*+*+*+*+*+*+=+-+-+-+-+-+;+>+>+>+>+,+,+,+'+'+'+)+)+)+!+!+!+~+~+{+{+{+]+]+"};
