/* XPM */
static char * c34_xpm[] = {
"12 15 108 2",
"  	c None",
". 	c #BFBECC",
"+ 	c #BFBDCB",
"@ 	c #BEBDCB",
"# 	c #BDBCC9",
"$ 	c #BCBBC7",
"% 	c #B9B9C4",
"& 	c #B0B0BB",
"* 	c #A1A0AC",
"= 	c #898894",
"- 	c #6E6E79",
"; 	c #E1E1E6",
"> 	c #E1E0E6",
", 	c #E0E0E5",
"' 	c #DFDFE3",
") 	c #DCDCE1",
"! 	c #D1D1D7",
"~ 	c #BBBAC2",
"{ 	c #9A99A2",
"] 	c #7B7B83",
"^ 	c #DBDBDC",
"/ 	c #F4F4F6",
"( 	c #F4F4F5",
"_ 	c #F3F2F4",
": 	c #EFEFF1",
"< 	c #E2E2E5",
"[ 	c #C9C9CE",
"} 	c #A5A5AD",
"| 	c #98989F",
"1 	c #B8B7BB",
"2 	c #E6E5E6",
"3 	c #FBFBFC",
"4 	c #FBFBFB",
"5 	c #FAFAFA",
"6 	c #F6F6F7",
"7 	c #EAEAEC",
"8 	c #CECED3",
"9 	c #AAA9B0",
"0 	c #9999A0",
"a 	c #BABABE",
"b 	c #E4E4E5",
"c 	c #FDFDFD",
"d 	c #FCFCFC",
"e 	c #F9F9F9",
"f 	c #ECECEE",
"g 	c #D0D0D5",
"h 	c #AAA9B1",
"i 	c #95949F",
"j 	c #B5B3BC",
"k 	c #E1DFE5",
"l 	c #FFFFFF",
"m 	c #D1D1D5",
"n 	c #A9A9B1",
"o 	c #92919E",
"p 	c #ADAABC",
"q 	c #D7D4E5",
"r 	c #93929E",
"s 	c #ABAABC",
"t 	c #D0CDE5",
"u 	c #92919D",
"v 	c #AAA8BB",
"w 	c #CECCE4",
"x 	c #93929D",
"y 	c #ADABBB",
"z 	c #D1CFE4",
"A 	c #A9A8AF",
"B 	c #92919C",
"C 	c #ABAABB",
"D 	c #91919C",
"E 	c #D2D1E4",
"F 	c #EBEBED",
"G 	c #D0D0D4",
"H 	c #A6A6AC",
"I 	c #94949C",
"J 	c #B2B1BC",
"K 	c #D9D7E5",
"L 	c #F8F8F9",
"M 	c #F8F8F8",
"N 	c #F7F7F8",
"O 	c #F3F3F4",
"P 	c #E7E6E9",
"Q 	c #CBCBCF",
"R 	c #A5A5AB",
"S 	c #92919B",
"T 	c #ACAABB",
"U 	c #D2D0E4",
"V 	c #EBEAED",
"W 	c #EAEAED",
"X 	c #E9E9EB",
"Y 	c #E6E6E9",
"Z 	c #DADADD",
"` 	c #C2C2C7",
" .	c #9E9EA4",
"..	c #8D8C97",
"+.	c #AEACBD",
"@.	c #D0CEE6",
"#.	c #D2D2D9",
"$.	c #D2D2D8",
"%.	c #D2D1D8",
"&.	c #D1D0D7",
"*.	c #CFCFD5",
"=.	c #CCCCD1",
"-.	c #C2C2C8",
";.	c #AEAEB5",
">.	c #919198",
",.	c #898893",
"'.	c #B0AEC0",
").	c #C4C3DB",
". + @ # $ % & * = -     ",
"; ; > , ' ) ! ~ { ]   ^ ",
"/ / / ( _ : < [ } | 1 2 ",
"3 4 4 4 5 6 7 8 9 0 a b ",
"c c c c d e f g h i j k ",
"l l l l c 5 f m n o p q ",
"l l l l c 5 f m n r s t ",
"l l l l c 5 f m h u v w ",
"l l l l c 5 f m 9 x y z ",
"l l l l c 5 f m A B C z ",
"l l l l c 5 f m A D y E ",
"d d d d d e F G H I J K ",
"L L M N 6 O P Q R S T U ",
"F F V W X Y Z `  ...+.@.",
"#.$.%.&.*.=.-.;.>.,.'.)."};
