/* XPM */
static char * c35_xpm[] = {
"42 15 279 2",
"  	c None",
". 	c #FFFFFF",
"+ 	c #FFFEFF",
"@ 	c #FFFDFF",
"# 	c #FEFDFF",
"$ 	c #FDFCFF",
"% 	c #FCFBFF",
"& 	c #FAFAFF",
"* 	c #FAF9FF",
"= 	c #F9F9FE",
"- 	c #F8F8FC",
"; 	c #F8F8FB",
"> 	c #F6F6F8",
", 	c #F4F4F4",
"' 	c #EFEFEF",
") 	c #E5E5E5",
"! 	c #D8D8D8",
"~ 	c #C5C5C5",
"{ 	c #B1B1B1",
"] 	c #9E9E9E",
"^ 	c #F1F1F1",
"/ 	c #FDFDFD",
"( 	c #FEFEFF",
"_ 	c #FBFAFF",
": 	c #F8F7FF",
"< 	c #F7F6FE",
"[ 	c #F6F5FE",
"} 	c #F6F5FC",
"| 	c #F6F6FC",
"1 	c #F7F7FC",
"2 	c #F9F9FA",
"3 	c #E4E4E4",
"4 	c #D7D7D7",
"5 	c #AFAFAF",
"6 	c #9D9D9D",
"7 	c #F7F7F7",
"8 	c #FEFEFE",
"9 	c #FDFDFF",
"0 	c #FBF9FF",
"a 	c #F9F8FF",
"b 	c #F6F5FF",
"c 	c #F5F4FF",
"d 	c #F4F3FF",
"e 	c #F2F2FE",
"f 	c #F2F2FD",
"g 	c #F3F2FC",
"h 	c #F3F3FC",
"i 	c #F4F4FC",
"j 	c #F7F6FC",
"k 	c #F9F9FB",
"l 	c #F8F8F8",
"m 	c #F5F5F5",
"n 	c #C6C6C6",
"o 	c #F7F6F7",
"p 	c #FEFDFE",
"q 	c #FDFBFF",
"r 	c #FCFAFF",
"s 	c #F7F6FF",
"t 	c #F4F2FF",
"u 	c #F3F1FF",
"v 	c #F2F1FF",
"w 	c #F1F0FE",
"x 	c #F0EFFD",
"y 	c #EFEEFD",
"z 	c #F0EFFC",
"A 	c #F0F0FC",
"B 	c #F1F1FC",
"C 	c #F2F2FC",
"D 	c #F4F3FC",
"E 	c #F5F4FC",
"F 	c #F9F9FC",
"G 	c #FAFAFB",
"H 	c #9C9C9C",
"I 	c #F4F1F7",
"J 	c #FAF8FE",
"K 	c #FAF8FF",
"L 	c #F8F5FF",
"M 	c #F7F5FF",
"N 	c #F5F3FF",
"O 	c #F1F0FF",
"P 	c #F0EFFF",
"Q 	c #EFEDFF",
"R 	c #EEECFF",
"S 	c #EDECFD",
"T 	c #EDECFC",
"U 	c #EEEDFC",
"V 	c #EFEEFC",
"W 	c #F1F0FC",
"X 	c #F5F5FC",
"Y 	c #F8F7FC",
"Z 	c #E6E6E8",
"` 	c #E9E9EB",
" .	c #F9F9F9",
"..	c #C7C7C7",
"+.	c #B0B0B0",
"@.	c #9B9B9B",
"#.	c #EBE9F7",
"$.	c #F4F1FE",
"%.	c #F5F2FF",
"&.	c #F3F0FF",
"*.	c #F1EFFF",
"=.	c #EFEEFF",
"-.	c #EEEBFF",
";.	c #EDEBFF",
">.	c #EBE9FF",
",.	c #EAE8FE",
"'.	c #E9E8FD",
").	c #EAE8FC",
"!.	c #EAE9FC",
"~.	c #EBEAFC",
"{.	c #ECEBFC",
"].	c #F2F1FC",
"^.	c #F9F8FC",
"/.	c #989799",
"(.	c #A7A7A7",
"_.	c #ECECEC",
":.	c #EEEEEE",
"<.	c #C8C8C8",
"[.	c #E1DEF7",
"}.	c #E9E6FE",
"|.	c #ECEAFF",
"1.	c #ECE9FF",
"2.	c #EAE8FF",
"3.	c #E9E7FE",
"4.	c #E7E6FE",
"5.	c #E7E5FE",
"6.	c #E7E5FD",
"7.	c #E7E5FC",
"8.	c #E7E6FC",
"9.	c #E8E7FC",
"0.	c #E9E8FC",
"a.	c #828283",
"b.	c #0B0B0B",
"c.	c #A3A3A3",
"d.	c #E3E3E3",
"e.	c #DEDCF7",
"f.	c #E4E1FE",
"g.	c #E6E3FF",
"h.	c #E5E3FE",
"i.	c #E4E3FE",
"j.	c #E4E2FD",
"k.	c #E3E2FC",
"l.	c #E4E2FC",
"m.	c #E4E3FC",
"n.	c #E6E4FC",
"o.	c #EFEFFC",
"p.	c #FAFAFC",
"q.	c #858586",
"r.	c #020202",
"s.	c #010101",
"t.	c #A5A5A5",
"u.	c #EAEAEA",
"v.	c #999999",
"w.	c #E4E2FF",
"x.	c #E2E0FD",
"y.	c #E2E0FC",
"z.	c #E2E1FC",
"A.	c #E6E5FC",
"B.	c #E8E6FC",
"C.	c #E9E7FC",
"D.	c #818182",
"E.	c #000000",
"F.	c #222222",
"G.	c #D9D9D9",
"H.	c #E0DEF7",
"I.	c #E5E3FF",
"J.	c #E3E1FD",
"K.	c #E3E1FC",
"L.	c #E5E4FC",
"M.	c #FBFBFC",
"N.	c #828282",
"O.	c #050505",
"P.	c #8C8C8C",
"Q.	c #AEAEAE",
"R.	c #E2E0F7",
"S.	c #E6E4FE",
"T.	c #E6E4FF",
"U.	c #E2E1FB",
"V.	c #E3E2FB",
"W.	c #E4E3FB",
"X.	c #E5E3FB",
"Y.	c #E7E5FB",
"Z.	c #EEEEFC",
"`.	c #FBFAFC",
" +	c #FCFCFC",
".+	c #898989",
"++	c #E7E7E7",
"@+	c #D6D6D6",
"#+	c #C3C3C3",
"$+	c #ACACAC",
"%+	c #989898",
"&+	c #E7E5F7",
"*+	c #E9E7FD",
"=+	c #E1DFFA",
"-+	c #E1DFF8",
";+	c #E3E1F8",
">+	c #E5E3F9",
",+	c #E6E5FA",
"'+	c #E7E6FA",
")+	c #E9E8FB",
"!+	c #EBEAFB",
"~+	c #ECEBFB",
"{+	c #EDECFB",
"]+	c #8A8A8A",
"^+	c #EBEBEB",
"/+	c #D4D4D4",
"(+	c #C2C2C2",
"_+	c #ABABAB",
":+	c #979797",
"<+	c #DFDDF6",
"[+	c #E0DEF9",
"}+	c #DBD9F3",
"|+	c #D8D6EF",
"1+	c #D9D8EF",
"2+	c #DDDBF2",
"3+	c #DFDEF3",
"4+	c #E1E0F4",
"5+	c #E3E2F6",
"6+	c #E6E5F8",
"7+	c #E9E8FA",
"8+	c #EAE9FA",
"9+	c #ECEBFA",
"0+	c #EEEDFB",
"a+	c #EEEEFB",
"b+	c #F0EFFB",
"c+	c #FAF9FC",
"d+	c #EDEDED",
"e+	c #E1E1E1",
"f+	c #D3D3D3",
"g+	c #C0C0C0",
"h+	c #A9A9A9",
"i+	c #959595",
"j+	c #D5D4EE",
"k+	c #D2D0E9",
"l+	c #CECCE4",
"m+	c #CFCEE4",
"n+	c #D2D1E7",
"o+	c #D6D5EA",
"p+	c #D8D7EB",
"q+	c #DBD9ED",
"r+	c #DEDDF0",
"s+	c #E3E1F3",
"t+	c #E6E4F5",
"u+	c #E8E7F7",
"v+	c #EAE9F8",
"w+	c #ECEBF9",
"x+	c #EEEDFA",
"y+	c #F1F1FB",
"z+	c #F3F2FB",
"A+	c #F4F3FB",
"B+	c #FBFBFB",
"C+	c #E0E0E0",
"D+	c #BFBFBF",
"E+	c #939393",
"F+	c #C2C1D8",
"G+	c #C1C0D6",
"H+	c #C3C1D7",
"I+	c #C7C6DB",
"J+	c #CCCADF",
"K+	c #CFCEE2",
"L+	c #D1D0E3",
"M+	c #D4D2E5",
"N+	c #D9D8E9",
"O+	c #DDDCED",
"P+	c #E1E0EF",
"Q+	c #E4E3F2",
"R+	c #E7E6F4",
"S+	c #E9E8F5",
"T+	c #ECEBF7",
"U+	c #EFEEF9",
"V+	c #F0EFF9",
"W+	c #F2F1FA",
"X+	c #F5F5FB",
"Y+	c #F7F6FB",
"Z+	c #FAFAFA",
"`+	c #F3F3F3",
" @	c #DFDFDF",
".@	c #D1D1D1",
"+@	c #BDBDBD",
"        . . . . . . . . . . . . . . . . . + @ # $ % & * = - ; > , ' ) ! ~ { ]       ",
"^ / . . . . . . . . . + ( ( ( ( ( $ % _ * : < < [ [ } | 1 ; ; 2 , ' 3 4 ~ 5 6       ",
"7 8 . . . . + + ( ( 9 9 % _ 0 a : b c d e e f g h i } j 1 - k l m ' ) ! n { ]       ",
"o p + # # $ q r 0 * : s c t u v w x y x z A B C D E | 1 - F G l m ' ) 4 n { H       ",
"I J 0 K K L M N t u O P Q R S S T T U V z W C h i X j Y Z ` 2  .m ' ) ! ..+.@.      ",
"#.$.%.t &.*.=.-.;.>.>.,.'.).!.~.{.T U V z ].g D E } 1 ^./.(._. .m :.3 ! <.{ H       ",
"[.}.|.1.2.3.4.5.4.6.7.8.9.0.!.{.T U V z B g D E X | - F a.b.c.:.m :.d.4 n { @.      ",
"e.f.g.h.i.j.k.l.m.n.8.9.0.!.~.T U V o.W ].h i X | 1 F p.q.r.s.t.u.:.d.4 n +.v.      ",
"[.h.w.x.y.z.k.l.n.A.B.C.).~.{.T U V W ].g D E } 1 - F p.D.E.E.F.G.:.d.4 n +.v.      ",
"H.h.I.J.y.K.l.L.A.8.9.0.~.{.T U V z W ].g i X j Y ^.p.M.N.E.O.P.m :.d.4 ~ Q.v.      ",
"R.S.T.K.U.V.W.X.Y.B.0.!.~.{.T Z.z W ].g D E | 1 - F `. +N.E..+++m :.d.@+#+$+%+      ",
"&+*+S.=+H.-+;+>+,+'+)+!+~+{+U V W B C h E | 1 - F p. + +]+.+^+ .m :.d./+(+_+:+      ",
"<+[+}+|+1+2+3+4+5+6+7+8+9+0+a+b+W ].g D X j Y ^.c+M. +/ /  + + ., d+e+f+g+h+i+      ",
"j+k+l+m+n+o+p+q+r+s+t+u+v+w+x+b+y+z+A+X | 1 - F M. +/ / /  +B+l , _.C+f+D+(.E+      ",
"F+G+H+I+J+K+L+M+N+O+P+Q+R+S+T+U+V+W+A+X+Y+- F p.M. +/ / /  +Z+l `+^+ @.@+@t.E+      "};
