/* XPM */
static char * c41_xpm[] = {
"42 13 282 2",
"  	c None",
". 	c #B6ADFF",
"+ 	c #B0A9FE",
"@ 	c #ABA2FE",
"# 	c #A49CFE",
"$ 	c #9F97FE",
"% 	c #9B94FE",
"& 	c #9992FC",
"* 	c #9790FB",
"= 	c #9791FA",
"- 	c #9891FB",
"; 	c #9892FB",
"> 	c #9992FA",
", 	c #9993F9",
"' 	c #9993F8",
") 	c #9A93F8",
"! 	c #9993F5",
"~ 	c #9993F4",
"{ 	c #9892F2",
"] 	c #9691EF",
"^ 	c #9690EE",
"/ 	c #958FEB",
"( 	c #938DE7",
"_ 	c #918BE4",
": 	c #8F89E0",
"< 	c #8D87DC",
"[ 	c #8C87DA",
"} 	c #8A85D5",
"| 	c #8681CF",
"1 	c #847FCB",
"2 	c #827EC7",
"3 	c #7E79C0",
"4 	c #7A75B9",
"5 	c #7672B4",
"6 	c #7471B0",
"7 	c #6E6BA6",
"8 	c #67639A",
"9 	c #B5ADFF",
"0 	c #ABA3FE",
"a 	c #A59EFE",
"b 	c #A099FE",
"c 	c #9D97FE",
"d 	c #9B94FD",
"e 	c #9992FB",
"f 	c #9993FA",
"g 	c #9993F7",
"h 	c #9993F6",
"i 	c #9892F3",
"j 	c #958EEC",
"k 	c #938DE8",
"l 	c #918BE5",
"m 	c #908BE3",
"n 	c #8E89E0",
"o 	c #8D87DB",
"p 	c #8B86D8",
"q 	c #8883D3",
"r 	c #8680CF",
"s 	c #817CC5",
"t 	c #7C77BE",
"u 	c #7975B8",
"v 	c #716DAB",
"w 	c #6C68A2",
"x 	c #656298",
"y 	c #635F94",
"z 	c #5B5888",
"A 	c #54517C",
"B 	c #B4ACFF",
"C 	c #ACA4FE",
"D 	c #A79FFE",
"E 	c #A19BFE",
"F 	c #9E97FE",
"G 	c #9B94FC",
"H 	c #9A94FA",
"I 	c #9A93F9",
"J 	c #9992F6",
"K 	c #9892F4",
"L 	c #9891F2",
"M 	c #9690F0",
"N 	c #948EED",
"O 	c #948EEA",
"P 	c #928CE8",
"Q 	c #908AE3",
"R 	c #8E88DF",
"S 	c #8C86DC",
"T 	c #8A84D7",
"U 	c #8984D5",
"V 	c #8782D2",
"W 	c #847FCC",
"X 	c #817DC8",
"Y 	c #7E7AC2",
"Z 	c #7B76BC",
"` 	c #7873B7",
" .	c #736FAF",
"..	c #6D69A6",
"+.	c #69659E",
"@.	c #656198",
"#.	c #5E5B8E",
"$.	c #575482",
"%.	c #504D78",
"&.	c #4C4A71",
"*.	c #4A476E",
"=.	c #B4ADFF",
"-.	c #B2ABFE",
";.	c #ADA5FE",
">.	c #A8A1FE",
",.	c #A39CFE",
"'.	c #9F98FC",
").	c #9C96FB",
"!.	c #9A94F8",
"~.	c #9992F5",
"{.	c #9791F2",
"].	c #948EEC",
"^.	c #938DE9",
"/.	c #918BE6",
"(.	c #8F89E2",
"_.	c #8E88E0",
":.	c #8C87DD",
"<.	c #8983D7",
"[.	c #8781D2",
"}.	c #847FCE",
"|.	c #817CC9",
"1.	c #807CC6",
"2.	c #7D78C1",
"3.	c #7874B9",
"4.	c #7672B6",
"5.	c #726EAE",
"6.	c #6D68A5",
"7.	c #67639D",
"8.	c #625E94",
"9.	c #5B578A",
"0.	c #565381",
"a.	c #53507B",
"b.	c #4E4B74",
"c.	c #4A476D",
"d.	c #424062",
"e.	c #3E3C5C",
"f.	c #B8B0FF",
"g.	c #B3ABFE",
"h.	c #AEA5FE",
"i.	c #A39CFD",
"j.	c #9F97F9",
"k.	c #9B95F6",
"l.	c #968FEE",
"m.	c #928DE9",
"n.	c #8E89E1",
"o.	c #8D87DE",
"p.	c #8B85DB",
"q.	c #8782D4",
"r.	c #8580CF",
"s.	c #7D78C2",
"t.	c #7A76BD",
"u.	c #7470B3",
"v.	c #706CAC",
"w.	c #6A66A2",
"x.	c #615E93",
"y.	c #5A5788",
"z.	c #565281",
"A.	c #504E79",
"B.	c #4B4870",
"C.	c #47456B",
"D.	c #4A486F",
"E.	c #524F7A",
"F.	c #B4ACFE",
"G.	c #AFA7FE",
"H.	c #A8A1FD",
"I.	c #A09AF7",
"J.	c #9B94F1",
"K.	c #9791ED",
"L.	c #908AE4",
"M.	c #8E89E2",
"N.	c #8C86DD",
"O.	c #8A85D9",
"P.	c #8580D0",
"Q.	c #837ECC",
"R.	c #7E7AC5",
"S.	c #7C77C0",
"T.	c #7672B7",
"U.	c #716DAE",
"V.	c #6C69A6",
"W.	c #66629C",
"X.	c #636098",
"Y.	c #605C93",
"Z.	c #5A5687",
"`.	c #565382",
" +	c #47446A",
".+	c #48466C",
"++	c #4E4B73",
"@+	c #B4ABFE",
"#+	c #ADA6FE",
"$+	c #A49EF8",
"%+	c #9B95ED",
"&+	c #958FE7",
"*+	c #918CE4",
"=+	c #8E87DE",
"-+	c #8782D5",
";+	c #827DCC",
">+	c #7F7AC5",
",+	c #7873BA",
"'+	c #7571B5",
")+	c #716DAF",
"!+	c #6E6AA9",
"~+	c #68649F",
"{+	c #605D94",
"]+	c #5B588B",
"^+	c #545180",
"/+	c #524F7C",
"(+	c #514F7B",
"_+	c #4C4973",
":+	c #4A476F",
"<+	c #48456B",
"[+	c #A7A1F9",
"}+	c #9C96EA",
"|+	c #938DDE",
"1+	c #8D88D8",
"2+	c #8A84D5",
"3+	c #7E79C4",
"4+	c #7A76BE",
"5+	c #7772B8",
"6+	c #726DAF",
"7+	c #6D69A9",
"8+	c #6A65A2",
"9+	c #66619B",
"0+	c #53507F",
"a+	c #4E4B76",
"b+	c #4B4872",
"c+	c #48466D",
"d+	c #3E3C5E",
"e+	c #AAA4FA",
"f+	c #9C97E8",
"g+	c #908BD7",
"h+	c #8984CE",
"i+	c #8580CA",
"j+	c #827CC6",
"k+	c #7B76BD",
"l+	c #7570B5",
"m+	c #726EAF",
"n+	c #6C68A7",
"o+	c #67639E",
"p+	c #615D94",
"q+	c #5C598E",
"r+	c #585486",
"s+	c #54507E",
"t+	c #504D79",
"u+	c #4B4972",
"v+	c #4A4770",
"w+	c #4B4971",
"x+	c #9D98E8",
"y+	c #8E8AD2",
"z+	c #8580C4",
"A+	c #7F7ABD",
"B+	c #7B76B8",
"C+	c #7570B0",
"D+	c #6D68A6",
"E+	c #65629C",
"F+	c #615E95",
"G+	c #5A578A",
"H+	c #555282",
"I+	c #504D7A",
"J+	c #4D4A75",
"K+	c #4E4B75",
"L+	c #7F7BB9",
"M+	c #7874AE",
"N+	c #716DA6",
"O+	c #6A669E",
"P+	c #636095",
"Q+	c #5B588A",
"R+	c #514E7A",
"S+	c #47446C",
"T+	c #47446B",
"U+	c #6D699E",
"V+	c #656294",
"W+	c #5E5A8A",
"X+	c #585582",
"Y+	c #524F79",
"Z+	c #4B4871",
"`+	c #49466E",
" @	c #56537E",
".@	c #504D75",
"+@	c #4B486D",
"@@	c #4C4970",
"#@	c #4D4B72",
"$@	c #AFAAB2",
"      . + @ # $ % & * = - ; > > > , ' ) ) ! ~ { ] ^ / ( _ : < [ } | 1 2 3 4 5 6 7 8 ",
"      9 + 0 a b c d e > > > f ' ' g h ~ i ^ j k l m n o p q r 1 s t u 5 v w x y z A ",
"      B + C D E F G H I ' g J K L M N O P Q R S T U V W X Y Z `  ...+.@.#.$.%.%.&.*.",
"      =.-.;.>.,.'.).!.~.K {.M ].^./.(._.:.<.[.}.|.1.2.3.4.5.6.7.8.9.0.a.b.c.d.e.    ",
"      f.g.h.>.i.j.k.{ l.].m./.n.o.p.<.q.r.|.s.t.4.u.v.w.7.x.y.z.A.B.C.D.E.          ",
"        F.G.H.I.J.K.^.L.M.N.O.q.P.Q.|.R.S.T.U.V.W.X.Y.Z.`.%.B. +.+++                ",
"        @+#+$+%+&+*+=+O.-+P.;+>+S.,+'+)+!+~+{+]+^+/+(+_+:+<+                        ",
"        + [+}+|+1+2+}.|.3+4+5+6+7+8+9+{+9.0+a+b+c+c+d+                              ",
"        e+f+g+h+i+j+k+l+m+n+o+p+q+r+s+t+u+v+w+                                      ",
"        x+y+z+A+B+C+D+E+F+G+H+I+J+_+:+K+                                            ",
"          L+M+N+O+P+Q+H+R+b+S+T+                                                    ",
"          U+V+W+X+Y+w+Z+`+                                                          ",
"           @.@+@@@#@                                                              $@"};
