/* XPM */
static char * c42_xpm[] = {
"10 13 79 1",
" 	c None",
".	c #615D8F",
"+	c #625F8A",
"@	c #717094",
"#	c #8C89AB",
"$	c #9F9CBA",
"%	c #A7A4C1",
"&	c #AAA8C3",
"*	c #AAA8C4",
"=	c #A9A7C4",
"-	c #504D75",
";	c #545178",
">	c #69678C",
",	c #8783AD",
"'	c #9491BC",
")	c #9994C0",
"!	c #9895C0",
"~	c #9894C0",
"{	c #9693C0",
"]	c #9591C0",
"^	c #413F60",
"/	c #5B5881",
"(	c #9894C8",
"_	c #A19BD4",
":	c #A19CD6",
"<	c #9F9BD5",
"[	c #9E9AD6",
"}	c #9C98D5",
"|	c #9A96D5",
"1	c #AEA9E8",
"2	c #B0AAEB",
"3	c #B0ABEC",
"4	c #AEAAEC",
"5	c #ADA8EC",
"6	c #ABA6EB",
"7	c #A8A4EB",
"8	c #BBB6F9",
"9	c #B9B4FA",
"0	c #B7B2FA",
"a	c #B5B0F9",
"b	c #B3AEF9",
"c	c #C1BCFF",
"d	c #C0BBFF",
"e	c #BFBAFF",
"f	c #BDB8FF",
"g	c #BAB5FE",
"h	c #B8B3FE",
"i	c #C3BDFF",
"j	c #BCB8FF",
"k	c #BAB5FF",
"l	c #C3BEFF",
"m	c #C2BDFF",
"n	c #BEB9FF",
"o	c #BCB7FF",
"p	c #BDB9FF",
"q	c #B5B1EF",
"r	c #BFBAFA",
"s	c #C1BDFF",
"t	c #C0BCFF",
"u	c #BEBAFF",
"v	c #AAA5C0",
"w	c #CBC5F2",
"x	c #CAC3FF",
"y	c #C4C0FF",
"z	c #C4BEFF",
"A	c #C5C0C8",
"B	c #D4CFDB",
"C	c #EDE6FF",
"D	c #D9D4FF",
"E	c #CAC4FF",
"F	c #C5C0FF",
"G	c #C4BFFF",
"H	c #EAE5F1",
"I	c #F3EEFF",
"J	c #ECE6FE",
"K	c #E4DEFF",
"L	c #D8D2FF",
"M	c #CBC5FF",
"N	c #C5BFFF",
".+@#$%&**=",
"-;>,')!~{]",
"^/ (_:<[}|",
"   1234567",
"    8890ab",
"    cdefgh",
"    icefjk",
"    lmceno",
"    clmcdp",
"    qrsctu",
"   vwxyzmt",
" ABCDEFGlm",
"HIJKLMFNGl"};
