/* XPM */
static char * c43_xpm[] = {
"44 13 328 2",
"  	c None",
". 	c #A9A7C4",
"+ 	c #A9A7C3",
"@ 	c #A9A8C4",
"# 	c #AAA8C4",
"$ 	c #ABA9C4",
"% 	c #ABAAC4",
"& 	c #ACAAC4",
"* 	c #ACABC4",
"= 	c #ADABC4",
"- 	c #ADACC4",
"; 	c #AEACC4",
"> 	c #AEADC4",
", 	c #AFADC4",
"' 	c #AFAEC4",
") 	c #B0AEC4",
"! 	c #B0AFC4",
"~ 	c #B1AFC4",
"{ 	c #B1B0C4",
"] 	c #B2B1C4",
"^ 	c #B3B1C4",
"/ 	c #B3B2C4",
"( 	c #B4B3C4",
"_ 	c #B5B4C4",
": 	c #B5B5C4",
"< 	c #B6B5C4",
"[ 	c #9491C0",
"} 	c #9491BF",
"| 	c #9491BE",
"1 	c #9592BF",
"2 	c #9593BF",
"3 	c #9693BF",
"4 	c #9794BF",
"5 	c #9795BF",
"6 	c #9895BF",
"7 	c #9996BF",
"8 	c #9A97BF",
"9 	c #9A98BF",
"0 	c #9B98BF",
"a 	c #9B99BF",
"b 	c #9C9ABF",
"c 	c #9D9BBF",
"d 	c #9E9BBF",
"e 	c #9F9CBF",
"f 	c #9F9DBF",
"g 	c #9F9EBF",
"h 	c #A09EBF",
"i 	c #A19FBF",
"j 	c #A2A0BF",
"k 	c #A3A0BF",
"l 	c #A3A1BF",
"m 	c #A3A2BF",
"n 	c #A5A3BF",
"o 	c #A6A4BF",
"p 	c #A6A5BF",
"q 	c #A7A6BF",
"r 	c #A8A7BF",
"s 	c #A9A7BF",
"t 	c #9995D4",
"u 	c #9995D3",
"v 	c #9A96D4",
"w 	c #9B97D4",
"x 	c #9D99D4",
"y 	c #9E9AD4",
"z 	c #9E9BD4",
"A 	c #9F9BD4",
"B 	c #A09DD4",
"C 	c #A19DD4",
"D 	c #A29ED4",
"E 	c #A29FD4",
"F 	c #A3A0D4",
"G 	c #A4A1D4",
"H 	c #A5A1D4",
"I 	c #A5A2D4",
"J 	c #A6A3D4",
"K 	c #A7A4D4",
"L 	c #A8A5D4",
"M 	c #A9A5D4",
"N 	c #A9A6D4",
"O 	c #AAA7D4",
"P 	c #ABA9D4",
"Q 	c #ACA9D4",
"R 	c #ADA9D4",
"S 	c #ADAAD4",
"T 	c #ADABD4",
"U 	c #AFADD4",
"V 	c #B0ADD4",
"W 	c #B0AED4",
"X 	c #B1AFD4",
"Y 	c #B3B0D4",
"Z 	c #B4B1D4",
"` 	c #B4B2D4",
" .	c #B4B3D4",
"..	c #B5B3D4",
"+.	c #B6B4D4",
"@.	c #A7A3EA",
"#.	c #A7A3E9",
"$.	c #A7A3E8",
"%.	c #A8A4E9",
"&.	c #A9A5E9",
"*.	c #AAA5E9",
"=.	c #AAA6E9",
"-.	c #ABA7E9",
";.	c #ACA7E9",
">.	c #ADA8E9",
",.	c #ADA9E9",
"'.	c #AEAAE9",
").	c #AFABE9",
"!.	c #B0ACE9",
"~.	c #B1ACE9",
"{.	c #B1ADE9",
"].	c #B2AFE9",
"^.	c #B3B0E9",
"/.	c #B4B1E9",
"(.	c #B5B1E9",
"_.	c #B6B2E9",
":.	c #B7B3E9",
"<.	c #B8B4E9",
"[.	c #B8B5E9",
"}.	c #B9B5E9",
"|.	c #BAB6E9",
"1.	c #BBB8E9",
"2.	c #BCB9E9",
"3.	c #BDBAE9",
"4.	c #BDBBE9",
"5.	c #BFBCE9",
"6.	c #C0BCE9",
"7.	c #C1BDE9",
"8.	c #C1BEE9",
"9.	c #C2BFE9",
"0.	c #C3C1E9",
"a.	c #C4C2E9",
"b.	c #C5C3E9",
"c.	c #C6C3E9",
"d.	c #C7C4E9",
"e.	c #C7C5E9",
"f.	c #C8C7E9",
"g.	c #B1ACF8",
"h.	c #B1ACF7",
"i.	c #B1ACF6",
"j.	c #B2ADF7",
"k.	c #B3AEF7",
"l.	c #B4AFF7",
"m.	c #B4B0F7",
"n.	c #B5B0F7",
"o.	c #B6B1F7",
"p.	c #B6B2F7",
"q.	c #B8B3F7",
"r.	c #B8B4F7",
"s.	c #B9B5F7",
"t.	c #BAB6F7",
"u.	c #BCB8F7",
"v.	c #BDB9F7",
"w.	c #BEBAF7",
"x.	c #BFBBF7",
"y.	c #C0BCF7",
"z.	c #C1BDF7",
"A.	c #C1BEF7",
"B.	c #C2BFF7",
"C.	c #C3BFF7",
"D.	c #C4C0F7",
"E.	c #C5C2F7",
"F.	c #C6C3F7",
"G.	c #C7C4F7",
"H.	c #C8C4F7",
"I.	c #C8C5F7",
"J.	c #CAC7F7",
"K.	c #CBC7F7",
"L.	c #CBC8F7",
"M.	c #CCC9F7",
"N.	c #CDCAF7",
"O.	c #CECCF7",
"P.	c #CFCCF7",
"Q.	c #D0CDF7",
"R.	c #D1CEF7",
"S.	c #D2CFF7",
"T.	c #D3D0F7",
"U.	c #D4D2F7",
"V.	c #D4D2F6",
"W.	c #B6B1FD",
"X.	c #B5B1FC",
"Y.	c #B6B1FB",
"Z.	c #B7B3FC",
"`.	c #B8B3FC",
" +	c #B9B4FC",
".+	c #B9B5FC",
"++	c #BAB5FC",
"@+	c #BBB6FC",
"#+	c #BCB7FC",
"$+	c #BCB8FC",
"%+	c #BDB9FC",
"&+	c #BEBAFC",
"*+	c #BFBAFC",
"=+	c #C0BCFC",
"-+	c #C1BDFC",
";+	c #C2BEFC",
">+	c #C3BFFC",
",+	c #C4C0FC",
"'+	c #C5C1FC",
")+	c #C6C2FC",
"!+	c #C6C3FC",
"~+	c #C7C4FC",
"{+	c #C8C4FC",
"]+	c #C9C6FC",
"^+	c #CAC7FC",
"/+	c #CBC7FC",
"(+	c #CCC8FC",
"_+	c #CCC9FC",
":+	c #CECBFC",
"<+	c #CFCBFC",
"[+	c #CFCCFC",
"}+	c #D0CDFC",
"|+	c #D1CEFC",
"1+	c #D2D0FC",
"2+	c #D3D0FC",
"3+	c #D4D1FC",
"4+	c #D5D2FC",
"5+	c #D6D3FC",
"6+	c #D7D4FC",
"7+	c #D8D6FC",
"8+	c #D9D6FC",
"9+	c #D9D6FB",
"0+	c #B9B4FE",
"a+	c #B8B4FD",
"b+	c #B9B5FD",
"c+	c #BAB5FD",
"d+	c #BAB6FD",
"e+	c #BBB7FD",
"f+	c #BCB7FD",
"g+	c #BDB9FD",
"h+	c #BEB9FD",
"i+	c #BEBAFD",
"j+	c #BFBBFD",
"k+	c #C0BCFD",
"l+	c #C1BDFD",
"m+	c #C2BEFD",
"n+	c #C3BFFD",
"o+	c #C4C0FD",
"p+	c #C5C1FD",
"q+	c #C6C2FD",
"r+	c #C7C3FD",
"s+	c #C7C4FD",
"t+	c #C8C5FD",
"u+	c #C9C5FD",
"v+	c #CAC7FD",
"w+	c #CBC8FD",
"x+	c #CCC8FD",
"y+	c #CDC9FD",
"z+	c #CECAFD",
"A+	c #CFCCFD",
"B+	c #D0CDFD",
"C+	c #D1CEFD",
"D+	c #D2CFFD",
"E+	c #D3D1FD",
"F+	c #D4D1FD",
"G+	c #D5D2FD",
"H+	c #D6D3FD",
"I+	c #D7D4FD",
"J+	c #D8D5FD",
"K+	c #D9D7FD",
"L+	c #DAD7FD",
"M+	c #DBD8FD",
"N+	c #DBD8FC",
"O+	c #BBB6FE",
"P+	c #BAB5FE",
"Q+	c #BCB8FD",
"R+	c #C0BBFD",
"S+	c #C6C3FD",
"T+	c #C8C4FD",
"U+	c #C9C6FD",
"V+	c #CBC7FD",
"W+	c #CCC9FD",
"X+	c #CDCAFD",
"Y+	c #D4D2FD",
"Z+	c #D9D6FD",
"`+	c #DBD9FD",
" @	c #DCDAFC",
".@	c #BBB7FF",
"+@	c #BBB7FC",
"@@	c #C4C1FD",
"#@	c #DDDAFB",
"$@	c #BDB9FF",
"%@	c #BCB7FE",
"&@	c #BFBAFD",
"*@	c #CECBFD",
"=@	c #DCDAFD",
"-@	c #DDDBFC",
";@	c #DDDAFA",
">@	c #BFBAFF",
",@	c #BDB8FE",
"'@	c #B3AFE1",
")@	c #9D9AC1",
"!@	c #9B98BE",
"~@	c #9B99BE",
"{@	c #A19FC5",
"]@	c #DAD8FD",
"^@	c #DEDBFD",
"/@	c #DEDBFC",
"(@	c #DDDBFA",
"_@	c #C0BCFF",
":@	c #BFBAFE",
"<@	c #C1BEF3",
"[@	c #373645",
"}@	c #30303C",
"|@	c #2C2B35",
"1@	c #34333F",
"2@	c #464454",
"3@	c #D1CFFD",
"4@	c #DEDCFD",
"5@	c #DEDCFC",
"6@	c #DEDCFA",
"7@	c #C2BEFF",
"8@	c #C1BCFE",
"9@	c #C0BBFC",
"0@	c #C2BFF3",
"a@	c #9B9AB8",
"b@	c #888897",
"c@	c #878697",
"d@	c #878797",
"e@	c #898898",
"f@	c #9897B1",
"g@	c #A9A7CC",
"h@	c #D3D0FD",
"i@	c #D5D3FD",
"j@	c #D6D4FD",
"k@	c #DFDDFC",
"l@	c #DFDDFA",
"m@	c #DDDBF7",
". . + @ # # # $ $ $ % & & * = = - - ; > > , , ' ) ! ! ~ ~ { ] ] ] ^ / / ( ( ( ( _ _ : < ",
"[ } | 1 2 2 3 4 4 5 6 6 7 8 8 9 0 a b b c c d e f g h h i j j k l m n n n o p q q r s s ",
"t t u v w w x x x y z A B C C D E F G H I J K L M N N O P Q R S T U V W W X Y Z `  ...+.",
"@.#.$.%.&.*.=.-.;.>.,.'.).!.~.{.].].^./.(._.:.<.[.}.|.1.2.2.3.4.5.6.7.8.9.0.a.b.c.d.e.f.",
"g.h.i.j.k.l.m.n.o.p.q.r.s.t.t.u.u.v.w.x.y.z.A.B.C.D.E.F.G.H.I.J.K.L.M.N.O.P.Q.R.S.T.U.V.",
"W.X.Y.Z.`. +.+++@+#+$+%+&+*+=+-+-+;+>+,+'+)+!+~+{+]+^+/+(+_+:+<+[+}+|+1+2+3+4+5+6+7+8+9+",
"0+a+ +b+c+d+e+f+g+h+i+j+k+l+m+m+n+o+p+q+r+s+t+u+v+w+x+y+z+A+B+B+C+D+E+F+G+H+I+J+K+L+M+N+",
"O+P+++d+e+f+Q+h+i+j+R+k+l+m+n+o+o+q+S+r+T+u+U+V+w+W+X+z+A+B+C+C+D+E+Y+G+H+I+J+Z+L+M+`+ @",
".@O+@++@f+g+h+i+j+k+k+m+m+n+o+@@q+S+s+T+u+U+V+x+W+X+z+A+B+C+C+D+E+F+G+H+I+J+Z+L+M+`+ @#@",
"$@%@#+$+g+i+&@j+k+l+m+n+n+o+p+q+r+s+T+u+U+V+w+W+X+*@A+B+C+C+D+F+Y+G+H+I+J+Z+L+M+`+=@-@;@",
">@,@g+h+i+j+R+k+l+m+n+n+o+p+q+r+s+t+'@)@!@!@~@~@~@{@B+C+D+D+F+Y+G+H+I+J+Z+L+]@`+=@^@/@(@",
"_@:@i+&@j+k+k+l+m+n+o+o+p+S+r+T+t+<@[@}@|@|@|@|@1@2@d 3@D+F+Y+G+H+I+J+Z+L+]@`+=@^@4@5@6@",
"7@8@j+9@=+l+m+n+o+o+p+q+r+s+T+u+U+0@a@b@c@c@d@d@e@f@g@h@F+G+i@j@I+J+K+L+M+`+=@^@4@k@l@m@"};
