/* XPM */
static char * c44_xpm[] = {
"12 13 117 2",
"  	c None",
". 	c #B6B5C3",
"+ 	c #B6B5C2",
"@ 	c #B5B4C1",
"# 	c #B3B3BF",
"$ 	c #B0B0BB",
"% 	c #ADACB7",
"& 	c #A5A4AF",
"* 	c #9696A0",
"= 	c #808089",
"- 	c #807F8C",
"; 	c #A4A3B6",
"> 	c #A6A5BA",
", 	c #A9A7BE",
"' 	c #A9A7BD",
") 	c #A7A6BB",
"! 	c #A4A3B7",
"~ 	c #A09FB2",
"{ 	c #9B9AAB",
"] 	c #9393A2",
"^ 	c #878694",
"/ 	c #747380",
"( 	c #71707C",
"_ 	c #8B8A9B",
": 	c #828191",
"< 	c #B6B4D2",
"[ 	c #B5B4D0",
"} 	c #B3B0CC",
"| 	c #AEADC6",
"1 	c #AAA7BF",
"2 	c #A2A1B8",
"3 	c #9896AA",
"4 	c #8A889A",
"5 	c #797887",
"6 	c #C8C7E8",
"7 	c #C7C5E5",
"8 	c #C4C1E0",
"9 	c #BEBCD9",
"0 	c #B9B7D2",
"a 	c #B0AEC7",
"b 	c #A3A2B8",
"c 	c #9392A4",
"d 	c #818090",
"e 	c #D4D2F4",
"f 	c #D1CFF1",
"g 	c #CECCEB",
"h 	c #C8C6E3",
"i 	c #C1C0DB",
"j 	c #B7B6CE",
"k 	c #A9A8BD",
"l 	c #9695A8",
"m 	c #D8D6F8",
"n 	c #D5D4F5",
"o 	c #D1D0EF",
"p 	c #CCCAE7",
"q 	c #C5C3DE",
"r 	c #BAB9D1",
"s 	c #AAA9BF",
"t 	c #DAD8F9",
"u 	c #D7D5F5",
"v 	c #D2D1EF",
"w 	c #CBCAE6",
"x 	c #C3C1DB",
"y 	c #B8B7CE",
"z 	c #A8A7BB",
"A 	c #9594A5",
"B 	c #DBD9F9",
"C 	c #D8D6F5",
"D 	c #D1CFEC",
"E 	c #CAC8E3",
"F 	c #C2C0D9",
"G 	c #B6B4CA",
"H 	c #DAD8F8",
"I 	c #D7D5F3",
"J 	c #C9C7E1",
"K 	c #C0BFD6",
"L 	c #B3B2C7",
"M 	c #A09FB1",
"N 	c #8F8E9D",
"O 	c #DAD8F6",
"P 	c #D6D4F1",
"Q 	c #D0CEE9",
"R 	c #C7C6DE",
"S 	c #BDBCD2",
"T 	c #AEADC0",
"U 	c #9896A6",
"V 	c #888794",
"W 	c #DBD9F6",
"X 	c #D5D4EF",
"Y 	c #CECDE6",
"Z 	c #C5C4DC",
"` 	c #BBBAD0",
" .	c #ACAABD",
"..	c #9F9EAD",
"+.	c #A5A4AE",
"@.	c #DBD9F5",
"#.	c #D4D3ED",
"$.	c #CCCAE3",
"%.	c #C3C1D8",
"&.	c #B7B6CA",
"*.	c #A6A6B7",
"=.	c #A0A0AD",
"-.	c #C4C3CC",
";.	c #E8E6ED",
">.	c #D7D5D8",
",.	c #D8D7F2",
"'.	c #D2D0EA",
").	c #CBC9E0",
"!.	c #C0BED4",
"~.	c #B2B1C4",
"{.	c #A1A0B0",
"].	c #A5A4B0",
"^.	c #D2D1D9",
"/.	c #F2F0F5",
"(.	c #FCFBFE",
"_.	c #FFFEFF",
":.	c #F1F1F1",
". + @ # $ % & * = - ; > ",
", ' ) ! ~ { ] ^ / ( _ : ",
"< [ } | 1 2 3 4 5       ",
"6 7 8 9 0 a b c d       ",
"e f g h i j k l         ",
"m n o p q r s l         ",
"t u v w x y z A         ",
"B C D E F G ! c         ",
"H I D J K L M N         ",
"O P Q R S T U V         ",
"W X Y Z `  ...+.        ",
"@.#.$.%.&.*.=.-.;.>.    ",
",.'.).!.~.{.].^./.(._.:."};
