/* XPM */
static char * c45_xpm[] = {
"42 13 225 2",
"  	c None",
". 	c #A7A5BA",
"+ 	c #B0AEC2",
"@ 	c #B6B4C8",
"# 	c #BCBBCE",
"$ 	c #C2C1D4",
"% 	c #C7C6D8",
"& 	c #C9C8DA",
"* 	c #CCCBDC",
"= 	c #D2D1E1",
"- 	c #D6D5E5",
"; 	c #DAD9E8",
"> 	c #DEDDEA",
", 	c #E1E0ED",
"' 	c #E4E3EF",
") 	c #E7E7F1",
"! 	c #EBEAF3",
"~ 	c #EDECF5",
"{ 	c #F1F0F7",
"] 	c #F2F2F8",
"^ 	c #F4F3F9",
"/ 	c #F7F6FB",
"( 	c #F8F8FB",
"_ 	c #F9F9FB",
": 	c #FBFBFC",
"< 	c #FCFCFC",
"[ 	c #FDFDFD",
"} 	c #FAFAFA",
"| 	c #F8F8F8",
"1 	c #F3F3F3",
"2 	c #EAEAEA",
"3 	c #DDDDDD",
"4 	c #CECECE",
"5 	c #BABABA",
"6 	c #A2A2A2",
"7 	c #919191",
"8 	c #8E8D9D",
"9 	c #9C9BAC",
"0 	c #A3A2B3",
"a 	c #ABAABB",
"b 	c #B3B2C2",
"c 	c #BAB8C9",
"d 	c #BDBCCB",
"e 	c #C0BFCE",
"f 	c #C7C6D5",
"g 	c #CDCDDA",
"h 	c #D2D1DE",
"i 	c #D7D6E2",
"j 	c #DADAE5",
"k 	c #DEDDE7",
"l 	c #E1E0EA",
"m 	c #E4E4ED",
"n 	c #E7E7EF",
"o 	c #EBEBF2",
"p 	c #EEEEF4",
"q 	c #F2F2F6",
"r 	c #F5F5F8",
"s 	c #F7F7F9",
"t 	c #F9F9F9",
"u 	c #FBFBFB",
"v 	c #E9E9E9",
"w 	c #DCDCDC",
"x 	c #BBBBBB",
"y 	c #A4A4A4",
"z 	c #929292",
"A 	c #82818F",
"B 	c #858592",
"C 	c #8A8997",
"D 	c #92919F",
"E 	c #9C9BA8",
"F 	c #A5A4B2",
"G 	c #A9A8B6",
"H 	c #AEADB9",
"I 	c #B6B6C2",
"J 	c #C0BFCB",
"K 	c #C7C6D1",
"L 	c #CCCBD6",
"M 	c #D0D0D9",
"N 	c #D4D4DD",
"O 	c #D9D9E1",
"P 	c #DEDEE5",
"Q 	c #E1E0E6",
"R 	c #E5E4EA",
"S 	c #E9E8EC",
"T 	c #ECEBEF",
"U 	c #F0EFF2",
"V 	c #F2F2F4",
"W 	c #F6F6F7",
"X 	c #F6F6F6",
"Y 	c #F0F0F0",
"Z 	c #E7E7E7",
"` 	c #DBDBDB",
" .	c #CCCCCC",
"..	c #B6B6B6",
"+.	c #9E9E9E",
"@.	c #8C8C8C",
"#.	c #6F6E79",
"$.	c #848390",
"%.	c #898995",
"&.	c #908F9B",
"*.	c #93929D",
"=.	c #9897A1",
"-.	c #A3A3AD",
";.	c #AFAEB8",
">.	c #B9B8C2",
",.	c #C0BFC9",
"'.	c #C5C4CD",
").	c #CAC9D2",
"!.	c #D0CFD7",
"~.	c #D4D4DB",
"{.	c #D8D8DD",
"].	c #DDDDE2",
"^.	c #E1E1E4",
"/.	c #E5E5E7",
"(.	c #EAEAEB",
"_.	c #EDEDED",
":.	c #F7F7F7",
"<.	c #F5F5F5",
"[.	c #EFEFEF",
"}.	c #E6E6E6",
"|.	c #D8D8D8",
"1.	c #C8C8C8",
"2.	c #B0B0B0",
"3.	c #999999",
"4.	c #898989",
"5.	c #7F7E87",
"6.	c #818089",
"7.	c #8C8B94",
"8.	c #97979F",
"9.	c #A3A2AA",
"0.	c #ACABB3",
"a.	c #B3B2BA",
"b.	c #BBBAC1",
"c.	c #C2C1C8",
"d.	c #C8C8CD",
"e.	c #CDCDD1",
"f.	c #D3D3D7",
"g.	c #D8D7DB",
"h.	c #DCDCDE",
"i.	c #E2E2E3",
"j.	c #EBEBEB",
"k.	c #EEEEEE",
"l.	c #F2F2F2",
"m.	c #ECECEC",
"n.	c #E3E3E3",
"o.	c #D5D5D5",
"p.	c #C5C5C5",
"q.	c #AEAEAE",
"r.	c #979797",
"s.	c #8B8B8B",
"t.	c #8A8991",
"u.	c #8D8D93",
"v.	c #939399",
"w.	c #9A999F",
"x.	c #A3A2A8",
"y.	c #ADADB2",
"z.	c #B7B6BB",
"A.	c #BDBDC1",
"B.	c #C5C5C8",
"C.	c #CCCBCE",
"D.	c #D2D2D4",
"E.	c #D8D8D9",
"F.	c #E0E0E0",
"G.	c #F1F1F1",
"H.	c #D2D2D2",
"I.	c #C2C2C2",
"J.	c #ACACAC",
"K.	c #959595",
"L.	c #8B8B90",
"M.	c #8E8D92",
"N.	c #97969A",
"O.	c #A1A1A4",
"P.	c #A7A7AA",
"Q.	c #B1B1B3",
"R.	c #BABABC",
"S.	c #C3C3C3",
"T.	c #CBCBCB",
"U.	c #D1D1D1",
"V.	c #E1E1E1",
"W.	c #E5E5E5",
"X.	c #E8E8E8",
"Y.	c #E2E2E2",
"Z.	c #CFCFCF",
"`.	c #BEBEBE",
" +	c #A9A9A9",
".+	c #909092",
"++	c #989899",
"@+	c #9F9E9F",
"#+	c #A8A8A8",
"$+	c #B4B4B4",
"%+	c #BDBDBD",
"&+	c #C9C9C9",
"*+	c #D4D4D4",
"=+	c #DADADA",
"-+	c #DEDEDE",
";+	c #D9D9D9",
">+	c #909090",
",+	c #9D9D9D",
"'+	c #ABABAB",
")+	c #B3B3B3",
"!+	c #BCBCBC",
"~+	c #C4C4C4",
"{+	c #D7D7D7",
"]+	c #C7C7C7",
"^+	c #AFAFAF",
"/+	c #9B9B9B",
"(+	c #939393",
"_+	c #ADADAD",
":+	c #B9B9B9",
"<+	c #BFBFBF",
"[+	c #C1C1C1",
"}+	c #A7A7A7",
"|+	c #969696",
"1+	c #A1A1A1",
"2+	c #9C9C9C",
"3+	c #8E8E8E",
"4+	c #8D8D8D",
"5+	c #9F9F9F",
"6+	c #868686",
"7+	c #787878",
"8+	c #848484",
"9+	c #818181",
"0+	c #838383",
"a+	c #7A7A7A",
"b+	c #757575",
". + @ # $ % & * = - ; > , ' ) ! ~ { ] ^ / ( _ : < < [ [ [ < } | 1 2 3 4 5 6 7       ",
"8 9 0 a b c d e f g h i j k l m n o p q r s t u < < < < [ < } | 1 v w 4 x y z       ",
"A B C D E F G H I J K L M N O P Q R S T U V W | t u u < < < } X Y Z `  ...+.@.      ",
"    #.$.%.&.*.=.-.;.>.,.'.).!.~.{.].^./.(._.Y 1 X :.t } } } t <.[.}.|.1.2.3.4.      ",
"            5.6.7.8.9.0.a.b.c.d.e.f.g.h.i.}.v j.k.l.1 X :.| :.1 m.n.o.p.q.r.s.      ",
"                  t.u.v.w.x.y.z.A.B.C.D.E.3 F.n.}.2 _.Y G.G.l._.v F.H.I.J.K.        ",
"                        L.M.N.O.P.Q.R.S.T.U.o.|.3 V.W.X.2 j.j.Z Y.` Z.`. +K.        ",
"                              .+.+++@+#+$+%+I.&+Z.*+=+-+V.n.V.-+;+H.&+5 y 7         ",
"                                    >+K.,+y '+)+!+~+ .U.o.{+{+U.4 ]+`.^+/+s.        ",
"                                          z (+3.6 _+:+<+p.&+&+p.[+!+)+}+|+@.        ",
"                                                7 r.1+}+q.$+..$+)+^+}+2+7           ",
"                                                    3+4+(+/+5+,++.,+r.3+6+          ",
"                                                          7+8+9+0+8+9+a+b+          "};
