/* XPM */
static char * c51_xpm[] = {
"52 57 699 2",
"  	c None",
". 	c #4D4A6F",
"+ 	c #F8F2FF",
"@ 	c #F4EEFF",
"# 	c #EDE8FF",
"$ 	c #E7E2FF",
"% 	c #E1DCFE",
"& 	c #DCD6FF",
"* 	c #D4CFFF",
"= 	c #CCC6FF",
"- 	c #C7C1FF",
"; 	c #C7C2FF",
"> 	c #C5C0FF",
", 	c #F3EEFF",
"' 	c #E8E2FF",
") 	c #E2DDFF",
"! 	c #DED9FF",
"~ 	c #D9D4FE",
"{ 	c #D5D1FF",
"] 	c #D1CDFF",
"^ 	c #CBC6FF",
"/ 	c #C6C2FF",
"( 	c #928F95",
"_ 	c #E0DAE6",
": 	c #EEE8FF",
"< 	c #E3DEFF",
"[ 	c #DFD9FF",
"} 	c #DAD6FF",
"| 	c #D7D2FF",
"1 	c #D3CFFF",
"2 	c #D0CBFE",
"3 	c #CCC8FF",
"4 	c #C8C4FF",
"5 	c #C7C3FF",
"6 	c #BBB6BE",
"7 	c #D5D0DB",
"8 	c #DAD5FF",
"9 	c #D1CCFF",
"0 	c #CDC9FF",
"a 	c #C9C4FE",
"b 	c #C6C1FF",
"c 	c #C3BEFF",
"d 	c #C3BFFE",
"e 	c #C6C0FE",
"f 	c #C7C3FE",
"g 	c #E7E1EA",
"h 	c #DAD4FF",
"i 	c #D6D2FF",
"j 	c #CAC5FF",
"k 	c #C3BEFD",
"l 	c #C1BDFE",
"m 	c #C1BDFD",
"n 	c #C6C2FD",
"o 	c #C0BCF8",
"p 	c #F7F0FF",
"q 	c #F3ECFF",
"r 	c #D6D1FF",
"s 	c #D0CBFF",
"t 	c #CDC8FF",
"u 	c #C4BEFE",
"v 	c #C0BCFD",
"w 	c #C0BCFC",
"x 	c #C2BEFC",
"y 	c #C1BDFB",
"z 	c #BBB7F2",
"A 	c #AEABE1",
"B 	c #FAF3FF",
"C 	c #F5EFFF",
"D 	c #EFE8FF",
"E 	c #EBE6FF",
"F 	c #E8E1FF",
"G 	c #D0CCFF",
"H 	c #C4BFFF",
"I 	c #C0BCFB",
"J 	c #C1BDFC",
"K 	c #C2BEFB",
"L 	c #B8B4EE",
"M 	c #A6A3D6",
"N 	c #9996C4",
"O 	c #EDE7F0",
"P 	c #F6EFFF",
"Q 	c #F1EAFF",
"R 	c #EBE4FF",
"S 	c #E5DFFF",
"T 	c #E1DDFF",
"U 	c #DFDAFF",
"V 	c #D8D3FF",
"W 	c #CEC9FF",
"X 	c #C9C5FF",
"Y 	c #C3BFFF",
"Z 	c #B3AFE6",
"` 	c #A19FCF",
" .	c #9693BF",
"..	c #DBD5DE",
"+.	c #F9F2FF",
"@.	c #EBE5FF",
"#.	c #E6E0FF",
"$.	c #E0DBFF",
"%.	c #DCD7FF",
"&.	c #D9D5FF",
"*.	c #C2BDFE",
"=.	c #C3BFFC",
"-.	c #C1BDF8",
";.	c #BBB7F0",
">.	c #B3B0E5",
",.	c #AAA7D8",
"'.	c #E3DDE5",
").	c #F3EDFF",
"!.	c #EEE9FF",
"~.	c #E7E1FF",
"{.	c #E1DCFF",
"].	c #DDD7FF",
"^.	c #D8D4FF",
"/.	c #D4D0FF",
"(.	c #D2CDFF",
"_.	c #CAC6FF",
":.	c #C4BFFE",
"<.	c #C4C0FC",
"[.	c #C3BFFB",
"}.	c #C4C0FA",
"|.	c #C3BFF8",
"1.	c #C1BDF3",
"2.	c #BAB7EB",
"3.	c #FCF6FF",
"4.	c #F2EDFF",
"5.	c #ECE7FF",
"6.	c #E4DEFF",
"7.	c #DED8FF",
"8.	c #D7D3FF",
"9.	c #D5D0FF",
"0.	c #CECAFF",
"a.	c #C9C4FF",
"b.	c #C5C1FC",
"c.	c #C6C2FC",
"d.	c #C6C2FB",
"e.	c #C5C2F9",
"f.	c #C2BFF5",
"g.	c #BEBBEF",
"h.	c #F9F3FF",
"i.	c #EDE7FF",
"j.	c #E3DDFF",
"k.	c #DBD6FF",
"l.	c #CFCAFF",
"m.	c #CCC7FF",
"n.	c #C3BEFE",
"o.	c #C1BCFD",
"p.	c #C7C3FC",
"q.	c #C7C3FA",
"r.	c #C5C2F7",
"s.	c #C2BFF3",
"t.	c #BCB9EB",
"u.	c #FCF7FD",
"v.	c #F9F4FF",
"w.	c #E9E3FF",
"x.	c #CFCBFF",
"y.	c #C8C4FC",
"z.	c #C8C4FB",
"A.	c #C7C3F9",
"B.	c #C5C2F5",
"C.	c #C1BDF0",
"D.	c #B9B5E5",
"E.	c #E3E0E3",
"F.	c #F5F0FF",
"G.	c #EFE9FF",
"H.	c #E9E4FF",
"I.	c #E4DFFF",
"J.	c #C5C1FF",
"K.	c #C1BCFC",
"L.	c #C2BFFC",
"M.	c #C9C5FC",
"N.	c #C8C5FB",
"O.	c #C7C3F8",
"P.	c #C4C1F3",
"Q.	c #BEBAEB",
"R.	c #B5B1DF",
"S.	c #E1DBE3",
"T.	c #FAF5FF",
"U.	c #F6F0FE",
"V.	c #F2ECFF",
"W.	c #EAE6FF",
"X.	c #DBD7FF",
"Y.	c #D9D3FF",
"Z.	c #CBC7FF",
"`.	c #C8C3FF",
" +	c #C4C0FE",
".+	c #C3C0FC",
"++	c #C4C1FC",
"@+	c #C5C2FC",
"#+	c #C9C6FC",
"$+	c #C9C6FB",
"%+	c #C9C6F9",
"&+	c #C7C3F5",
"*+	c #C1BEEF",
"=+	c #B9B6E4",
"-+	c #B0ACD7",
";+	c #EFEAFF",
">+	c #E9E4FE",
",+	c #E5E0FF",
"'+	c #C2BEFD",
")+	c #C2BDFC",
"!+	c #C6C3FC",
"~+	c #C7C4FC",
"{+	c #C8C5FC",
"]+	c #CAC6FC",
"^+	c #CAC7FC",
"/+	c #CAC7FB",
"(+	c #CAC7FA",
"_+	c #C9C6F8",
":+	c #C4C1F2",
"<+	c #BEBBE9",
"[+	c #B4B1DD",
"}+	c #A9A6CE",
"|+	c #E1DBFF",
"1+	c #E0DAFE",
"2+	c #DDD8FF",
"3+	c #D9D4FF",
"4+	c #D7D1FF",
"5+	c #C5C0FE",
"6+	c #CBC7FC",
"7+	c #CBC8FC",
"8+	c #CBC8FB",
"9+	c #CAC7F9",
"0+	c #C8C5F6",
"a+	c #C2BFEE",
"b+	c #B9B7E2",
"c+	c #AFADD6",
"d+	c #A4A1C7",
"e+	c #D5D0FE",
"f+	c #D2CEFF",
"g+	c #CCC8FC",
"h+	c #CCC9FB",
"i+	c #CCC9FA",
"j+	c #CBC8F8",
"k+	c #C7C4F3",
"l+	c #BFBCE9",
"m+	c #B5B3DD",
"n+	c #ABA8CF",
"o+	c #9E9BBE",
"p+	c #C9C5FE",
"q+	c #C5C1FE",
"r+	c #C4C0FD",
"s+	c #C3BFFD",
"t+	c #CCC9FC",
"u+	c #CDC9FC",
"v+	c #CDCAFB",
"w+	c #CCC9F9",
"x+	c #C9C6F6",
"y+	c #C4C2EF",
"z+	c #BBB8E3",
"A+	c #B1AED6",
"B+	c #A6A3C7",
"C+	c #9694B4",
"D+	c #BAB7F2",
"E+	c #BFBBF7",
"F+	c #C2BFFB",
"G+	c #C4C0FB",
"H+	c #CDCAFC",
"I+	c #CECAFB",
"J+	c #CDCAFA",
"K+	c #CCC9F7",
"L+	c #C8C5F3",
"M+	c #C1BFEA",
"N+	c #B7B5DD",
"O+	c #ACAACF",
"P+	c #9F9DBE",
"Q+	c #8C8BA8",
"R+	c #ADA9E0",
"S+	c #B4B0E8",
"T+	c #BBB8F1",
"U+	c #BFBCF6",
"V+	c #C2BEF9",
"W+	c #C4C1FB",
"X+	c #C5C2FB",
"Y+	c #C6C3FB",
"Z+	c #C1BEF3",
"`+	c #BEBBEC",
" @	c #C3BFF4",
".@	c #CECBFC",
"+@	c #CFCBFB",
"@@	c #CECBF9",
"#@	c #CBC8F5",
"$@	c #C5C3EE",
"%@	c #BDBBE4",
"&@	c #B2B0D6",
"*@	c #A6A4C7",
"=@	c #9694B3",
"-@	c #817F99",
";@	c #AEABE0",
">@	c #B6B2E8",
",@	c #BBB8EF",
"'@	c #C0BDF5",
")@	c #C3BFF9",
"!@	c #C5C1FB",
"~@	c #C7C3FB",
"{@	c #C0BDEE",
"]@	c #747387",
"^@	c #86849D",
"/@	c #C0BDEF",
"(@	c #CFCCFC",
"_@	c #D0CDFB",
":@	c #D0CDFA",
"<@	c #CDCBF7",
"[@	c #C9C7F1",
"}@	c #C1BFE7",
"|@	c #B8B5DC",
"1@	c #ACAACD",
"2@	c #9D9ABA",
"3@	c #8A88A3",
"4@	c #737288",
"5@	c #B0ACDF",
"6@	c #B7B4E9",
"7@	c #BEBBF0",
"8@	c #C3BFF6",
"9@	c #C5C1F9",
"0@	c #C7C4FB",
"a@	c #C9C5FB",
"b@	c #BFBCEC",
"c@	c #6D6C7F",
"d@	c #040405",
"e@	c #726F8C",
"f@	c #C8C5F8",
"g@	c #CECAFC",
"h@	c #D0CDFC",
"i@	c #D1CEFC",
"j@	c #D0CDF9",
"k@	c #CCCAF5",
"l@	c #C5C3EC",
"m@	c #BDBAE0",
"n@	c #B2B0D4",
"o@	c #A4A3C3",
"p@	c #9290AD",
"q@	c #7C7B92",
"r@	c #676679",
"s@	c #ABA8D8",
"t@	c #B3B0E2",
"u@	c #BAB7EA",
"v@	c #C1BDF2",
"w@	c #C4C1F6",
"x@	c #CAC6FB",
"y@	c #CBC7FB",
"z@	c #BEBCEB",
"A@	c #666578",
"B@	c #060607",
"C@	c #141318",
"D@	c #7C7A99",
"E@	c #CBC8FA",
"F@	c #D1CEFB",
"G@	c #D1CEFA",
"H@	c #D0CDF7",
"I@	c #CAC7F0",
"J@	c #C1BFE5",
"K@	c #B8B5D9",
"L@	c #ADAACC",
"M@	c #9C9AB8",
"N@	c #87859F",
"O@	c #6E6D81",
"P@	c #5D5C6D",
"Q@	c #A9A7D5",
"R@	c #B2AEDE",
"S@	c #BAB7E8",
"T@	c #BFBCEF",
"U@	c #C4C1F4",
"V@	c #C7C4F7",
"W@	c #C9C6FA",
"X@	c #C3BFEE",
"Y@	c #747389",
"Z@	c #09090B",
"`@	c #000000",
" #	c #18171D",
".#	c #807E9B",
"+#	c #D2CFFC",
"@#	c #D2CFFB",
"##	c #D2CFF9",
"$#	c #CFCCF5",
"%#	c #C7C4EB",
"&#	c #BEBCE0",
"*#	c #B4B3D5",
"=#	c #A8A6C6",
"-#	c #9594AF",
";#	c #7E7C94",
">#	c #636273",
",#	c #A8A5D0",
"'#	c #B1AFDD",
")#	c #BBB8E8",
"!#	c #C2BEEF",
"~#	c #C7C4F5",
"{#	c #C2BFEC",
"]#	c #817F9A",
"^#	c #222128",
"/#	c #121115",
"(#	c #121215",
"_#	c #1C1C20",
":#	c #72718A",
"<#	c #D2D0FC",
"[#	c #D3D0FC",
"}#	c #D3D0FB",
"|#	c #D3D0FA",
"1#	c #D2CFF8",
"2#	c #CCC9F0",
"3#	c #C4C1E6",
"4#	c #BBB8DB",
"5#	c #AFADCE",
"6#	c #A29FBD",
"7#	c #8C8AA3",
"8#	c #727185",
"9#	c #626172",
"0#	c #ACA9D4",
"a#	c #B6B3E0",
"b#	c #BFBCEB",
"c#	c #C5C2F1",
"d#	c #CECBFB",
"e#	c #CFCCFA",
"f#	c #B1AFD5",
"g#	c #A4A2C3",
"h#	c #B7B4D7",
"i#	c #BDBBDE",
"j#	c #C5C2EB",
"k#	c #D4D1FC",
"l#	c #D4D2FB",
"m#	c #D4D1F9",
"n#	c #D0CEF5",
"o#	c #C9C6EC",
"p#	c #C0BDE1",
"q#	c #B5B3D4",
"r#	c #A9A6C5",
"s#	c #9896B0",
"t#	c #7F7E94",
"u#	c #686779",
"v#	c #585866",
"w#	c #ADAAD3",
"x#	c #B7B5E0",
"y#	c #C5C2EF",
"z#	c #CAC7F5",
"A#	c #CDCAF9",
"B#	c #CFCCFB",
"C#	c #D3D1FC",
"D#	c #D5D2FC",
"E#	c #D5D2FB",
"F#	c #D5D2FA",
"G#	c #D3D1F7",
"H#	c #CECBF0",
"I#	c #C4C2E5",
"J#	c #BAB7D8",
"K#	c #ADABC9",
"L#	c #9E9CB7",
"M#	c #8A889F",
"N#	c #717082",
"O#	c #626070",
"P#	c #A2A0C6",
"Q#	c #ACAAD2",
"R#	c #B8B5DF",
"S#	c #C1BEE9",
"T#	c #C7C4F1",
"U#	c #CBC9F5",
"V#	c #CECBF8",
"W#	c #CFCCF9",
"X#	c #D0CEFA",
"Y#	c #D4D2FC",
"Z#	c #D5D3FC",
"`#	c #D6D3FC",
" $	c #D6D3FB",
".$	c #D6D3FA",
"+$	c #D4D2F8",
"@$	c #D1CFF4",
"#$	c #CAC8EB",
"$$	c #BFBDDD",
"%$	c #B3B1D0",
"&$	c #A4A3BE",
"*$	c #9291A9",
"=$	c #7A798D",
"-$	c #636272",
";$	c #51505D",
">$	c #A09DC1",
",$	c #ADAAD0",
"'$	c #B8B6DD",
")$	c #C1BEE8",
"!$	c #C7C4EE",
"~$	c #CBC8F3",
"{$	c #CDCAF5",
"]$	c #D1CEF8",
"^$	c #D2CFFA",
"/$	c #D6D4FC",
"($	c #D7D4FC",
"_$	c #D7D5FB",
":$	c #D6D4F9",
"<$	c #D4D1F6",
"[$	c #CFCDF0",
"}$	c #C6C5E6",
"|$	c #BBB9D8",
"1$	c #AFADC9",
"2$	c #9E9DB6",
"3$	c #8A899F",
"4$	c #727182",
"5$	c #646372",
"6$	c #9F9EC0",
"7$	c #ACA9CD",
"8$	c #B6B4DA",
"9$	c #C0BDE4",
"0$	c #C6C3EB",
"a$	c #CBC9F1",
"b$	c #D3D0F9",
"c$	c #D4D1FA",
"d$	c #D7D4FB",
"e$	c #D7D5FC",
"f$	c #D8D5FB",
"g$	c #D7D5FA",
"h$	c #D6D4F8",
"i$	c #D3D1F4",
"j$	c #CDCAEC",
"k$	c #C2C1E0",
"l$	c #B7B4D1",
"m$	c #A9A7C1",
"n$	c #9694AC",
"o$	c #7F7E90",
"p$	c #686776",
"q$	c #5B5A68",
"r$	c #9C9AB9",
"s$	c #A7A6C7",
"t$	c #B3B2D5",
"u$	c #BDBBE0",
"v$	c #C6C3E9",
"w$	c #CBC8EF",
"x$	c #CFCCF3",
"y$	c #D2D0F6",
"z$	c #D6D4FA",
"A$	c #D9D6FB",
"B$	c #D9D7FB",
"C$	c #D8D6F9",
"D$	c #D6D4F6",
"E$	c #D1CFF0",
"F$	c #C8C6E6",
"G$	c #BDBCD9",
"H$	c #B0AEC9",
"I$	c #A09EB6",
"J$	c #8B8A9E",
"K$	c #737282",
"L$	c #666574",
"M$	c #B4B2D4",
"N$	c #BEBCDF",
"O$	c #C6C3E7",
"P$	c #CBC9EE",
"Q$	c #D0CDF3",
"R$	c #D3D1F6",
"S$	c #D8D5FA",
"T$	c #D8D6FA",
"U$	c #D9D6FA",
"V$	c #DAD7FA",
"W$	c #D8D6F7",
"X$	c #D5D2F3",
"Y$	c #CECCEB",
"Z$	c #C4C2E0",
"`$	c #B8B7D2",
" %	c #A9A8C0",
".%	c #9695AB",
"+%	c #7F7E8F",
"@%	c #6A6977",
"#%	c #6B6A78",
"$%	c #9C9BB8",
"%%	c #A8A7C5",
"&%	c #B4B1D1",
"*%	c #BDBBDC",
"=%	c #C4C2E4",
"-%	c #CBC9EC",
";%	c #D0CEF1",
">%	c #D5D2F6",
",%	c #D7D4F7",
"'%	c #D8D5F8",
")%	c #DAD8FA",
"!%	c #DAD8F9",
"~%	c #D7D5F5",
"{%	c #D3D1F0",
"]%	c #CAC8E6",
"^%	c #BFBDD9",
"/%	c #B3B1CB",
"(%	c #A1A0B6",
"_%	c #8B8B9E",
":%	c #686774",
"<%	c #9D9BB7",
"[%	c #A8A6C3",
"}%	c #B2B1CE",
"|%	c #BDBBDA",
"1%	c #C5C3E4",
"2%	c #CAC8EA",
"3%	c #D0CEEF",
"4%	c #D4D3F4",
"5%	c #D7D5F6",
"6%	c #DAD7F8",
"7%	c #DAD8F8",
"8%	c #D8D6F6",
"9%	c #D6D4F2",
"0%	c #CFCDEA",
"a%	c #C5C3DF",
"b%	c #BAB8D2",
"c%	c #ACABC2",
"d%	c #9997AB",
"e%	c #817F90",
"f%	c #6C6B78",
"g%	c #6E6D7B",
"h%	c #9E9CB6",
"i%	c #A7A5C0",
"j%	c #B2AFCC",
"k%	c #BDBAD8",
"l%	c #C4C2E1",
"m%	c #CCC9E8",
"n%	c #D0CEED",
"o%	c #D4D2F1",
"p%	c #D7D5F4",
"q%	c #D6D4F3",
"r%	c #D2D0ED",
"s%	c #CAC8E3",
"t%	c #BFBDD7",
"u%	c #B2B1C8",
"v%	c #A3A2B7",
"w%	c #8B8A9B",
"x%	c #737280",
"y%	c #676773",
"z%	c #A3A1BA",
"A%	c #AEADC7",
"B%	c #C2C0DC",
"C%	c #C9C7E4",
"D%	c #CECCEA",
"E%	c #D2D0EE",
"F%	c #D4D2EE",
"G%	c #D2D0EC",
"H%	c #CCCAE5",
"I%	c #C4C2DB",
"J%	c #B8B7CE",
"K%	c #A9A9BE",
"L%	c #9695A7",
"M%	c #7B7A88",
"N%	c #656470",
"O%	c #5C5C66",
"P%	c #A3A1B8",
"Q%	c #ACABC3",
"R%	c #B6B5CE",
"S%	c #C0BED9",
"T%	c #C7C5E0",
"U%	c #CBC9E4",
"V%	c #CDCBE6",
"W%	c #CBCAE4",
"X%	c #C5C4DD",
"Y%	c #BDBBD3",
"Z%	c #B1AFC5",
"`%	c #A19FB2",
" &	c #8A8A9A",
".&	c #6F6E7B",
"+&	c #65646F",
"@&	c #ABAABF",
"#&	c #B5B3CA",
"$&	c #BEBCD5",
"%&	c #C4C2DA",
"&&	c #C5C3DB",
"*&	c #C2C0D8",
"=&	c #BBBBD0",
"-&	c #B2B0C5",
";&	c #A6A4B7",
">&	c #9493A3",
",&	c #7D7D89",
"'&	c #666570",
")&	c #54545C",
"!&	c #9F9DB1",
"~&	c #A7A6BB",
"{&	c #B2B0C7",
"]&	c #B9B7CE",
"^&	c #BAB8CE",
"/&	c #B7B5CB",
"(&	c #B0B0C3",
"_&	c #A7A6B8",
":&	c #9B99AA",
"<&	c #878694",
"[&	c #71717C",
"}&	c #52515A",
"|&	c #A5A4B7",
"1&	c #ABAABD",
"2&	c #AAA9BB",
"3&	c #A5A4B6",
"4&	c #9C9AAB",
"5&	c #8E8C9B",
"6&	c #797884",
"7&	c #686871",
"8&	c #505058",
"9&	c #A09FB0",
"0&	c #9C9BAC",
"a&	c #9A99A8",
"b&	c #9595A4",
"c&	c #8B8A97",
"d&	c #7C7B87",
"e&	c #6A6973",
"f&	c #585860",
"g&	c #8C8C99",
"h&	c #858491",
"i&	c #787782",
"j&	c #6A6972",
"k&	c #5B5B63",
"l&	c #444449",
"m&	c #686870",
"n&	c #595960",
"o&	c #515057",
"p&	c #4B4A51",
"            .                                                                   + @ # $ % & * = - - ; > ",
"                                                                            + , # ' ) ! ~ { ] ^ - - ; / ",
"                                                                      ( _ , : ' < [ } | 1 2 3 ; > - 4 5 ",
"                                                                  6 7 , : $ < ! 8 | 1 9 0 a b c d e f ; ",
"                                                                g @ # $ < ! h i 1 9 0 j b k l m k n n o ",
"                                                            + p q ' ) ! 8 r 1 s t j b u l v w w x y z A ",
"                                                        B C D E F ! 8 i * G t j b H l v w w I J K L M N ",
"                                                    O P Q R S T U V * G W X ; Y l v w w w J y x o Z `  .",
"                                                ..+.q @.#.$.%.&.| ] W j ; Y *.v w w w J x x =.K -.;.>.,.",
"                                            '.+.).!.~.{.].^./.(.s _.; :.l v w w w J J x =.=.<.[.}.|.1.2.",
"                                        3.+.4.5.$ 6.7.8.9.] 0.3 a.:.l v w w J J x x =.<.<.b.b.c.d.e.f.g.",
"                                    3.h.@ i.' j.U k.i ] l.m.a./ n.o.w w J J x x =.<.<.b.b.c.c.p.q.r.s.t.",
"                                u.v.@ !.w.< U k.| * x.m.a.b n.m w w J J x x =.=.<.b.b.c.c.p.y.z.A.B.C.D.",
"                            E.3.F.G.H.I.$.k.8.* G W j J.d m K.w J J x L.=.=.<.b.b.c.c.p.y.y.M.N.O.P.Q.R.",
"                        S.T.U.V.W.#.$.X.Y.9.] 0.Z.`. +m J J J J x =.=..+<.++@+c.c.p.p.y.M.#+$+%+&+*+=+-+",
"                      ).;+# >+,+U ].V 1 G 0._.`. +'+J )+x x =.=.<.<.b.b.@+!+p.~+y.{+M.]+^+/+(+_+:+<+[+}+",
"                        $.|+1+2+3+4+(.0.m.5 5+d x x x =.=.=.<.++b.b.c.c.p.~+y.{+M.]+^+6+7+8+9+0+a+b+c+d+",
"                          9.e+/.f+G 3 a./ '+k x =.=.=.<.<.++b.@+c.!+p.y.y.{+M.#+^+6+7+g+h+i+j+k+l+m+n+o+",
"                          f p+j _.4 q+r+s+x [.=.<.<.++b.b.c.!+p.p.~+{+M.#+#+]+6+7+g+t+u+v+w+x+y+z+A+B+C+",
"                            D+E+[.K K F+[.[.[.G+b.b.@+c.!+p.~+y.y.M.#+]+^+^+7+g+t+u+H+I+J+K+L+M+N+O+P+Q+",
"                            R+S+T+U+V+G+G+W+d.X+Y+p.p.y.Z+`+ @#+]+^+6+7+g+t+H+H+.@.@+@+@@@#@$@%@&@*@=@-@",
"                              ;@>@,@'@)@!@d.~@Y+~@z.{+M.{@]@^@/@7+7+g+t+H+H+.@.@(@(@_@:@<@[@}@|@1@2@3@4@",
"                                5@6@7@8@9@q.~@0@z.a@#+]+b@c@d@e@f@t+H+g@.@.@(@(@h@i@_@j@k@l@m@n@o@p@q@r@",
"                                s@t@u@v@w@A.N.a@x@/+y@7+z@A@B@C@D@E@.@(@(@(@h@h@i@F@G@H@I@J@K@L@M@N@O@P@",
"                                  Q@R@S@T@U@V@W@/+/+8+t+X@Y@Z@`@ #.#J+h@h@i@i@+#+#@###$#%#&#*#=#-#;#r@>#",
"                                    ,#'#)#!#~#_+E@E@h+v+{#]#^#/#(#_#:#i@i@+#<#[#}#|#1#2#3#4#5#6#7#8#9#  ",
"                                      0#a#b#c#x+j+i+d#d#d#e#f#g#h#i#j#+#[#k#k#l#l#m#n#o#p#q#r#s#t#u#v#  ",
"                                        w#x#l+y#z#A#e#B#B#_@F@+#:@@#[#C#k#D#D#E#F#G#H#I#J#K#L#M#N#O#    ",
"                                        P#Q#R#S#T#U#V#W#X#F@@#}#C#k#Y#D#Z#`# $.$+$@$#$$$%$&$*$=$-$;$    ",
"                                          >$,$'$)$!$~${$]$^$}#}#l#D#Z#`#/$($_$:$<$[$}$|$1$2$3$4$5$      ",
"                                            6$7$8$9$0$a$$#1#b$c$E# $d$($e$f$g$h$i$j$k$l$m$n$o$p$q$      ",
"                                              r$s$t$u$v$w$x$y$+$z$d$f$A$A$B$C$D$E$F$G$H$I$J$K$L$        ",
"                                                M@=#M$N$O$P$Q$R$h$S$T$U$B$V$W$X$Y$Z$`$ %.%+%@%#%        ",
"                                                  $%%%&%*%=%-%;%>%,%'%V$)%!%~%{%]%^%/%(%_%K$:%          ",
"                                                    <%[%}%|%1%2%3%4%5%6%7%8%9%0%a%b%c%d%e%f%g%          ",
"                                                      h%i%j%k%l%m%n%o%p%p%q%r%s%t%u%v%w%x%y%            ",
"                                                          z%A%`$B%C%D%E%F%G%H%I%J%K%L%M%N%O%            ",
"                                                            P%Q%R%S%T%U%V%W%X%Y%Z%`% &.&+&              ",
"                                                              (%@&#&$&%&&&*&=&-&;&>&,&'&)&              ",
"                                                                !&~&{&]&^&/&(&_&:&<&[&}&                ",
"                                                                    |&1&1&2&3&4&5&6&7&8&                ",
"                                                                      9&0&a&b&c&d&e&f&                  ",
"                                                                          g&h&i&j&k&l&                  ",
"                                                                            i&m&n&o&                    ",
"                                                                                p&                      ",
"                                                                                                        ",
"                                                                                                        ",
"                                                                                                        ",
"                                                                                                        ",
"                                                                                                        ",
"                                                                                                        ",
"                                                                                                        ",
"                                                                                                        ",
"                                                                                                        ",
"                                                                                                        ",
"                                                                                                        ",
"                                                                                                        "};
