/* XPM */
static char * c521_xpm[] = {
"44 12 454 2",
"  	c None",
". 	c #C3BFFF",
"+ 	c #C2BDFE",
"@ 	c #C0BCFD",
"# 	c #C1BDFC",
"$ 	c #C2BEFC",
"% 	c #C3BFFC",
"& 	c #C4C0FC",
"* 	c #C5C1FD",
"= 	c #C6C2FD",
"- 	c #C7C3FD",
"; 	c #C8C4FD",
"> 	c #C8C5FD",
", 	c #C9C5FD",
"' 	c #CAC6FD",
") 	c #CBC8FD",
"! 	c #CCC8FD",
"~ 	c #CCC9FD",
"{ 	c #CDCAFD",
"] 	c #CECAFD",
"^ 	c #CECBFD",
"/ 	c #D0CDFD",
"( 	c #D1CDFD",
"_ 	c #D1CEFD",
": 	c #D2CFFD",
"< 	c #D3D0FD",
"[ 	c #D4D1FD",
"} 	c #D5D2FD",
"| 	c #D6D3FD",
"1 	c #D6D4FD",
"2 	c #D7D4FD",
"3 	c #D8D5FD",
"4 	c #D9D7FD",
"5 	c #DAD8FD",
"6 	c #DBD8FD",
"7 	c #DBD9FD",
"8 	c #DCDAFD",
"9 	c #DDDBFC",
"0 	c #DEDCFC",
"a 	c #DFDDFC",
"b 	c #E0DEFC",
"c 	c #DFDDFA",
"d 	c #DDDCF7",
"e 	c #C5C0FF",
"f 	c #C3BFFE",
"g 	c #C0BCFB",
"h 	c #C1BDFA",
"i 	c #C2BEFB",
"j 	c #C2BFFB",
"k 	c #C5C2FC",
"l 	c #C6C2FC",
"m 	c #C7C3FC",
"n 	c #C7C4FC",
"o 	c #C9C5FC",
"p 	c #C9C6FD",
"q 	c #CFCBFD",
"r 	c #DAD7FC",
"s 	c #DBD8FC",
"t 	c #DBD9FC",
"u 	c #DCDAFC",
"v 	c #DDDBFB",
"w 	c #DEDCFB",
"x 	c #DEDCFA",
"y 	c #DEDCF9",
"z 	c #DCDAF5",
"A 	c #C6C1FF",
"B 	c #BFBBF8",
"C 	c #BEBAF6",
"D 	c #BFBBF6",
"E 	c #C1BDF7",
"F 	c #C2BEF8",
"G 	c #C4C0FA",
"H 	c #C4C1FA",
"I 	c #C6C2FA",
"J 	c #C6C3FA",
"K 	c #C8C4FB",
"L 	c #C9C6FC",
"M 	c #CAC7FC",
"N 	c #CBC7FC",
"O 	c #CBC8FC",
"P 	c #CCC9FC",
"Q 	c #CDC9FC",
"R 	c #CFCCFD",
"S 	c #D6D4FC",
"T 	c #D7D4FC",
"U 	c #D8D5FC",
"V 	c #D8D6FC",
"W 	c #D9D7FC",
"X 	c #DAD8FC",
"Y 	c #DAD8FA",
"Z 	c #DBD9FA",
"` 	c #DBD9F9",
" .	c #DBD9F7",
"..	c #DCDAF7",
"+.	c #DBD9F6",
"@.	c #DAD8F4",
"#.	c #D9D8F2",
"$.	c #D8D6F0",
"%.	c #BAB7F2",
"&.	c #B9B5EE",
"*.	c #BAB6F0",
"=.	c #BCB8F1",
"-.	c #BDBAF2",
";.	c #BFBCF3",
">.	c #C2BEF6",
",.	c #C3C0F7",
"'.	c #C5C1F7",
").	c #C6C2F8",
"!.	c #C8C4F9",
"~.	c #C8C5F9",
"{.	c #C9C6F9",
"].	c #CAC6FA",
"^.	c #CBC8FA",
"/.	c #CCC9FA",
"(.	c #CDCAFA",
"_.	c #CFCCFC",
":.	c #D0CCFC",
"<.	c #D0CDFC",
"[.	c #D1CEFC",
"}.	c #D2CFFC",
"|.	c #D3D0FC",
"1.	c #D4D1FC",
"2.	c #D4D2FC",
"3.	c #D5D2FC",
"4.	c #D5D3FB",
"5.	c #D6D3FA",
"6.	c #D7D4FA",
"7.	c #D7D5FA",
"8.	c #D7D5F9",
"9.	c #D8D5F9",
"0.	c #D8D5F8",
"a.	c #D7D5F7",
"b.	c #D9D7F7",
"c.	c #D9D7F6",
"d.	c #D8D6F4",
"e.	c #D7D5F3",
"f.	c #D7D5F1",
"g.	c #D5D4EF",
"h.	c #D4D2EC",
"i.	c #D3D1E9",
"j.	c #D1CFE7",
"k.	c #B7B3EC",
"l.	c #B0ADE4",
"m.	c #B1AEE4",
"n.	c #B4B1E7",
"o.	c #B7B3E8",
"p.	c #B9B6EB",
"q.	c #BBB7ED",
"r.	c #BDBAEF",
"s.	c #BEBAEF",
"t.	c #C0BDF1",
"u.	c #C2BEF2",
"v.	c #C4C0F4",
"w.	c #C5C2F5",
"x.	c #C6C4F5",
"y.	c #C8C5F6",
"z.	c #CAC7F6",
"A.	c #CBC8F6",
"B.	c #CCC9F7",
"C.	c #CCCAF7",
"D.	c #CDCBF7",
"E.	c #CECBF7",
"F.	c #CECCF7",
"G.	c #D0CDF7",
"H.	c #D0CEF7",
"I.	c #D1CEF7",
"J.	c #D2CFF7",
"K.	c #D2D0F6",
"L.	c #D3D0F5",
"M.	c #D4D1F6",
"N.	c #D4D2F5",
"O.	c #D5D2F4",
"P.	c #D4D2F3",
"Q.	c #D3D1F1",
"R.	c #D4D1EF",
"S.	c #D2D1EE",
"T.	c #D1CFEC",
"U.	c #D0CFE9",
"V.	c #CFCDE7",
"W.	c #CDCBE4",
"X.	c #CBC9E1",
"Y.	c #C7C5DC",
"Z.	c #C4C3D8",
"`.	c #A6A3D6",
" +	c #A7A3D5",
".+	c #AAA6D9",
"++	c #ADA9DC",
"@+	c #AFABDE",
"#+	c #B1AEE0",
"$+	c #B4B0E2",
"%+	c #B6B3E5",
"&+	c #B8B5E6",
"*+	c #BAB7E8",
"=+	c #BCB9E9",
"-+	c #BEBBEB",
";+	c #C0BCEC",
">+	c #C2BEED",
",+	c #C3C0EE",
"'+	c #C5C1EF",
")+	c #C5C2F0",
"!+	c #C6C3F0",
"~+	c #C7C4F0",
"{+	c #C8C5F0",
"]+	c #C9C6F0",
"^+	c #C9C7F0",
"/+	c #CAC7F0",
"(+	c #CCC9F0",
"_+	c #CCCAF0",
":+	c #CCCBF0",
"<+	c #CCCBEE",
"[+	c #CDCBEE",
"}+	c #CFCCEF",
"|+	c #CECCED",
"1+	c #CECBEC",
"2+	c #CECBEB",
"3+	c #CCCAE9",
"4+	c #CCCAE6",
"5+	c #CBC9E5",
"6+	c #C9C7E3",
"7+	c #C7C6DF",
"8+	c #C7C5DD",
"9+	c #C3C2DA",
"0+	c #C1C0D6",
"a+	c #BFBDD2",
"b+	c #BBBACE",
"c+	c #B7B6C9",
"d+	c #9693C1",
"e+	c #9B98C6",
"f+	c #9F9CCA",
"g+	c #A4A1CF",
"h+	c #A6A4D2",
"i+	c #A9A6D5",
"j+	c #ACA9D8",
"k+	c #B0ADDB",
"l+	c #B2AEDD",
"m+	c #B4B1DF",
"n+	c #B5B2E0",
"o+	c #B8B4E2",
"p+	c #B9B6E3",
"q+	c #BBB7E4",
"r+	c #BCB9E5",
"s+	c #BEBAE5",
"t+	c #BFBBE6",
"u+	c #C0BDE7",
"v+	c #C0BEE7",
"w+	c #C2BFE7",
"x+	c #C2C0E7",
"y+	c #C4C1E8",
"z+	c #C5C2E8",
"A+	c #C6C3E8",
"B+	c #C5C3E7",
"C+	c #C6C4E7",
"D+	c #C6C4E6",
"E+	c #C6C4E5",
"F+	c #C6C5E4",
"G+	c #C6C4E3",
"H+	c #C5C3E1",
"I+	c #C4C2E0",
"J+	c #C4C2DE",
"K+	c #C2C0DA",
"L+	c #C1BFD9",
"M+	c #BFBED6",
"N+	c #BEBCD4",
"O+	c #BBBAD1",
"P+	c #B8B7CC",
"Q+	c #B4B3C7",
"R+	c #B0AFC1",
"S+	c #ABAABB",
"T+	c #A6A5B5",
"U+	c #908EB8",
"V+	c #908DB6",
"W+	c #928FB9",
"X+	c #9693BD",
"Y+	c #9996C0",
"Z+	c #9C9AC4",
"`+	c #A29EC9",
" @	c #A5A2CD",
".@	c #A8A5D0",
"+@	c #AAA8D2",
"@@	c #ACA9D4",
"#@	c #AFACD7",
"$@	c #B2AFD8",
"%@	c #B3AFD8",
"&@	c #B5B2DA",
"*@	c #B6B3DB",
"=@	c #B7B4DC",
"-@	c #B8B6DC",
";@	c #B9B6DD",
">@	c #B9B7DC",
",@	c #BBB9DD",
"'@	c #BCBADE",
")@	c #BDBADE",
"!@	c #BDBBDE",
"~@	c #BDBADC",
"{@	c #BEBBDC",
"]@	c #BEBCDC",
"^@	c #BEBBDB",
"/@	c #BDBBDA",
"(@	c #BDBCD9",
"_@	c #BCBAD6",
":@	c #BAB9D4",
"<@	c #B9B8D1",
"[@	c #B6B4CD",
"}@	c #B5B3CA",
"|@	c #B2B1C7",
"1@	c #AFAFC3",
"2@	c #ABAABE",
"3@	c #A8A7B9",
"4@	c #A2A0B1",
"5@	c #9D9CAC",
"6@	c #9796A5",
"7@	c #9493A1",
"8@	c #9F9DCA",
"9@	c #9592BB",
"0@	c #8D8BB1",
"a@	c #8A88AE",
"b@	c #8A88AD",
"c@	c #8C89AF",
"d@	c #908DB2",
"e@	c #9593B8",
"f@	c #9B98BE",
"g@	c #9D9BC2",
"h@	c #A19EC5",
"i@	c #A5A2C9",
"j@	c #A7A4CA",
"k@	c #A8A5CB",
"l@	c #ABA8CD",
"m@	c #ACAACF",
"n@	c #ADAACF",
"o@	c #AEACD0",
"p@	c #B0ADD0",
"q@	c #B0AED0",
"r@	c #B1AFD1",
"s@	c #B2B0D2",
"t@	c #B2B0D1",
"u@	c #B2B0D0",
"v@	c #B3B0CF",
"w@	c #B3B1CF",
"x@	c #B3B2CF",
"y@	c #B3B0CD",
"z@	c #B2B0CC",
"A@	c #B1B0CB",
"B@	c #AFAEC8",
"C@	c #AEADC5",
"D@	c #ADACC3",
"E@	c #AAA9C0",
"F@	c #A7A5BB",
"G@	c #A6A4B8",
"H@	c #A1A0B3",
"I@	c #9C9CAD",
"J@	c #9695A6",
"K@	c #9291A0",
"L@	c #8A8998",
"M@	c #8F8E9C",
"N@	c #91909D",
"O@	c #9999A6",
"P@	c #B1AEDF",
"Q@	c #A5A2CF",
"R@	c #9895BE",
"S@	c #8C89AE",
"T@	c #827FA1",
"U@	c #797797",
"V@	c #767593",
"W@	c #807E9E",
"X@	c #8B88AA",
"Y@	c #8D8BAC",
"Z@	c #8F8DAF",
"`@	c #9391B3",
" #	c #9694B6",
".#	c #9996B8",
"+#	c #9C99BA",
"@#	c #9E9CBD",
"##	c #9E9CBC",
"$#	c #A09EBD",
"%#	c #A19FBF",
"&#	c #A2A0BF",
"*#	c #A3A1C0",
"=#	c #A5A3C1",
"-#	c #A5A3C0",
";#	c #A5A3BF",
">#	c #A4A2BD",
",#	c #A4A3BD",
"'#	c #A4A2BC",
")#	c #A2A0BA",
"!#	c #A1A0B8",
"~#	c #A1A0B7",
"{#	c #9D9CB2",
"]#	c #9D9BB1",
"^#	c #9B9AAD",
"/#	c #9695A8",
"(#	c #9190A2",
"_#	c #8F8E9F",
":#	c #8B8A99",
"<#	c #868593",
"[#	c #7F7E8B",
"}#	c #7A7A86",
"|#	c #72717D",
"1#	c #9896A4",
"2#	c #ADACBB",
"3#	c #BDBCCC",
"4#	c #B7B3E5",
"5#	c #ACA9D6",
"6#	c #9E9CC6",
"7#	c #918FB3",
"8#	c #6E6C88",
"9#	c #6A6882",
"0#	c #817F9B",
"a#	c #84829E",
"b#	c #84829D",
"c#	c #918FA8",
"d#	c #9694AD",
"e#	c #9593AC",
"f#	c #9492AC",
"g#	c #9290AB",
"h#	c #9290AA",
"i#	c #9391AA",
"j#	c #9492AA",
"k#	c #9391A9",
"l#	c #9290A7",
"m#	c #9291A6",
"n#	c #9391A7",
"o#	c #918FA5",
"p#	c #8D8C9F",
"q#	c #878698",
"r#	c #828193",
"s#	c #808090",
"t#	c #7E7D8D",
"u#	c #7B7A89",
"v#	c #C0BFCF",
"w#	c #D2D1E1",
"x#	c #B3B0DF",
"y#	c #A7A4D0",
"z#	c #9997BE",
"A#	c #8A87AB",
"B#	c #757391",
"C#	c #65637B",
"D#	c #68677F",
"E#	c #B5B4C3",
"F#	c #B7B6C4",
"G#	c #B0AFBF",
"H#	c #A8A6BA",
"I#	c #A3A0B7",
"J#	c #9E9DB4",
"K#	c #9D9BB2",
"L#	c #9C9AB1",
"M#	c #9B9AAF",
"N#	c #9C99AF",
"O#	c #9C9BAE",
"P#	c #9F9DB0",
"Q#	c #9F9EB1",
"R#	c #9695A9",
"S#	c #868596",
"T#	c #BABAC8",
"U#	c #DFDEEF",
". + @ # # $ % & * * = - ; > , ' ) ! ~ { ] ^ / ( _ : < [ } | 1 2 3 4 5 6 7 8 9 0 a b c d ",
"e f # g h i j & k l m n o p ' ) ! ~ { ^ q / _ _ : < [ } | 1 2 3 4 r s t u 9 v w x y d z ",
"A # B C D E F G H I J K L M N O P Q ^ R / _ _ : < [ } | S T U V W X Y Z Z `  ...+.@.#.$.",
"i %.&.*.=.-.;.>.,.'.).!.~.{.].^./.(._.:.<.[.}.|.1.2.3.4.5.6.7.8.9.0.a.b.c.d.e.f.g.h.i.j.",
"k.l.m.n.o.p.q.r.s.t.u.v.w.x.y.z.z.A.B.C.D.E.F.G.H.I.J.K.L.M.N.N.O.P.Q.R.S.T.U.V.W.X.Y.Z.",
"`. +.+++@+#+$+%+&+*+=+-+;+>+,+'+)+!+~+{+]+^+/+(+(+_+:+<+[+}+|+1+2+3+4+5+6+7+8+9+0+a+b+c+",
"d+e+f+g+h+i+j+k+l+m+n+o+p+q+r+s+t+u+v+w+x+y+z+A+B+B+C+D+E+F+G+H+I+J+K+L+M+N+O+P+Q+R+S+T+",
"U+V+W+X+Y+Z+`+ @.@+@@@#@$@%@&@*@=@-@;@>@,@'@)@!@~@{@]@^@/@(@_@:@:@<@[@}@|@1@2@3@4@5@6@7@",
"8@9@0@a@b@c@d@e@f@g@h@i@j@k@l@m@n@o@p@q@r@s@t@u@v@w@x@y@z@A@B@C@D@E@F@G@H@I@J@K@L@M@N@O@",
"P@Q@R@S@T@U@V@W@X@Y@Z@`@ #.#+#@###$#%#&#*#=#-#;#>#,#'#)#!#~#{#]#^#/#(#_#:#<#[#}#|#1#2#3#",
"4#5#6#7#W@8#9#        0#a#b#c#d#e#f#g#h#h#i#j#k#l#m#n#m#o#p#q#r#s#t#u#              v#w#",
"x#y#z#A#B#C#D#              E#F#G#H#I#J#K#L#M#N#O#P#Q#M#R#p#S#                      T#U#"};
