/* XPM */
static char * c522_xpm[] = {
"44 45 628 2",
"  	c None",
". 	c #AFACD8",
"+ 	c #A4A1CA",
"@ 	c #9391B5",
"# 	c #807E9D",
"$ 	c #686780",
"% 	c #5E5C73",
"& 	c #E7E7EB",
"* 	c #E4E2E9",
"= 	c #DCD9E6",
"- 	c #D3D0E1",
"; 	c #CBC8DE",
"> 	c #C8C6DF",
", 	c #C6C3DF",
"' 	c #C5C3DE",
") 	c #C5C4DD",
"! 	c #C7C5DD",
"~ 	c #C8C6DD",
"{ 	c #C7C4DD",
"] 	c #BFBDD8",
"^ 	c #B7B5CE",
"/ 	c #B0AEC6",
"( 	c #A6A5BA",
"_ 	c #9A98AC",
": 	c #E0DFEE",
"< 	c #AAA8D2",
"[ 	c #9D9BC1",
"} 	c #8B89AA",
"| 	c #75748F",
"1 	c #636178",
"2 	c #66647B",
"3 	c #FBFBFC",
"4 	c #F8F6FB",
"5 	c #F0EEFA",
"6 	c #EAE7FA",
"7 	c #E3E1F9",
"8 	c #DEDCF9",
"9 	c #DBD8F9",
"0 	c #DAD8F8",
"a 	c #DCDAF8",
"b 	c #DDDBF8",
"c 	c #DDDBF7",
"d 	c #D8D7F4",
"e 	c #D2D0EC",
"f 	c #CCCAE4",
"g 	c #C5C3DC",
"h 	c #BAB9D0",
"i 	c #AAA9BD",
"j 	c #9B9AAC",
"k 	c #BCBBC8",
"l 	c #A4A1C9",
"m 	c #9593B6",
"n 	c #7F7D9A",
"o 	c #69677F",
"p 	c #5F5E73",
"q 	c #FFFFFF",
"r 	c #FFFEFF",
"s 	c #FCFAFF",
"t 	c #F5F3FE",
"u 	c #EEEAFE",
"v 	c #E7E5FE",
"w 	c #E2E0FE",
"x 	c #DDDBFD",
"y 	c #DCDAFB",
"z 	c #DEDBFC",
"A 	c #DEDCFC",
"B 	c #DDDBFA",
"C 	c #DAD8F5",
"D 	c #D6D4EF",
"E 	c #D1CFE9",
"F 	c #C9C8E1",
"G 	c #BEBDD4",
"H 	c #B0AFC3",
"I 	c #9F9FB0",
"J 	c #9B99BC",
"K 	c #8886A4",
"L 	c #706E88",
"M 	c #5C5A6F",
"N 	c #FBF8FF",
"O 	c #F5F2FF",
"P 	c #EEEBFF",
"Q 	c #E7E5FF",
"R 	c #E3E0FE",
"S 	c #DEDCFD",
"T 	c #DDDBFC",
"U 	c #DFDDFB",
"V 	c #DEDCFA",
"W 	c #DBDAF6",
"X 	c #D9D7F2",
"Y 	c #D5D4ED",
"Z 	c #CFCEE6",
"` 	c #C8C7DD",
" .	c #BBBACE",
"..	c #A8A6B8",
"+.	c #9492B3",
"@.	c #7E7C98",
"#.	c #66647A",
"$.	c #4D4C5D",
"%.	c #FEFDFF",
"&.	c #FAF7FF",
"*.	c #F3F1FF",
"=.	c #ECEAFF",
"-.	c #E6E4FF",
";.	c #E1DFFE",
">.	c #DFDDFC",
",.	c #E0DEFB",
"'.	c #DFDDFA",
").	c #DEDCF7",
"!.	c #DBD9F3",
"~.	c #D7D6EE",
"{.	c #D2D0E8",
"].	c #CCCAE0",
"^.	c #C0BFD3",
"/.	c #ADACBE",
"(.	c #A09FAF",
"_.	c #8C8AA8",
":.	c #74738B",
"<.	c #626175",
"[.	c #373742",
"}.	c #FDFCFF",
"|.	c #F8F6FF",
"1.	c #F2F0FF",
"2.	c #EBE9FF",
"3.	c #E5E3FF",
"4.	c #E0DEFE",
"5.	c #E0DEFC",
"6.	c #E1DFFB",
"7.	c #E0DFFA",
"8.	c #DFDDF7",
"9.	c #DCDAF3",
"0.	c #D8D6EE",
"a.	c #D5D3E9",
"b.	c #CDCCE1",
"c.	c #C2C1D4",
"d.	c #B2B1C2",
"e.	c #A2A1B0",
"f.	c #82809B",
"g.	c #6B6A80",
"h.	c #4F4E5E",
"i.	c #FDFBFF",
"j.	c #F7F4FF",
"k.	c #F1EEFF",
"l.	c #EAE8FF",
"m.	c #E4E2FE",
"n.	c #E0DEFD",
"o.	c #E0DFFC",
"p.	c #E1DFFC",
"q.	c #E2E0FB",
"r.	c #E1E0FA",
"s.	c #E1DFF8",
"t.	c #DDDCF4",
"u.	c #DAD8EF",
"v.	c #D7D5EB",
"w.	c #CFCEE2",
"x.	c #C6C5D7",
"y.	c #B7B6C7",
"z.	c #A3A2B0",
"A.	c #76758D",
"B.	c #646376",
"C.	c #494756",
"D.	c #FEFEFF",
"E.	c #FBF9FF",
"F.	c #F4F2FF",
"G.	c #EFEDFF",
"H.	c #E8E6FF",
"I.	c #E3E1FE",
"J.	c #E1E0FC",
"K.	c #E2E0FC",
"L.	c #E3E1FB",
"M.	c #E3E2FB",
"N.	c #E0DFF6",
"O.	c #DDDCF2",
"P.	c #D9D8ED",
"Q.	c #D3D2E5",
"R.	c #CBCADC",
"S.	c #BEBDCE",
"T.	c #ABABB8",
"U.	c #6C6B80",
"V.	c #555465",
"W.	c #EEECFF",
"X.	c #E8E6FE",
"Y.	c #E3E1FC",
"Z.	c #E3E2FC",
"`.	c #E4E3FC",
" +	c #E5E3FB",
".+	c #E3E2F8",
"++	c #E2E0F5",
"@+	c #DDDCF0",
"#+	c #D9D8EB",
"$+	c #D3D1E3",
"%+	c #C8C7D7",
"&+	c #B6B6C3",
"*+	c #9F9EAA",
"=+	c #5E5D6F",
"-+	c #42414E",
";+	c #F1EFFF",
">+	c #EBEAFF",
",+	c #E6E4FE",
"'+	c #E4E2FC",
")+	c #E5E3FC",
"!+	c #E5E4FC",
"~+	c #E6E4FC",
"{+	c #E6E5FB",
"]+	c #E5E3F9",
"^+	c #E3E1F5",
"/+	c #DFDEF0",
"(+	c #DBDAEB",
"_+	c #D5D4E4",
":+	c #CBCAD9",
"<+	c #BCBAC8",
"[+	c #A9A8B4",
"}+	c #5C5A6B",
"|+	c #F7F5FF",
"1+	c #EAE9FF",
"2+	c #E6E5FC",
"3+	c #E7E5FC",
"4+	c #E7E6FB",
"5+	c #E6E5F9",
"6+	c #E4E3F6",
"7+	c #E0DFF1",
"8+	c #DCDCEC",
"9+	c #D6D5E5",
"0+	c #CECDDB",
"a+	c #C1C0CD",
"b+	c #AEAEB8",
"c+	c #F4F3FF",
"d+	c #E9E8FF",
"e+	c #E5E3FD",
"f+	c #E7E6FC",
"g+	c #E8E6FC",
"h+	c #E8E7FB",
"i+	c #E8E7FA",
"j+	c #E6E5F7",
"k+	c #E3E2F3",
"l+	c #E0DFEF",
"m+	c #DBDAE9",
"n+	c #D3D2E0",
"o+	c #C8C7D3",
"p+	c #B6B5BF",
"q+	c #AAAAB2",
"r+	c #F3F2FF",
"s+	c #E8E7FC",
"t+	c #E9E8FC",
"u+	c #EAE9FB",
"v+	c #E8E7F8",
"w+	c #E5E5F4",
"x+	c #E2E1F0",
"y+	c #DEDDEB",
"z+	c #D7D7E3",
"A+	c #CECDD9",
"B+	c #BCBBC5",
"C+	c #AAA9B1",
"D+	c #FAF8FF",
"E+	c #EDEBFF",
"F+	c #E8E7FE",
"G+	c #EAE8FC",
"H+	c #EAE9FC",
"I+	c #EBEAFC",
"J+	c #EBEAFB",
"K+	c #EAE9F9",
"L+	c #E8E7F5",
"M+	c #E4E3F0",
"N+	c #DFDEEB",
"O+	c #D9D8E4",
"P+	c #D0CFDA",
"Q+	c #C0BFC8",
"R+	c #ACACB3",
"S+	c #FEFCFF",
"T+	c #F8F7FF",
"U+	c #E7E6FD",
"V+	c #ECEBFC",
"W+	c #ECEBFB",
"X+	c #EBEAF9",
"Y+	c #E9E9F6",
"Z+	c #E5E4F1",
"`+	c #E1E0EC",
" @	c #DCDBE6",
".@	c #D3D3DC",
"+@	c #C5C5CD",
"@@	c #B1B0B7",
"#@	c #A5A5AB",
"$@	c #F6F4FF",
"%@	c #F0EFFF",
"&@	c #E9E7FC",
"*@	c #EDECFC",
"=@	c #EEEDFB",
"-@	c #EDECFA",
";@	c #EBEBF8",
">@	c #E8E7F3",
",@	c #E5E4EF",
"'@	c #E0E0E9",
")@	c #D9D8E1",
"!@	c #CFCFD6",
"~@	c #BBBBC1",
"{@	c #A7A7AC",
"]@	c #EAE9FE",
"^@	c #EEEEFC",
"/@	c #EFEEFC",
"(@	c #EFEEFB",
"_@	c #EDEDF8",
":@	c #EBEAF4",
"<@	c #E7E7F0",
"[@	c #E3E2EB",
"}@	c #DCDCE3",
"|@	c #D3D3D9",
"1@	c #C2C2C7",
"2@	c #ADADB1",
"3@	c #EEEDFF",
"4@	c #EAE8FD",
"5@	c #EEEDFC",
"6@	c #F0EFFC",
"7@	c #F0EFFB",
"8@	c #EFEFFA",
"9@	c #EDECF6",
"0@	c #E9E9F1",
"a@	c #E5E5ED",
"b@	c #E0E0E7",
"c@	c #D7D7DD",
"d@	c #C8C8CD",
"e@	c #B3B3B7",
"f@	c #F9F8FF",
"g@	c #EDECFE",
"h@	c #F1F0FC",
"i@	c #F1F1FB",
"j@	c #F1F0FA",
"k@	c #EFEEF7",
"l@	c #EBEBF3",
"m@	c #E8E7EF",
"n@	c #E4E3E9",
"o@	c #DCDCE0",
"p@	c #CFCED2",
"q@	c #BBBBBE",
"r@	c #AEAEB0",
"s@	c #F1F0FF",
"t@	c #EDEBFE",
"u@	c #F0F0FC",
"v@	c #F2F1FC",
"w@	c #F3F2FC",
"x@	c #F3F2FA",
"y@	c #F2F1F8",
"z@	c #EFEFF5",
"A@	c #EDECF2",
"B@	c #E8E8EC",
"C@	c #E1E1E4",
"D@	c #D6D6D9",
"E@	c #C5C5C6",
"F@	c #B2B2B3",
"G@	c #F7F6FF",
"H@	c #F0EFFE",
"I@	c #ECEBFD",
"J@	c #F2F2FC",
"K@	c #F4F4FC",
"L@	c #F4F3FB",
"M@	c #F4F3FA",
"N@	c #F1F0F6",
"O@	c #EDEDF2",
"P@	c #EAEAEE",
"Q@	c #E4E3E7",
"R@	c #DADADD",
"S@	c #CBCBCC",
"T@	c #B9B9B9",
"U@	c #FCFBFF",
"V@	c #F5F4FF",
"W@	c #EFEEFE",
"X@	c #EDEDFC",
"Y@	c #F3F3FC",
"Z@	c #F5F4FC",
"`@	c #F5F5FC",
" #	c #F6F5FB",
".#	c #F4F4FA",
"+#	c #F2F2F6",
"@#	c #EFEEF2",
"##	c #EBEBEE",
"$#	c #E5E4E7",
"%#	c #DCDCDD",
"&#	c #CECECF",
"*#	c #BBBBBB",
"=#	c #AEAEAE",
"-#	c #FAF9FF",
";#	c #F1F1FC",
">#	c #F4F3FC",
",#	c #F6F6FC",
"'#	c #F7F6FB",
")#	c #F6F6FA",
"!#	c #F4F4F7",
"~#	c #F1F0F3",
"{#	c #EDEDEF",
"]#	c #E8E8E9",
"^#	c #DFDFE0",
"/#	c #D3D3D3",
"(#	c #BFBFBF",
"_#	c #F3F2FE",
":#	c #EFEFFC",
"<#	c #F6F5FC",
"[#	c #F7F7FC",
"}#	c #F8F7FB",
"|#	c #F8F8FA",
"1#	c #F7F7F9",
"2#	c #F4F4F5",
"3#	c #F1F1F1",
"4#	c #EBEBEB",
"5#	c #E4E4E4",
"6#	c #D9D9D9",
"7#	c #C8C8C8",
"8#	c #B5B5B5",
"9#	c #F2F1FE",
"0#	c #F8F7FC",
"a#	c #F8F8FC",
"b#	c #F9F9FB",
"c#	c #FAFAFB",
"d#	c #F8F8F9",
"e#	c #F6F6F6",
"f#	c #F2F2F3",
"g#	c #EEEEEE",
"h#	c #E6E6E6",
"i#	c #DDDDDD",
"j#	c #CDCDCD",
"k#	c #B6B6B6",
"l#	c #FCFCFF",
"m#	c #F6F5FF",
"n#	c #F2F1FB",
"o#	c #D1D1D9",
"p#	c #A7A6AC",
"q#	c #A8A7AC",
"r#	c #A8A8AC",
"s#	c #A9A8AC",
"t#	c #A9A9AC",
"u#	c #C5C5C8",
"v#	c #F0EFF3",
"w#	c #FAFAFC",
"x#	c #FBFBFB",
"y#	c #FAFAFA",
"z#	c #F8F8F8",
"A#	c #F4F4F4",
"B#	c #F0F0F0",
"C#	c #E8E8E8",
"D#	c #E1E1E1",
"E#	c #D2D2D2",
"F#	c #BCBCBC",
"G#	c #FBFBFF",
"H#	c #F5F5FF",
"I#	c #F2F1FA",
"J#	c #BBBBC0",
"K#	c #454446",
"L#	c #000000",
"M#	c #242424",
"N#	c #9D9D9E",
"O#	c #EBEBED",
"P#	c #FCFCFC",
"Q#	c #F2F2F2",
"R#	c #ECECEC",
"S#	c #E5E5E5",
"T#	c #EFEFF6",
"U#	c #B9B9BE",
"V#	c #454546",
"W#	c #181818",
"X#	c #A1A1A3",
"Y#	c #FDFDFD",
"Z#	c #F3F3F3",
"`#	c #EDEDED",
" $	c #CECECE",
".$	c #F9F9FF",
"+$	c #F4F4FD",
"@$	c #F7F6FC",
"#$	c #F1F1F6",
"$$	c #BEBEC1",
"%$	c #3B3B3B",
"&$	c #ACACAE",
"*$	c #F0F0F1",
"=$	c #F7F7F7",
"-$	c #E7E7E7",
";$	c #DEDEDE",
">$	c #D0D0D0",
",$	c #A7A7A7",
"'$	c #FDFDFF",
")$	c #F8F8FE",
"!$	c #F9F8FC",
"~$	c #F8F8FB",
"{$	c #CDCDCE",
"]$	c #C0C0C1",
"^$	c #F9F9F9",
"/$	c #F5F5F5",
"($	c #EAEAEA",
"_$	c #E2E2E2",
":$	c #D6D6D6",
"<$	c #C3C3C3",
"[$	c #ADADAD",
"}$	c #F6F6FD",
"|$	c #F5F4FB",
"1$	c #F9F9FC",
"2$	c #FAF9FC",
"3$	c #DADADA",
"4$	c #CACACA",
"5$	c #F9F9FE",
"6$	c #F5F4FA",
"7$	c #F5F5FB",
"8$	c #F7F7FB",
"9$	c #FBFAFB",
"0$	c #DCDCDC",
"a$	c #B8B8B8",
"b$	c #FEFEFE",
"c$	c #FCFBFE",
"d$	c #F3F3F9",
"e$	c #F4F4F9",
"f$	c #F5F5F9",
"g$	c #F6F6F9",
"h$	c #B7B7B7",
"i$	c #A6A6A6",
"j$	c #FAFAFE",
"k$	c #F0F0F4",
"l$	c #F1F1F5",
"m$	c #F2F2F5",
"n$	c #F3F3F5",
"o$	c #F4F4F6",
"p$	c #F5F5F6",
"q$	c #F7F7F8",
"r$	c #E0E0E0",
"s$	c #D8D8D8",
"t$	c #CCCCCC",
"u$	c #FDFCFE",
"v$	c #FAF9FE",
"w$	c #F0EFF4",
"x$	c #EBEAEF",
"y$	c #E9E9EC",
"z$	c #EAEAEC",
"A$	c #ECECEE",
"B$	c #EEEEEF",
"C$	c #EFEFF0",
"D$	c #EFEFEF",
"E$	c #E9E9E9",
"F$	c #DFDFDF",
"G$	c #C7C7C7",
"H$	c #A2A2A2",
"I$	c #EFEEF4",
"J$	c #E1E1E5",
"K$	c #DEDEE0",
"L$	c #DDDDE0",
"M$	c #DFDFE1",
"N$	c #E0E0E1",
"O$	c #E2E2E3",
"P$	c #BABABA",
"Q$	c #ACACAC",
"R$	c #989898",
"S$	c #838383",
"T$	c #E8E8ED",
"U$	c #E3E3E9",
"V$	c #E0E0E4",
"W$	c #D8D8DC",
"X$	c #D4D4D7",
"Y$	c #CCCCCF",
"Z$	c #D0D0D1",
"`$	c #D5D5D5",
" %	c #D7D7D7",
".%	c #DBDBDB",
"+%	c #D4D4D4",
"@%	c #CBCBCB",
"#%	c #C6C6C6",
"$%	c #C0C0C0",
"%%	c #AFAFAF",
"&%	c #A1A1A1",
"*%	c #8E8E8E",
"=%	c #797979",
"-%	c #D2D2D5",
";%	c #CBCBCF",
">%	c #C8C8CB",
",%	c #C3C3C5",
"'%	c #BEBEBF",
")%	c #B9B9BA",
"!%	c #B4B4B5",
"~%	c #B5B5B6",
"{%	c #BEBEBE",
"]%	c #C2C2C2",
"^%	c #C5C5C5",
"/%	c #C4C4C4",
"(%	c #C1C1C1",
"_%	c #B3B3B3",
":%	c #A8A8A8",
"<%	c #9F9F9F",
"[%	c #939393",
"}%	c #717171",
"|%	c #BCBCBE",
"1%	c #B1B1B3",
"2%	c #A7A7A8",
"3%	c #9E9E9F",
"4%	c #9B9B9B",
"5%	c #9A9A9A",
"6%	c #9E9E9E",
"7%	c #A4A4A4",
"8%	c #A5A5A5",
"9%	c #A9A9A9",
"0%	c #ABABAB",
"a%	c #B1B1B1",
"b%	c #B2B2B2",
"c%	c #B0B0B0",
"d%	c #9D9D9D",
"e%	c #909090",
"f%	c #8C8C8C",
"g%	c #767676",
"h%	c #686868",
"i%	c #868686",
"j%	c #878787",
"k%	c #8A8A8A",
"l%	c #8B8B8B",
"m%	c #919191",
"n%	c #929292",
"o%	c #949494",
"p%	c #959595",
"q%	c #969696",
"r%	c #979797",
"s%	c #999999",
"t%	c #8F8F8F",
"u%	c #898989",
"v%	c #888888",
"w%	c #858585",
"x%	c #7F7F7F",
"y%	c #7C7C7C",
"z%	c #7A7A7A",
"A%	c #7B7B7B",
"B%	c #7D7D7D",
"C%	c #7E7E7E",
"D%	c #787878",
"E%	c #757575",
"F%	c #747474",
"G%	c #737373",
"H%	c #6B6B6B",
"I%	c #6C6C6C",
"J%	c #6A6A6A",
"K%	c #6D6D6D",
". + @ # $ %                 & * = - ; > , ' ) ! ~ { ] ^ / ( _                         : ",
"< [ } | 1 2               3 3 4 5 6 7 8 9 0 a b c d e f g h i j                       k ",
"l m n o p                 q r s t u v w x y z A B C D E F G H I                         ",
"J K L M                   q r N O P Q R S T A U V W X Y Z `  ...                        ",
"+.@.#.$.                q q %.&.*.=.-.;.A A >.,.'.).!.~.{.].^./.(.                      ",
"_.:.<.[.                q q }.|.1.2.3.4.>.5.5.6.7.8.9.0.a.b.c.d.e.                      ",
"f.g.h.                q q q i.j.k.l.m.n.5.o.p.q.r.s.t.u.v.w.x.y.z.                      ",
"A.B.C.                q q D.E.F.G.H.I.5.p.J.K.L.M.7 N.O.P.Q.R.S.T.                      ",
"U.V.                  q q D.E.F.W.X.I.p.K.Y.Z.`. + +.+++@+#+$+%+&+*+                    ",
"=+-+                q q r %.|.;+>+,+K.K.Y.'+)+!+~+{+]+^+/+(+_+:+<+[+                    ",
"}+                  q q D.i.|+;+1+,+Y.Y.'+)+~+2+3+4+5+6+7+8+9+0+a+b+                    ",
"                    q q D.E.c+G.d+e+'+'+!+~+2+f+g+h+i+j+k+l+m+n+o+p+q+                  ",
"                  q q q D.N r+W.d+)+`.~+2+3+f+s+t+u+u+v+w+x+y+z+A+B+C+                  ",
"                  q q q D.D+r+E+F+~+~+3+f+g+s+G+H+I+J+K+L+M+N+O+P+Q+R+                  ",
"                  q q q S+T+1.2.U+3+f+g+s+t+H+I+I+V+W+X+Y+Z+`+ @.@+@@@#@                ",
"                q q q q s $@%@2.f+f+s+&@t+H+I+V+V+*@=@-@;@>@,@'@)@!@~@{@                ",
"                q q q q s $@G.]@s+s+t+G+I+I+V+*@*@^@/@(@_@:@<@[@}@|@1@2@                ",
"                q q q q E.c+3@4@t+t+H+I+V+V+*@5@/@/@6@7@8@9@0@a@b@c@d@e@                ",
"              q q q q D.f@*.g@H+H+H+I+V+*@*@5@/@6@6@h@i@j@k@l@m@n@o@p@q@r@              ",
"              q q q q %.T+s@t@I+I+V+*@*@5@/@6@u@h@v@v@w@x@y@z@A@B@C@D@E@F@              ",
"              q q q q i.G@H@I@I+*@*@5@5@/@6@h@h@v@J@w@K@L@M@N@O@P@Q@R@S@T@              ",
"            q q q q r U@V@W@V+*@X@5@/@/@u@h@v@v@w@Y@Z@`@ #.#+#@###$#%#&#*#=#            ",
"            q q q q r -#c+W@*@5@^@/@6@h@;#v@J@w@>#Z@`@,#'#)#!#~#{#]#^#/#(#=#            ",
"            q q q q %.-#_#/@5@/@:#6@h@v@J@w@Y@>#`@<#,#[#}#|#1#2#3#4#5#6#7#8#            ",
"          q q q q q %.f@9#6@6@6@h@v@J@w@>#K@Z@<#,#[#0#a#b#c#d#e#f#g#h#i#j#k#            ",
"          q q q q q l#m#9#6@h@h@J@n#o#p#q#r#r#s#t#u#v#w#w#x#y#z#A#B#C#D#E#F#=#          ",
"        q q q q q r G#H#v@h@v@w@Y@I#J#K#L#L#L#L#M#N#O#3 3 P#P#y#e#Q#R#S#6#7#k#          ",
"        q q q q q r G#H#v@v@w@>#K@Z@T#U#V#L#L#W#X#O#3 P#P#Y#P#y#e#Z#`#h#i# $F#          ",
"        q q q q q D..$+$J@Y@K@Z@`@<#@$#$$$%$L#&$*$3 P#P#Y#Y#P#y#=$Z#`#-$;$>$F#,$        ",
"      q q q q q q '$)$>#K@Z@`@,#@$[#a#!$~${$]$d#P#P#P#Y#Y#Y#P#x#^$/$B#($_$:$<$[$        ",
"      q q q q q D.l#}$|$|$<#,#[#a#!$1$2$w#3 P#P#Y#Y#Y#Y#Y#Y#Y#P#^$e#Q#R#5#3$4$8#        ",
"      q q q q q D.5$|$6$7$'#8$~$~$b#c#9$x#P#P#P#P#P#P#P#P#P#P#x#^$e#Q#R#5#0$ $a$        ",
"    b$q q q q D.c$@$d$e$e$f$g$1#d#d#^$y#y#x#P#y#y#y#y#y#y#y#y#^$z#/$B#4#5#0$ $h$i$      ",
"    b$q q q D.j$6$#$k$l$m$n$o$p$e#q$^$^$^$^$^$^$^$^$^$z#=$=$e#e#/$3#`#C#r$s$t$T@i$      ",
"    b$b$u$v$ #w$x$B@y$z$A$B$C$B#3#Q#Z#Z#Z#Z#Q#Q#Z#Z#Q#Q#3#3#D$g#`#E$5#F$6#>$G$k#H$      ",
"  3 !$d$I$x$& J$K$L$M$N$O$5#5#h#h#C#C#C#C#E$E$C#($E$C#-$h#h#5#_$r$i#6#/#t$<$P$Q$R$S$    ",
"  T$U$V$o@W$X$Y$t$j#&#Z$/#`$`$ %s$6#6#6#3$.%3$3$3$6#s$ % %:$+%/#>$ $@%#%$%a$%%&%*%=%    ",
"  -%;%>%,%'%)%!%~%a$*#F#{%]%]%<$^%^%#%G$7#7#G$#%#%#%^%/%<$<$(%(#*#T@h$_%%%:%<%[%S$}%    ",
"    |%1%2%3%4%5%6%&%7%8%9%Q$0%=#=#%%a%a%b%_%b%c%a%a%a%%%[$Q$0%,$7%&%d%R$[%e%f%S$g%h%    ",
"            i%j%k%k%k%l%m%n%n%o%p%q%r%R$R$s%s%r%R$r%q%o%n%m%t%f%u%v%w%x%y%z%A%y%        ",
"                      =%z%y%A%y%y%A%y%B%C%x%C%B%C%z%=%A%=%=%z%D%E%F%G%                  ",
"                                      H%H%I%J%H%K%J%J%                                  ",
"                                                                                        ",
"                                                                                        ",
"                                                                                        "};
