/* XPM */
static char * c53_xpm[] = {
"54 57 318 2",
"  	c None",
". 	c #D8D6F1",
"+ 	c #D1CFE8",
"@ 	c #C8C6DC",
"# 	c #BEBCD0",
"$ 	c #AFAEBF",
"% 	c #A09FAE",
"& 	c #B0AEB9",
"* 	c #DBDAE2",
"= 	c #F5F4F8",
"- 	c #FCFCFE",
"; 	c #FFFFFF",
"> 	c #FEFEFE",
", 	c #737373",
"' 	c #6B6B6B",
") 	c #656565",
"! 	c #D7D5EE",
"~ 	c #CFCDE4",
"{ 	c #C5C3D8",
"] 	c #B8B7C9",
"^ 	c #A8A7B7",
"/ 	c #A09FAC",
"( 	c #BAB9C5",
"_ 	c #E1E0EA",
": 	c #F6F5FB",
"< 	c #FCFBFE",
"[ 	c #FEFEFF",
"} 	c #D4D2EA",
"| 	c #CBCBE0",
"1 	c #C2C1D4",
"2 	c #B4B3C4",
"3 	c #A4A2B2",
"4 	c #A1A0AD",
"5 	c #C4C3D0",
"6 	c #E7E6F1",
"7 	c #F6F4FD",
"8 	c #FAF9FF",
"9 	c #FDFDFF",
"0 	c #E6E6E6",
"a 	c #CDCBE1",
"b 	c #C7C6DA",
"c 	c #BDBCCF",
"d 	c #AEADBD",
"e 	c #9F9EAB",
"f 	c #A6A5B1",
"g 	c #CDCCDB",
"h 	c #EAE8F6",
"i 	c #F4F3FE",
"j 	c #F8F7FF",
"k 	c #FBFAFF",
"l 	c #DBDBDB",
"m 	c #BFBED1",
"n 	c #B7B5C7",
"o 	c #A8A7B4",
"p 	c #9D9DA9",
"q 	c #B2B1BD",
"r 	c #D9D7E7",
"s 	c #EBEAFA",
"t 	c #F0EFFC",
"u 	c #F5F4FF",
"v 	c #FCFBFF",
"w 	c #FEFDFE",
"x 	c #FFFEFF",
"y 	c #EAEAEA",
"z 	c #B3B1C3",
"A 	c #A8A7B5",
"B 	c #9E9DAA",
"C 	c #9F9EAA",
"D 	c #BFBDCC",
"E 	c #E0DFEF",
"F 	c #F0EFFD",
"G 	c #F2F1FE",
"H 	c #FBFAFE",
"I 	c #FEFDFF",
"J 	c #9F9FAD",
"K 	c #9A99A6",
"L 	c #94949F",
"M 	c #A6A6B1",
"N 	c #CCCBDA",
"O 	c #E7E6F5",
"P 	c #EDECFB",
"Q 	c #EFEEFC",
"R 	c #F2F1FD",
"S 	c #F5F4FE",
"T 	c #F7F7FE",
"U 	c #FBFBFF",
"V 	c #999999",
"W 	c #92919C",
"X 	c #94939E",
"Y 	c #9B9AA5",
"Z 	c #A7A6B2",
"` 	c #BDBCC9",
" .	c #D9D8E6",
"..	c #EBEAF9",
"+.	c #EEEDFB",
"@.	c #F1F0FC",
"#.	c #F2F1FC",
"$.	c #F3F3FC",
"%.	c #F5F5FD",
"&.	c #F8F7FE",
"*.	c #F0F0F0",
"=.	c #A4A4B1",
"-.	c #B2B2BF",
";.	c #C3C1CF",
">.	c #D0CFDD",
",.	c #DBDAE9",
"'.	c #E5E5F3",
").	c #EDECFA",
"!.	c #F2F2FC",
"~.	c #F5F4FC",
"{.	c #F6F5FC",
"].	c #F8F7FD",
"^.	c #FAFAFE",
"/.	c #DEDEDE",
"(.	c #CDCCDC",
"_.	c #D9D7E8",
":.	c #E1E0F0",
"<.	c #E7E6F6",
"[.	c #EAEAF8",
"}.	c #EDEDFA",
"|.	c #EFEEFA",
"1.	c #F5F5FB",
"2.	c #F6F6FC",
"3.	c #F7F7FC",
"4.	c #F8F8FC",
"5.	c #FBFBFD",
"6.	c #E5E5E5",
"7.	c #E0DEEF",
"8.	c #E6E5F5",
"9.	c #E8E7F7",
"0.	c #ECEBF9",
"a.	c #EFEEFB",
"b.	c #F0EFFB",
"c.	c #F3F2FC",
"d.	c #F6F6FB",
"e.	c #F9F9FC",
"f.	c #FAFAFC",
"g.	c #FBFBFC",
"h.	c #FDFDFD",
"i.	c #D0D0D0",
"j.	c #EAE9F9",
"k.	c #EEEDFD",
"l.	c #F1F0FD",
"m.	c #F2F1FB",
"n.	c #F2F2FB",
"o.	c #F5F5FC",
"p.	c #F7F7FB",
"q.	c #FCFCFC",
"r.	c #A5A5A5",
"s.	c #EAE9F8",
"t.	c #F3F2FF",
"u.	c #F3F2FB",
"v.	c #F3F3FB",
"w.	c #F8F8FB",
"x.	c #939393",
"y.	c #E5E4F1",
"z.	c #F3F2FD",
"A.	c #F4F4FB",
"B.	c #F5F4FB",
"C.	c #F9F9FB",
"D.	c #E2E2E2",
"E.	c #DEDDEA",
"F.	c #EAEAF6",
"G.	c #F3F3FD",
"H.	c #F4F4FC",
"I.	c #FAFAFB",
"J.	c #F6F6F6",
"K.	c #D3D3D3",
"L.	c #AFAFAF",
"M.	c #8B8B8B",
"N.	c #CECDD8",
"O.	c #E2E1EC",
"P.	c #ECEBF5",
"Q.	c #F1F0FA",
"R.	c #F7F7F7",
"S.	c #D9D9D9",
"T.	c #C6C6C6",
"U.	c #AEAEAE",
"V.	c #9D9D9D",
"W.	c #989898",
"X.	c #DBDAE4",
"Y.	c #E6E6EF",
"Z.	c #EFEEF6",
"`.	c #F3F3FA",
" +	c #F7F6FC",
".+	c #FBFBFB",
"++	c #ECECEC",
"@+	c #DDDDDD",
"#+	c #CACACA",
"$+	c #B5B5B5",
"%+	c #9F9F9F",
"&+	c #969696",
"*+	c #DEDDE6",
"=+	c #E7E7EE",
"-+	c #F1F1F8",
";+	c #F8F8FD",
">+	c #FAFAFA",
",+	c #F8F8F8",
"'+	c #F3F3F3",
")+	c #EBEBEB",
"!+	c #DFDFDF",
"~+	c #CECECE",
"{+	c #B9B9B9",
"]+	c #A4A4A4",
"^+	c #979797",
"/+	c #E4E4EA",
"(+	c #F0EFF5",
"_+	c #F9F9FD",
":+	c #FAFAFD",
"<+	c #FBFAFC",
"[+	c #F1F1F1",
"}+	c #E9E9E9",
"|+	c #CFCFCF",
"1+	c #BEBEBE",
"2+	c #A8A8A8",
"3+	c #919191",
"4+	c #ECEBF0",
"5+	c #F5F5F9",
"6+	c #FCFCFD",
"7+	c #595959",
"8+	c #E0E0E0",
"9+	c #D1D1D1",
"0+	c #C0C0C0",
"a+	c #8C8C8C",
"b+	c #E5E5E9",
"c+	c #F0F0F3",
"d+	c #323232",
"e+	c #363636",
"f+	c #F2F2F2",
"g+	c #F9F9F9",
"h+	c #F5F5F5",
"i+	c #EDEDED",
"j+	c #E3E3E3",
"k+	c #D4D4D4",
"l+	c #C4C4C4",
"m+	c #B0B0B0",
"n+	c #9A9A9A",
"o+	c #888888",
"p+	c #848484",
"q+	c #CACACD",
"r+	c #EDEDEF",
"s+	c #F7F7F8",
"t+	c #5A5A5A",
"u+	c #1E1E1E",
"v+	c #383838",
"w+	c #E7E7E7",
"x+	c #C8C8C8",
"y+	c #B4B4B4",
"z+	c #9E9E9E",
"A+	c #8A8A8A",
"B+	c #7E7E7E",
"C+	c #E8E8E9",
"D+	c #F3F3F4",
"E+	c #0B0B0B",
"F+	c #010101",
"G+	c #EEEEEE",
"H+	c #CDCDCD",
"I+	c #BABABA",
"J+	c #909090",
"K+	c #838383",
"L+	c #DADADA",
"M+	c #525252",
"N+	c #191919",
"O+	c #020202",
"P+	c #313131",
"Q+	c #F4F4F4",
"R+	c #C1C1C1",
"S+	c #ACACAC",
"T+	c #868686",
"U+	c #828282",
"V+	c #292929",
"W+	c #272727",
"X+	c #121212",
"Y+	c #585858",
"Z+	c #EFEFEF",
"`+	c #D8D8D8",
" @	c #878787",
".@	c #7B7B7B",
"+@	c #BBBBBB",
"@@	c #B6B6B6",
"#@	c #B2B2B2",
"$@	c #AAAAAA",
"%@	c #C7C7C7",
"&@	c #7C7C7C",
"*@	c #DCDCDC",
"=@	c #7A7A7A",
"-@	c #8F8F8F",
";@	c #7D7D7D",
">@	c #8D8D8D",
",@	c #E4E4E4",
"'@	c #D2D2D2",
")@	c #777777",
"!@	c #6E6E6E",
"~@	c #9C9C9C",
"{@	c #757575",
"]@	c #CBCBCB",
"^@	c #A2A2A2",
"/@	c #858585",
"(@	c #707070",
"_@	c #D5D5D5",
":@	c #A1A1A1",
"<@	c #767676",
"[@	c #C3C3C3",
"}@	c #6F6F6F",
"|@	c #E1E1E1",
"1@	c #E8E8E8",
"2@	c #B8B8B8",
"3@	c #A6A6A6",
"4@	c #929292",
"5@	c #797979",
"6@	c #B3B3B3",
"7@	c #7F7F7F",
"8@	c #787878",
"9@	c #C9C9C9",
"0@	c #BCBCBC",
"a@	c #ADADAD",
"b@	c #808080",
"c@	c #A7A7A7",
". + @ # $ % & * = - ; ; > ;                                                               , ' ) )           ",
"! ~ { ] ^ / ( _ : < [ ; > ; ; ;                                                                             ",
"} | 1 2 3 4 5 6 7 8 9 [ > ; ; ; ; 0                                                                         ",
"a b c d e f g h i j k 9 > ; ; ; ; ; ; l                                                                     ",
"1 m n o p q r s t u j v w x ; ; ; ; ; ; ; y                                                                 ",
"z d A B C D E s F G i j H I [ ; ; ; ; ; ; ; ; ;                                                             ",
"J K L L M N O P Q t R S T U 9 [ ; ; ; ; ; ; ; ; ; V                                                         ",
"W X Y Z `  ...+.t @.#.$.%.&.k 9 [ ; ; ; ; ; ; ; ; ; ; *.                                                    ",
"=.-.;.>.,.'.).t @.#.!.$.~.{.].^.9 ; ; ; ; ; ; ; ; ; ; ; ; /.                                                ",
"(._.:.<.[.}.|.@.#.!.$.~.1.2.3.4.5.w > ; ; ; ; ; ; ; ; ; ; ; ; 6.                                            ",
"7.8.9.0.a.b.b.#.c.$.~.{.d.3.4.e.f.g.h.> > ; ; ; ; ; ; ; ; ; ; ; ; i.                                        ",
"j.k.F l.l.@.m.n.$.~.o.2.p.4.e.f.g.q.h.h.> > ; ; ; ; ; ; ; ; ; ; ; ; ; r.                                    ",
"s.Q G t.R #.u.v.~.o.2.3.w.e.f.g.q.h.h.h.h.h.> > ; ; ; ; ; ; ; ; ; ; ; ; ; x.                                ",
"y.).@.R z.$.$.A.B.2.3.4.C.f.g.q.q.h.h.h.h.h.h.h.h.> ; ; ; ; ; ; ; ; ; ; ; h.D.x.                            ",
"E.F.|.c.G.H.~.1.d.3.4.e.I.g.q.q.h.h.h.h.h.h.h.h.h.h.> > ; ; ; ; ; ; ; ; ; J.0 K.L.M.                        ",
"N.O.P.Q.v.~.2.2.p.w.e.f.g.q.q.h.h.h.h.h.h.h.h.h.h.h.h.h.> > > ; ; ; > > R.y S.T.U.V.W.                      ",
"  X.Y.Z.`.{. +3.4.C.I.g.q.h.h.h.h.h.h.h.h.h.h.h.h.h.h.h.h.h.> > > h..+J.++@+#+$+%+&+                        ",
"  *+=+-+: ;+4.e.e.C..+q.q.h.h.h.h.h.h.h.h.h.h.h.h.h.h.h.h.h.q..+>+,+'+)+!+~+{+]+^+                          ",
"    /+(+: _+_+:+<+g.g.q.q.h.h.h.h.h.h.h.h.h.h.h.h.h.h.h.h.q.q.>+R.[+}+/.|+1+2+^+3+                          ",
"    /+4+5+4.:+5.6+q.q.q.q.h.h.h.h.h.h.h.h.J.7+h.h.h.h.h.h.q..+,+'+++8+9+0+U.W.a+                            ",
"      b+c+C.g.6+h.h.h.q.q.h.h.h.h.h.h.h.6.d+e+f+h.h.h.q.q..+g+h+i+j+k+l+m+n+o+p+                            ",
"      q+r+s+.+h.> > h.q.q.h.h.h.h.h.h.@+t+u+v+'+h.h.h.q..+>+J.[+w+S.x+y+z+A+B+                              ",
"        C+D+.+h.> > > q.q.h.h.h.h.h.!+) E+F+e+G+h.h.h.q.>+,+f+y /.H+I+r.J+K+                                ",
"        1+++J..+h.h.h.h.q.q.h.h.h.L+M+N+F+O+P+h+h.h.q.>+,+Q+i+j+k+R+S+&+T+U+                                ",
"          j+G+R.>+.+h.q.q.q.q.h.G+V V+W+X+v+Y+h.h.q.q.g+J.Z+6.`+T.m+W. @.@                                  ",
"          +@)+J..+q.h.h.q.q.q.q.++1+@@#@m+y+$@h.q..+>+J.*.6.`+%@m+^+p+&@                                    ",
"            i+h+q.> > > h.h.q.q.h.h.h.h.h.h.q.q.q.>+R.[+}+*@#+@@%+A+=@                                      ",
"              Z+,+q.h.> h.h.h.q.q.h.h.h.h.q.q..+>+,+'+y /.~+I+r.-@;@                                        ",
"              )+'+.+h.> h.h.h.q.q.h.h.h.h.q..+>+R.Q+++!+|++@]+-@B+,                                         ",
"                *.,+q.h.h.> h.h.q.h.h.h.q.>+g+R.'+++D.i.+@]+>@&@,                                           ",
"                ,@[+g+q.h.h.h.q.q.q.q.q.>+g+h+[+y 8+'@I+%+o+)@!@                                            ",
"                  6.*.g+>+q.q.h.q..+.+>+,+h+Z+w+*@~++@~@K+{@!@                                              ",
"                  ]@G+R..+q.h.h.q.>+,+J.'+i+j+`+]@{+^@/@{@(@                                                ",
"                    ++R..+h.> h.>+,+h+f+)+D._@%@@@:@M.<@(@                                                  ",
"                    i.'+>+q.q..+R.'+Z+}+!+K.[@#@z+A+=@}@                                                    ",
"                      y J.,+,+R.'+G+6.l ~+0+S+W. @.@,                                                       ",
"                      |@)+f+f+G+1@8+k+T.2@3@4@U+5@                                                          ",
"                        !+0 w+j+L+|+R+6@^@J+7@8@                                                            ",
"                        _@`+`+'@9@0@a@V.>@b@{@                                                              ",
"                          x+%@R+$+c@&+ @&@)@                                                                ",
"                          {+6@S+z+4@p+B+                                                                    ",
"                            W.3+/@b@5@                                                                      ",
"                            {@;@5@                                                                          ",
"                                                                                                            ",
"                                                                                                            ",
"                                                                                                            ",
"                                                                                                            ",
"                                                                                                            ",
"                                                                                                            ",
"                                                                                                            ",
"                                                                                                            ",
"                                                                                                            ",
"                                                                                                            ",
"                                                                                                            ",
"                                                                                                            ",
"                                                                                                            ",
"                                                                                                            "};
